CourierBadi-ItalicContrast.ufo
<glyph name="exclam" format="2">
  <advance width="1228"/>
  <unicode hex="0021"/>
  <outline>
    <contour>
      <point x="772.7589385190421" y="1255.0" type="line" smooth="yes"/>
      <point x="734.799335696411" y="1255.6721825314235"/>
      <point x="701.9431473294399" y="1248.8417675988603"/>
      <point x="697.0917889392443" y="1217.5023303120242" type="curve" smooth="yes"/>
      <point x="620.431326858354" y="510.4888132061533" type="line" smooth="yes"/>
      <point x="618.0767608380572" y="485.31121551871456"/>
      <point x="653.8749342891551" y="477.3310717114036"/>
      <point x="695.8157190487277" y="478.0" type="curve" smooth="yes"/>
      <point x="738.1290338430277" y="477.43475487369597"/>
      <point x="775.7653964217418" y="488.5019207569603"/>
      <point x="786.5300215358184" y="515.337020637511" type="curve" smooth="yes"/>
      <point x="960.1874874138983" y="1222.34952199716" type="line" smooth="yes"/>
      <point x="970.0892738978471" y="1253.3891599899464"/>
      <point x="941.6243062107832" y="1255.8389903606617"/>
      <point x="902.7589385190421" y="1255.0" type="curve" smooth="yes"/>
    </contour>
    <contour>
      <point x="499.8946834283349" y="204.568925512663" type="curve" smooth="yes"/>
      <point x="472.74032839923126" y="50.56892551266297" type="line" smooth="yes"/>
      <point x="466.36230122945955" y="13.321748190028197"/>
      <point x="520.4364464489847" y="3.849643647780404"/>
      <point x="612.2367301929154" y="4.0" type="curve" smooth="yes"/>
      <point x="703.8525389892328" y="3.8639565914950573"/>
      <point x="761.0746567097287" y="16.496735656943738"/>
      <point x="773.9503315558661" y="55.43107448733703" type="curve" smooth="yes"/>
      <point x="801.1046865849697" y="209.431074487337" type="line" smooth="yes"/>
      <point x="807.4827137547413" y="246.6782518099718"/>
      <point x="753.4085685352162" y="256.1503563522196"/>
      <point x="661.6082847912855" y="256.0" type="curve" smooth="yes"/>
      <point x="569.9924759949681" y="256.1360434085049"/>
      <point x="512.7703582744722" y="243.50326434305626"/>
    </contour>
  </outline>
</glyph>
<glyph name="numbersign" format="2">
  <advance width="1228"/>
  <unicode hex="0023"/>
  <outline>
    <contour>
      <point x="1079.5302769731163" y="1170.4010595903671" type="curve" smooth="yes"/>
      <point x="951.6416585436082" y="853.9806899553068" type="line"/>
      <point x="729.7115637911127" y="858.673667757223" type="line"/>
      <point x="851.1939674558511" y="1147.6010339426152" type="line" smooth="yes"/>
      <point x="870.7665027212865" y="1180.1458752473616"/>
      <point x="816.2469735540787" y="1195.6910327234375"/>
      <point x="769.1793196765342" y="1195.0" type="curve" smooth="yes"/>
      <point x="740.0569828384307" y="1195.2743876090676"/>
      <point x="701.7990784134971" y="1188.7036590864132"/>
      <point x="685.5302769731163" y="1170.4010595903671" type="curve" smooth="yes"/>
      <point x="556.7857300843917" y="854.3579755254899" type="line"/>
      <point x="345.5228383128222" y="851.0" type="line" smooth="yes"/>
      <point x="293.0373598913397" y="851.5927660109063"/>
      <point x="255.07913478813725" y="839.509559543111"/>
      <point x="244.22229412349532" y="790.568925512663" type="curve" smooth="yes"/>
      <point x="234.7285670413081" y="742.0286344810233"/>
      <point x="266.8444058740781" y="734.2697712107026"/>
      <point x="320.1317530908033" y="735.0" type="curve" smooth="yes"/>
      <point x="486.2562943163448" y="725.5326555264377" type="line"/>
      <point x="387.6512634291241" y="465.100461531485" type="line"/>
      <point x="206.93164281722932" y="462.0" type="line" smooth="yes"/>
      <point x="154.4461643957468" y="462.59276601090625"/>
      <point x="116.48793929254435" y="450.509559543111"/>
      <point x="105.63109862790243" y="401.568925512663" type="curve" smooth="yes"/>
      <point x="96.13737154571523" y="353.02863448102335"/>
      <point x="128.25321037848522" y="345.2697712107027"/>
      <point x="181.54055759521037" y="346.0" type="curve" smooth="yes"/>
      <point x="315.33003915732155" y="333.66584420841025" type="line"/>
      <point x="192.1060898501844" y="39.399050916622436" type="line" smooth="yes"/>
      <point x="172.5336233796614" y="6.854124752638405"/>
      <point x="227.05315254686923" y="-8.691032723437598"/>
      <point x="274.1208064244138" y="-8.0" type="curve" smooth="yes"/>
      <point x="303.2431432625173" y="-8.274387609067688"/>
      <point x="341.5010476874508" y="-1.7036590864131096"/>
      <point x="357.76986558660985" y="16.598920098660884" type="curve" smooth="yes"/>
      <point x="490.2266835103185" y="342.93169289239165" type="line"/>
      <point x="711.6482923172887" y="337.993346564698" type="line"/>
      <point x="586.1060906606085" y="39.399049916946936" type="line" smooth="yes"/>
      <point x="566.5336233796613" y="6.854124752638409"/>
      <point x="621.0531525468692" y="-8.691032723437594"/>
      <point x="668.1208064244138" y="-8.0" type="curve" smooth="yes"/>
      <point x="697.2431432625173" y="-8.274387609067688"/>
      <point x="735.5010476874508" y="-1.7036590864131096"/>
      <point x="751.7698648116979" y="16.598921054943844" type="curve" smooth="yes"/>
      <point x="885.1379142038705" y="342.5203839687735" type="line"/>
      <point x="1093.5405575952104" y="346.0" type="line" smooth="yes"/>
      <point x="1146.026036016693" y="345.40723398909375"/>
      <point x="1183.9842611198953" y="357.490440456889"/>
      <point x="1194.8411017845372" y="406.431074487337" type="curve" smooth="yes"/>
      <point x="1204.3348288667244" y="454.97136551897665"/>
      <point x="1172.2189900339547" y="462.7302287892973"/>
      <point x="1118.9316428172294" y="462.0" type="curve" smooth="yes"/>
      <point x="955.4856497765268" y="471.59376300321975" type="line"/>
      <point x="1054.0964777971765" y="731.8625326088743" type="line"/>
      <point x="1232.1317530908032" y="735.0" type="line" smooth="yes"/>
      <point x="1284.6172315122856" y="734.4072339890937"/>
      <point x="1322.5754566154883" y="746.490440456889"/>
      <point x="1333.4322972801301" y="795.431074487337" type="curve" smooth="yes"/>
      <point x="1342.9260243623173" y="843.9713655189767"/>
      <point x="1310.8101855295472" y="851.7302287892974"/>
      <point x="1257.5228383128222" y="851.0" type="curve" smooth="yes"/>
      <point x="1126.2988166310897" y="863.1879213416456" type="line"/>
      <point x="1245.1939674558512" y="1147.6010339426152" type="line" smooth="yes"/>
      <point x="1264.7665027212865" y="1180.1458752473616"/>
      <point x="1210.2469735540785" y="1195.6910327234375"/>
      <point x="1163.179319676534" y="1195.0" type="curve" smooth="yes"/>
      <point x="1134.0569828384305" y="1195.2743876090676"/>
      <point x="1095.7990784134972" y="1188.7036590864132"/>
    </contour>
    <contour>
      <point x="658.1013741348561" y="732.6540491909238" type="line"/>
      <point x="882.8544448425174" y="728.4599198238243" type="line"/>
      <point x="783.5614480427078" y="464.34595080907616" type="line"/>
      <point x="558.8084078526246" y="468.54008017617576" type="line"/>
    </contour>
  </outline>
</glyph>
<glyph name="dollar" format="2">
  <advance width="1228"/>
  <unicode hex="0024"/>
  <outline>
    <contour>
      <point x="303.45414166049846" y="814.568925512663" type="curve" smooth="yes"/>
      <point x="281.71407789654415" y="696.2670584324114"/>
      <point x="344.3107461455092" y="640.2004342242624"/>
      <point x="432.7879907597681" y="604.7842524523193" type="curve" smooth="yes"/>
      <point x="571.2773818665128" y="546.8571350686769"/>
      <point x="781.063361098382" y="556.9253052050703"/>
      <point x="883.6467107655681" y="513.0284428054008" type="curve" smooth="yes"/>
      <point x="932.5457640782756" y="490.8262713573377"/>
      <point x="951.4215593928694" y="449.99863900585535"/>
      <point x="940.8098669365669" y="385.568925512663" type="curve" smooth="yes"/>
      <point x="927.4216934131866" y="281.1568114293279"/>
      <point x="846.4245049119043" y="206.4263273888976"/>
      <point x="675.7919357558623" y="206.0" type="curve" smooth="yes"/>
      <point x="548.4595879800022" y="206.13999239415168"/>
      <point x="433.7951801245141" y="243.22970722761352"/>
      <point x="343.1038127432044" y="305.2752773519987" type="curve" smooth="yes"/>
      <point x="308.6480286293565" y="321.4555411147881"/>
      <point x="255.00469105476483" y="321.1962939817747"/>
      <point x="215.0110775675189" y="273.1568114293279" type="curve" smooth="yes"/>
      <point x="179.2679942898146" y="227.5311896001091"/>
      <point x="188.44743643198015" y="208.38709036256233"/>
      <point x="229.76875862752246" y="190.86732930266848" type="curve" smooth="yes"/>
      <point x="319.80133673474177" y="136.78052017899026"/>
      <point x="430.1991564709611" y="104.98362723947697"/>
      <point x="527.044097925784" y="83.22300026349646" type="curve"/>
      <point x="484.1826815083282" y="-162.431074487337" type="line" smooth="yes"/>
      <point x="475.95216186471885" y="-203.96727216811334"/>
      <point x="512.1985247507733" y="-211.53638349407166"/>
      <point x="568.3264293405954" y="-211.0" type="curve" smooth="yes"/>
      <point x="623.8460688061502" y="-211.44729316743454"/>
      <point x="664.93729252885" y="-199.74498324295672"/>
      <point x="675.3926846649631" y="-157.568925512663" type="curve" smooth="yes"/>
      <point x="707.9236144532266" y="85.40142448253997" type="line"/>
      <point x="948.8876032509513" y="98.2642765984956"/>
      <point x="1111.21355781625" y="216.16336554518605"/>
      <point x="1146.0198700932017" y="390.431074487337" type="curve" smooth="yes"/>
      <point x="1170.8696421135182" y="526.5315618574605"/>
      <point x="1097.4616102061009" y="587.5051073365978"/>
      <point x="998.3400976301058" y="625.0421289429291" type="curve" smooth="yes"/>
      <point x="853.8279642095464" y="680.124306087245"/>
      <point x="648.2237106136092" y="670.0710474896104"/>
      <point x="553.5444452390442" y="712.0123937359301" type="curve" smooth="yes"/>
      <point x="513.204485587706" y="731.2701439973213"/>
      <point x="500.1879578504974" y="767.0498569098504"/>
      <point x="508.66414481713326" y="819.431074487337" type="curve" smooth="yes"/>
      <point x="522.0114683701215" y="927.2787658493874"/>
      <point x="604.7604074735726" y="988.6420662137713"/>
      <point x="743.9188061907533" y="989.0" type="curve" smooth="yes"/>
      <point x="863.5118346086958" y="988.8792840152871"/>
      <point x="968.3877162291764" y="956.9084484014128"/>
      <point x="1058.5645141559305" y="901.0646554948996" type="curve" smooth="yes"/>
      <point x="1095.2258088544568" y="885.6795146291573"/>
      <point x="1148.7551588871117" y="886.4545008846175"/>
      <point x="1185.6565232277437" y="935.4396529255012" type="curve" smooth="yes"/>
      <point x="1220.278551318236" y="982.1511560723739"/>
      <point x="1209.5395213742402" y="1001.3539218638521"/>
      <point x="1167.5826124768746" y="1017.86503777352" type="curve" smooth="yes"/>
      <point x="1082.9396791187837" y="1063.9630926257357"/>
      <point x="982.6900470308008" y="1090.623560200871"/>
      <point x="899.8559030571764" y="1111.897842223148" type="curve"/>
      <point x="941.1174445926198" y="1349.4310744873371" type="line" smooth="yes"/>
      <point x="949.3479642362291" y="1390.9672721681134"/>
      <point x="913.1016013501746" y="1398.5363834940717"/>
      <point x="856.9736967603526" y="1398.0" type="curve" smooth="yes"/>
      <point x="801.4540572947977" y="1398.4472931674345"/>
      <point x="760.362833572098" y="1386.7449832429568"/>
      <point x="749.9074414359849" y="1344.5689255126629" type="curve" smooth="yes"/>
      <point x="717.5525171198022" y="1110.2145400221953" type="line"/>
      <point x="521.5581787756674" y="1097.585685651456"/>
      <point x="340.70654730329244" y="997.0543192364743"/>
    </contour>
  </outline>
</glyph>
<glyph name="percent" format="2">
  <advance width="1228"/>
  <unicode hex="0025"/>
  <outline>
    <contour>
      <point x="648.8293975602157" y="249.568925512663" type="curve" smooth="yes"/>
      <point x="622.7242162398227" y="104.68176859438809"/>
      <point x="737.7276971863223" y="-9.415691175316365"/>
      <point x="900.1208064244138" y="-8.0" type="curve" smooth="yes"/>
      <point x="1061.1067325013023" y="-9.073768073094174"/>
      <point x="1217.8546810618727" y="108.42196623921113"/>
      <point x="1248.0394007168504" y="254.431074487337" type="curve" smooth="yes"/>
      <point x="1274.1445820372437" y="399.3182314056119"/>
      <point x="1159.141101090744" y="513.4156911753164"/>
      <point x="996.7479918526526" y="512.0" type="curve" smooth="yes"/>
      <point x="835.7620657757641" y="513.0737680730941"/>
      <point x="679.0141172151937" y="395.57803376078886"/>
    </contour>
    <contour>
      <point x="189.26072538409736" y="932.568925512663" type="curve" smooth="yes"/>
      <point x="163.1555440637043" y="787.6817685943881"/>
      <point x="278.15902501020383" y="673.5843088246836"/>
      <point x="440.5521342482954" y="675.0" type="curve" smooth="yes"/>
      <point x="601.5380603251839" y="673.9262319269059"/>
      <point x="758.2860088857543" y="791.4219662392111"/>
      <point x="788.4707285407322" y="937.431074487337" type="curve" smooth="yes"/>
      <point x="814.5759098611252" y="1082.3182314056119"/>
      <point x="699.5724289146257" y="1196.4156911753164"/>
      <point x="537.1793196765342" y="1195.0" type="curve" smooth="yes"/>
      <point x="376.1933935996457" y="1196.0737680730942"/>
      <point x="219.44544503907522" y="1078.578033760789"/>
    </contour>
    <contour>
      <point x="152.97531511053637" y="218.13797338042338" type="line" smooth="yes"/>
      <point x="109.37593816871632" y="190.15681142932792"/>
      <point x="102.94413551411586" y="171.68272577568393"/>
      <point x="133.1090406920567" y="142.59820206529997" type="curve" smooth="yes"/>
      <point x="164.6873304051193" y="112.75497106863433"/>
      <point x="219.06413187660027" y="110.97090729688722"/>
      <point x="264.1497439830941" y="139.86202661957665" type="curve" smooth="yes"/>
      <point x="1284.50113797112" y="969.8620266195767" type="line" smooth="yes"/>
      <point x="1328.10051491294" y="997.843188570672"/>
      <point x="1334.5323175675405" y="1016.3172742243161"/>
      <point x="1304.3674123895996" y="1045.4017979347" type="curve" smooth="yes"/>
      <point x="1272.7891226765373" y="1075.2450289313656"/>
      <point x="1218.4123212050563" y="1077.0290927031128"/>
      <point x="1173.3267090985623" y="1048.1379733804233" type="curve" smooth="yes"/>
    </contour>
    <contour>
      <point x="1066.8293975602157" y="249.568925512663" type="curve" smooth="yes"/>
      <point x="1056.4835329203777" y="165.55687147627873"/>
      <point x="992.0138083675538" y="95.0835543791001"/>
      <point x="923.0433139165142" y="94.0" type="curve" smooth="yes"/>
      <point x="855.4916652786264" y="95.43023555803146"/>
      <point x="815.5735110483663" y="169.28703232104925"/>
      <point x="830.0394007168507" y="254.431074487337" type="curve" smooth="yes"/>
      <point x="840.3852653566886" y="338.44312852372127"/>
      <point x="904.8549899095125" y="408.91644562089994"/>
      <point x="973.8254843605521" y="410.0" type="curve" smooth="yes"/>
      <point x="1041.3771329984397" y="408.5697644419685"/>
      <point x="1081.2952872287" y="334.71296767895075"/>
    </contour>
    <contour>
      <point x="607.2607253840973" y="932.568925512663" type="curve" smooth="yes"/>
      <point x="596.9148607442594" y="848.5568714762787"/>
      <point x="532.4451361914354" y="778.0835543791001"/>
      <point x="463.4746417403958" y="777.0" type="curve" smooth="yes"/>
      <point x="395.9229931025081" y="778.4302355580314"/>
      <point x="356.0048388722479" y="852.2870323210493"/>
      <point x="370.4707285407322" y="937.431074487337" type="curve" smooth="yes"/>
      <point x="380.8165931805702" y="1021.4431285237213"/>
      <point x="445.286317733394" y="1091.9164456208998"/>
      <point x="514.2568121844337" y="1093.0" type="curve" smooth="yes"/>
      <point x="581.8084608223214" y="1091.5697644419686"/>
      <point x="621.7266150525817" y="1017.7129676789508"/>
    </contour>
  </outline>
</glyph>
<glyph name="ampersand" format="2">
  <advance width="1228"/>
  <unicode hex="0026"/>
  <outline>
    <contour>
      <point x="400.6158206734704" y="917.568925512663" type="curve" smooth="yes"/>
      <point x="381.6868692550181" y="814.9566029063216"/>
      <point x="403.1906231316162" y="741.2071537581029"/>
      <point x="449.7066311060146" y="654.8024099373736" type="curve"/>
      <point x="324.08197003104465" y="565.81879754573"/>
      <point x="217.01263714110576" y="466.283832566399"/>
      <point x="187.81963224839137" y="317.568925512663" type="curve" smooth="yes"/>
      <point x="155.51877643677926" y="138.834077748718"/>
      <point x="272.9243912953846" y="-9.364609173857257"/>
      <point x="512.1208064244138" y="-8.0" type="curve" smooth="yes"/>
      <point x="647.0777941225605" y="-8.4066982616539"/>
      <point x="771.0912550125614" y="49.35786992868774"/>
      <point x="853.0889888768525" y="149.7523410623484" type="curve"/>
      <point x="933.8009218905378" y="12.324529087743588" type="line" smooth="yes"/>
      <point x="962.4743394331934" y="-11.9683720006226"/>
      <point x="1009.8652888704078" y="-10.696224961163853"/>
      <point x="1060.813164755141" y="12.471507831979098" type="curve" smooth="yes"/>
      <point x="1118.7501113511607" y="37.597769416754964"/>
      <point x="1139.3464992767956" y="53.19340021818071"/>
      <point x="1109.8048745130434" y="81.69813330079957" type="curve" smooth="yes"/>
      <point x="990.1586443407352" y="255.92347978743246" type="line"/>
      <point x="1058.531835230782" y="362.382231229517"/>
      <point x="1123.950510785085" y="475.4789315960388"/>
      <point x="1180.813753127731" y="596.8696561955359" type="curve" smooth="yes"/>
      <point x="1203.5744708520058" y="640.3291637505337"/>
      <point x="1188.1915968357537" y="651.910186134933"/>
      <point x="1120.6040607670875" y="659.1613511290022" type="curve" smooth="yes"/>
      <point x="1064.0786738624647" y="667.0"/>
      <point x="1019.9120626623624" y="663.8985560251491"/>
      <point x="995.0481293517518" y="622.2253768721649" type="curve" smooth="yes"/>
      <point x="954.9433755419293" y="531.5011813578589"/>
      <point x="909.9522054672536" y="442.02056279577994"/>
      <point x="897.8356245240082" y="361.63425271292147" type="curve"/>
      <point x="661.2088620860568" y="690.7134043701523" type="line" smooth="yes"/>
      <point x="612.2027546340305" y="762.0852293349759"/>
      <point x="590.6540854550118" y="831.1324996137009"/>
      <point x="605.8258238301053" y="922.431074487337" type="curve" smooth="yes"/>
      <point x="622.1463524246537" y="1034.647420098694"/>
      <point x="698.9686722801025" y="1133.8531541639818"/>
      <point x="814.6625453741892" y="1135.0" type="curve" smooth="yes"/>
      <point x="894.3992203658635" y="1134.8105051631971"/>
      <point x="958.7965036170624" y="1107.3396279601197"/>
      <point x="1015.5879014607054" y="1061.2179600017143" type="curve" smooth="yes"/>
      <point x="1048.5254920522198" y="1044.2733376964215"/>
      <point x="1103.37072382349" y="1042.209033309132"/>
      <point x="1144.7996121757935" y="1089.112342794952" type="curve" smooth="yes"/>
      <point x="1183.7076758770886" y="1137.2461532659506"/>
      <point x="1176.602443623403" y="1151.7923220585221"/>
      <point x="1138.325957523903" y="1170.5297903377825" type="curve" smooth="yes"/>
      <point x="1058.7487083754174" y="1223.5272279096798"/>
      <point x="956.8875506886914" y="1255.1776329286158"/>
      <point x="841.7589385190421" y="1255.0" type="curve" smooth="yes"/>
      <point x="615.0695537281364" y="1256.008497247617"/>
      <point x="438.18179227055543" y="1109.077473110595"/>
    </contour>
    <contour>
      <point x="753.9090115441254" y="249.16489122497478" type="line"/>
      <point x="690.0774022400758" y="160.3303488146812"/>
      <point x="619.1665961565707" y="112.48583688031776"/>
      <point x="538.2171995692665" y="112.0" type="curve" smooth="yes"/>
      <point x="428.0360690039903" y="113.03671539993434"/>
      <point x="372.12292065515015" y="200.45407640632354"/>
      <point x="393.02963540502617" y="322.431074487337" type="curve" smooth="yes"/>
      <point x="408.2968302936977" y="423.6447326310439"/>
      <point x="460.3579370146696" y="496.83180903810785"/>
      <point x="533.6117129489803" y="566.1048294882573" type="curve"/>
    </contour>
  </outline>
</glyph>
<glyph name="quotesingle" format="2">
  <advance width="1228"/>
  <unicode hex="0027"/>
  <outline>
    <contour>
      <point x="755.7589385190421" y="1255.0" type="line" smooth="yes"/>
      <point x="717.9511846062214" y="1255.646164931987"/>
      <point x="683.9431473294399" y="1248.8417675988603"/>
      <point x="679.9813677274788" y="1218.2356567521222" type="curve" smooth="yes"/>
      <point x="655.6338715039394" y="768.2391598897201" type="line" smooth="yes"/>
      <point x="655.1427975051618" y="739.7503498107227"/>
      <point x="692.9098713939196" y="728.291936037217"/>
      <point x="740.0737912065524" y="729.0" type="curve" smooth="yes"/>
      <point x="787.4574189427351" y="728.4235992914053"/>
      <point x="828.9519372532743" y="742.9886518012673"/>
      <point x="842.5110514552679" y="773.0010523179044" type="curve" smooth="yes"/>
      <point x="976.859907293272" y="1222.9979553838514" type="line" smooth="yes"/>
      <point x="988.0892738978471" y="1253.3891599899464"/>
      <point x="958.4385719633299" y="1255.8031440447824"/>
      <point x="919.7589385190421" y="1255.0" type="curve" smooth="yes"/>
    </contour>
  </outline>
</glyph>
<glyph name="parenleft" format="2">
  <advance width="1228"/>
  <unicode hex="0028"/>
  <outline>
    <contour>
      <point x="362.556047447959" y="514.568925512663" type="curve" smooth="yes"/>
      <point x="287.94628473808814" y="96.35834329226262"/>
      <point x="492.1041998162493" y="-193.5020568585087"/>
      <point x="697.1500739944488" y="-325.35328098440147" type="curve" smooth="yes"/>
      <point x="739.3182414501028" y="-340.03131361175195"/>
      <point x="788.6210190005912" y="-322.5672177234619"/>
      <point x="815.1105136389315" y="-294.4148315312191" type="curve" smooth="yes"/>
      <point x="840.7532217710831" y="-266.360841685322"/>
      <point x="857.6397932198794" y="-235.22482099907972"/>
      <point x="828.7247227896913" y="-231.2335170693888" type="curve" smooth="yes"/>
      <point x="657.1156298307421" y="-99.56535009373846"/>
      <point x="496.3844604049642" y="143.68064824049054"/>
      <point x="561.7660506045938" y="519.431074487337" type="curve" smooth="yes"/>
      <point x="624.6611966455679" y="894.4431732640638"/>
      <point x="868.9321376774233" y="1139.020310227294"/>
      <point x="1087.0182412540282" y="1270.0618876318158" type="curve" smooth="yes"/>
      <point x="1121.0819164074499" y="1277.6434702051818"/>
      <point x="1122.7263041692806" y="1308.4400162354852"/>
      <point x="1108.3945056706439" y="1335.5385232805245" type="curve" smooth="yes"/>
      <point x="1092.3961630455049" y="1362.4946908464806"/>
      <point x="1047.2270109732597" y="1378.032842008797"/>
      <point x="1001.0955811279697" y="1362.681366758381" type="curve" smooth="yes"/>
      <point x="749.7056668664648" y="1230.0139224351094"/>
      <point x="439.6951322684502" y="933.5251324207151"/>
    </contour>
  </outline>
</glyph>
<glyph name="parenright" format="2">
  <advance width="1228"/>
  <unicode hex="0029"/>
  <outline>
    <contour>
      <point x="595.9168923364552" y="1332.414831531219" type="curve" smooth="yes"/>
      <point x="570.2741842043037" y="1304.360841685322"/>
      <point x="553.3876127555072" y="1273.2248209990796"/>
      <point x="582.3026831856953" y="1269.2335170693889" type="curve" smooth="yes"/>
      <point x="753.7976199655961" y="1137.499230953772"/>
      <point x="913.9282530226637" y="890.2890677066895"/>
      <point x="848.5560474479589" y="514.568925512663" type="curve" smooth="yes"/>
      <point x="785.6821776831957" y="139.5347745512836"/>
      <point x="542.1884776220102" y="-101.05944992784538"/>
      <point x="324.0091647213583" y="-232.06188763181578" type="curve" smooth="yes"/>
      <point x="289.94548956793676" y="-239.64347020518176"/>
      <point x="288.3011018061061" y="-270.44001623548513"/>
      <point x="302.6329003047429" y="-297.5385232805244" type="curve" smooth="yes"/>
      <point x="318.6312429298818" y="-324.4946908464805"/>
      <point x="363.80039500212683" y="-340.0328420087969"/>
      <point x="409.9318248474169" y="-324.6813667583811" type="curve" smooth="yes"/>
      <point x="661.2427327108254" y="-191.98045191427687"/>
      <point x="970.60882027529" y="100.49356419647077"/>
      <point x="1047.7660506045938" y="519.431074487337" type="curve" smooth="yes"/>
      <point x="1122.3839349088444" y="937.6673909162935"/>
      <point x="919.0196839895933" y="1231.558623923921"/>
      <point x="713.8773319809378" y="1363.3532809844014" type="curve" smooth="yes"/>
      <point x="671.7091645252838" y="1378.031313611752"/>
      <point x="622.4063869747955" y="1360.567217723462"/>
    </contour>
  </outline>
</glyph>
<glyph name="asterisk" format="2">
  <advance width="1228"/>
  <unicode hex="002A"/>
  <outline>
    <contour>
      <point x="1169.1496710117963" y="660.7316611890938" type="line" smooth="yes"/>
      <point x="1237.2731914233698" y="672.1560895239635"/>
      <point x="1283.8700186607443" y="704.3057161641049"/>
      <point x="1275.6247459801734" y="763.0047789233199" type="curve" smooth="yes"/>
      <point x="1262.2838789379252" y="821.6327040777421"/>
      <point x="1197.225366796428" y="834.0175086018353"/>
      <point x="1130.2096157502533" y="811.0958206532358" type="curve" smooth="yes"/>
      <point x="800.3802943084673" y="662.7077865967776" type="line"/>
      <point x="913.5778796352353" y="1033.9179880449801" type="line" smooth="yes"/>
      <point x="930.9114174743252" y="1087.7213667640035"/>
      <point x="889.6187310769319" y="1114.054224810896"/>
      <point x="812.72050725844" y="1113.0" type="curve" smooth="yes"/>
      <point x="736.9976077787248" y="1113.811417837402"/>
      <point x="682.2603096046066" y="1083.314875847694"/>
      <point x="676.6642110205186" y="1029.1548318977684" type="curve" smooth="yes"/>
      <point x="666.953232921002" y="661.7229349359857" type="line"/>
      <point x="389.8296634441766" y="811.4535530486116" type="line" smooth="yes"/>
      <point x="329.83517726896247" y="834.0177787777629"/>
      <point x="260.5265406597339" y="819.2445916113646"/>
      <point x="224.60381588405903" y="758.772741826379" type="curve" smooth="yes"/>
      <point x="189.78793226328645" y="699.343148443091"/>
      <point x="220.24749843697822" y="671.3860652206649"/>
      <point x="285.6612322772244" y="660.6921611036593" type="curve" smooth="yes"/>
      <point x="605.8515839153415" y="577.1048058650811" type="line"/>
      <point x="313.8994367868179" y="287.71808345486494" type="line" smooth="yes"/>
      <point x="261.21762140369026" y="247.049449005501"/>
      <point x="256.26164988660975" y="213.27934175884712"/>
      <point x="310.93274636215244" y="177.81346134337815" type="curve" smooth="yes"/>
      <point x="369.37143304736935" y="141.59633599966972"/>
      <point x="440.630553358489" y="154.27370868879117"/>
      <point x="485.9882775415451" y="202.41373597536628" type="curve" smooth="yes"/>
      <point x="704.2962836671421" y="528.1590576171875" type="line"/>
      <point x="807.0548270093641" y="199.18299826006267" type="line" smooth="yes"/>
      <point x="833.7179769054957" y="152.83881485218055"/>
      <point x="903.0722009775808" y="140.66199760587537"/>
      <point x="973.5029892958431" y="178.77764556845224" type="curve" smooth="yes"/>
      <point x="1040.2023452054734" y="215.02346302770505"/>
      <point x="1058.2063082864092" y="251.05754216318988"/>
      <point x="1021.5506999805024" y="289.7494220674497" type="curve" smooth="yes"/>
      <point x="821.9047276689183" y="581.309130781638" type="line"/>
    </contour>
  </outline>
</glyph>
<glyph name="plus" format="2">
  <advance width="1228"/>
  <unicode hex="002B"/>
  <outline>
    <contour>
      <point x="348.3178453833361" y="640.0" type="line" smooth="yes"/>
      <point x="295.83236696185355" y="640.5927660109063"/>
      <point x="257.8741418586511" y="628.509559543111"/>
      <point x="247.01730119400924" y="579.568925512663" type="curve" smooth="yes"/>
      <point x="237.52357411182203" y="531.0286344810233"/>
      <point x="269.639412944592" y="523.2697712107026"/>
      <point x="322.92676016131713" y="524.0" type="curve" smooth="yes"/>
      <point x="611.8579883816338" y="518.9008262243624" type="line"/>
      <point x="551.836721544084" y="198.568925512663" type="line" smooth="yes"/>
      <point x="543.7621458186535" y="157.95647762351217"/>
      <point x="579.7546332457474" y="151.5444588852119"/>
      <point x="638.3331233377681" y="152.0" type="curve" smooth="yes"/>
      <point x="696.3875467324061" y="151.61513557150863"/>
      <point x="736.8197613710399" y="162.19852208276782"/>
      <point x="747.0467247007189" y="203.431074487337" type="curve" smooth="yes"/>
      <point x="792.7668124375849" y="520.6666042264465" type="line"/>
      <point x="1084.9267601613171" y="524.0" type="line" smooth="yes"/>
      <point x="1137.4122385827998" y="523.4072339890937"/>
      <point x="1175.370463686002" y="535.490440456889"/>
      <point x="1186.2273043506439" y="584.431074487337" type="curve" smooth="yes"/>
      <point x="1195.721031432831" y="632.9713655189767"/>
      <point x="1163.6051926000614" y="640.7302287892974"/>
      <point x="1110.3178453833361" y="640.0" type="curve" smooth="yes"/>
      <point x="821.3866171630194" y="645.0991737756376" type="line"/>
      <point x="881.4078840005692" y="965.431074487337" type="line" smooth="yes"/>
      <point x="889.4824597259997" y="1006.0435223764878"/>
      <point x="853.4899722989057" y="1012.455541114788"/>
      <point x="794.911482206885" y="1012.0" type="curve" smooth="yes"/>
      <point x="736.857058812247" y="1012.3848644284914"/>
      <point x="696.4248441736132" y="1001.8014779172322"/>
      <point x="686.1978808439343" y="960.568925512663" type="curve" smooth="yes"/>
      <point x="640.4777931070684" y="643.3333957735535" type="line"/>
    </contour>
  </outline>
</glyph>
<glyph name="comma" format="2">
  <advance width="1228"/>
  <unicode hex="002C"/>
  <outline>
    <contour>
      <point x="571.8401323282887" y="280.0" type="line" smooth="yes"/>
      <point x="536.7600014622757" y="280.52907676602456"/>
      <point x="501.83396580477387" y="271.414831531219"/>
      <point x="488.4122485613613" y="249.12792264421086" type="curve" smooth="yes"/>
      <point x="309.42085173880787" y="-232.8694769832727" type="line" smooth="yes"/>
      <point x="292.40835517177464" y="-269.49920147582304"/>
      <point x="328.1159453459203" y="-280.6868685265827"/>
      <point x="392.1598676717113" y="-280.0" type="curve" smooth="yes"/>
      <point x="442.52724929983054" y="-280.1989253252677"/>
      <point x="485.49641383054563" y="-270.4278730579044"/>
      <point x="507.5477817380019" y="-245.67612078268337" type="curve" smooth="yes"/>
      <point x="804.8912300690743" y="238.32283551376298" type="line" smooth="yes"/>
      <point x="829.092584239075" y="269.46811370825145"/>
      <point x="814.2467888187351" y="282.72266979077784"/>
      <point x="765.8401323282887" y="280.0" type="curve" smooth="yes"/>
    </contour>
  </outline>
</glyph>
<glyph name="period" format="2">
  <advance width="1228"/>
  <unicode hex="002E"/>
  <outline>
    <contour>
      <point x="495.1844928495888" y="234.568925512663" type="curve" smooth="yes"/>
      <point x="462.74032839923126" y="50.56892551266297" type="line" smooth="yes"/>
      <point x="456.77726126336614" y="13.835903467255957"/>
      <point x="513.7192378671879" y="3.8712881146513745"/>
      <point x="612.2367301929154" y="4.0" type="curve" smooth="yes"/>
      <point x="710.595387685166" y="3.8826978374657735"/>
      <point x="770.601950007536" y="16.820092451254"/>
      <point x="783.9503315558661" y="55.43107448733703" type="curve" smooth="yes"/>
      <point x="816.3944960062237" y="239.431074487337" type="line" smooth="yes"/>
      <point x="822.3575631420888" y="276.16409653274405"/>
      <point x="765.415586538267" y="286.12871188534865"/>
      <point x="666.8980942125395" y="286.0" type="curve" smooth="yes"/>
      <point x="568.5394367202889" y="286.1173021625342"/>
      <point x="508.5328743979189" y="273.17990754874603"/>
    </contour>
  </outline>
</glyph>
<glyph name="slash" format="2">
  <advance width="1228"/>
  <unicode hex="002F"/>
  <outline>
    <contour>
      <point x="1090.015776096793" y="1350.9255483093018" type="curve" smooth="yes"/>
      <point x="128.30603715955306" y="-292.07030330294305" type="line" smooth="yes"/>
      <point x="102.174878219455" y="-322.3191244796727"/>
      <point x="156.9129622344837" y="-341.5936536535507"/>
      <point x="227.40392184849492" y="-341.0" type="curve" smooth="yes"/>
      <point x="265.8467055189611" y="-341.4366408154887"/>
      <point x="303.5994353700013" y="-329.6708517257692"/>
      <point x="321.1879568593023" y="-311.92554830930175" type="curve" smooth="yes"/>
      <point x="1282.8976957965422" y="1331.070303302943" type="line" smooth="yes"/>
      <point x="1309.0288547366401" y="1361.3191244796726"/>
      <point x="1254.2907707216114" y="1380.5936536535507"/>
      <point x="1183.7998111076001" y="1380.0" type="curve" smooth="yes"/>
      <point x="1145.3570274371339" y="1380.4366408154888"/>
      <point x="1107.604297586094" y="1368.6708517257691"/>
    </contour>
  </outline>
</glyph>
<glyph name="zero" format="2">
  <advance width="1228"/>
  <unicode hex="0030"/>
  <outline>
    <contour>
      <point x="268.95689798180234" y="590.568925512663" type="curve" smooth="yes"/>
      <point x="203.42636803858875" y="224.25962598134126"/>
      <point x="336.0529813216085" y="-10.22631593881562"/>
      <point x="610.1208064244138" y="-8.0" type="curve" smooth="yes"/>
      <point x="882.1956661256512" y="-9.601371903393277"/>
      <point x="1101.0927992436118" y="228.67042697515498"/>
      <point x="1168.166901138437" y="595.431074487337" type="curve" smooth="yes"/>
      <point x="1233.6984332215372" y="961.7463615290465"/>
      <point x="1101.292292139037" y="1197.2419921772137"/>
      <point x="827.1793196765342" y="1195.0" type="curve" smooth="yes"/>
      <point x="555.0694343643024" y="1196.6112803722572"/>
      <point x="336.02718990539483" y="957.3342063326689"/>
    </contour>
    <contour>
      <point x="416.3150260912794" y="402.20730255085823" type="line"/>
      <point x="457.83903758772567" y="466.6985694680303"/>
      <point x="462.5938803794302" y="528.2194226439167"/>
      <point x="474.16690113843714" y="595.431074487337" type="curve" smooth="yes"/>
      <point x="525.0978466202442" y="896.3968671436637"/>
      <point x="656.9020430253357" y="1073.1800696560867"/>
      <point x="801.0829265316813" y="1075.0" type="curve" smooth="yes"/>
      <point x="876.3292931969959" y="1074.3004528888016"/>
      <point x="925.5561958003767" y="1021.0265997191377"/>
      <point x="959.634308597725" y="914.3965457265181" type="curve"/>
    </contour>
    <contour>
      <point x="962.9568979818023" y="590.568925512663" type="curve" smooth="yes"/>
      <point x="912.0303660056927" y="289.59744796540826"/>
      <point x="780.4495850995809" y="113.8042560006471"/>
      <point x="636.2171995692665" y="112.0" type="curve" smooth="yes"/>
      <point x="561.083538283516" y="112.68841420187997"/>
      <point x="511.8971842746605" y="165.44310953608598"/>
      <point x="477.77224887080905" y="271.4942823812994" type="curve"/>
      <point x="1020.8411721614808" y="783.6521547638412" type="line"/>
      <point x="979.2773854332005" y="719.1452240898423"/>
      <point x="974.5107140169362" y="657.6685616018046"/>
    </contour>
  </outline>
</glyph>
<glyph name="one" format="2">
  <advance width="1228"/>
  <unicode hex="0031"/>
  <outline>
    <contour>
      <point x="409.0809594663554" y="955.7548787314663" type="line" smooth="yes"/>
      <point x="370.0119601209828" y="940.1622155794314"/>
      <point x="343.3416724020633" y="914.806440772046"/>
      <point x="363.26208157783077" y="875.1967794832665" type="curve" smooth="yes"/>
      <point x="388.6299519335422" y="833.3603060751259"/>
      <point x="445.63154267415973" y="836.5534320783366"/>
      <point x="480.64852697643977" y="851.2131227890955" type="curve" smooth="yes"/>
      <point x="718.6889786106988" y="996.5061056696884" type="line"/>
      <point x="571.0691767399551" y="137.8114724137208" type="line"/>
      <point x="325.39108522201894" y="130.0" type="line" smooth="yes"/>
      <point x="272.9056068005364" y="130.59276601090627"/>
      <point x="234.94738169733398" y="118.50955954311098"/>
      <point x="224.09054103269204" y="69.56892551266297" type="curve" smooth="yes"/>
      <point x="214.59681395050487" y="21.02863448102335"/>
      <point x="246.71265278327485" y="13.269771210702663"/>
      <point x="300.0" y="14.0" type="curve" smooth="yes"/>
      <point x="974.0" y="14.0" type="line" smooth="yes"/>
      <point x="1026.4854784214826" y="13.407233989093736"/>
      <point x="1064.443703524685" y="25.490440456889008"/>
      <point x="1075.3005441893267" y="74.43107448733701" type="curve" smooth="yes"/>
      <point x="1084.794271271514" y="122.97136551897668"/>
      <point x="1052.6784324387443" y="130.73022878929734"/>
      <point x="999.391085222019" y="130.0" type="curve" smooth="yes"/>
      <point x="770.3174906956637" y="142.94738010256523" type="line"/>
      <point x="948.6153182580114" y="1159.4310744873371" type="line" smooth="yes"/>
      <point x="954.9752289654787" y="1203.931981260315"/>
      <point x="880.7682866220799" y="1210.0970393995337"/>
      <point x="826.993660210646" y="1187.7534343389625" type="curve" smooth="yes"/>
    </contour>
  </outline>
</glyph>
<glyph name="two" format="2">
  <advance width="1228"/>
  <unicode hex="0032"/>
  <outline>
    <contour>
      <point x="420.24352544559775" y="1083.146431169206" type="curve" smooth="yes"/>
      <point x="379.1717086507094" y="1062.357977657602"/>
      <point x="357.80298823455604" y="1043.0286344810233"/>
      <point x="379.85194371512193" y="1001.6730438151915" type="curve" smooth="yes"/>
      <point x="406.8783343713592" y="960.2887318444402"/>
      <point x="464.2908388589936" y="959.5574531555366"/>
      <point x="504.43603769742157" y="978.8218377655949" type="curve" smooth="yes"/>
      <point x="595.0357614774597" y="1038.6538508592002"/>
      <point x="693.6951767265972" y="1074.777958183602"/>
      <point x="778.0829265316813" y="1075.0" type="curve" smooth="yes"/>
      <point x="916.9747008595104" y="1074.112840048701"/>
      <point x="966.5824815135463" y="984.0043167086311"/>
      <point x="944.859874850254" y="856.568925512663" type="curve" smooth="yes"/>
      <point x="929.4509764643626" y="754.0758748010452"/>
      <point x="872.170807537156" y="676.8799449739302"/>
      <point x="735.195481597277" y="557.3878262984551" type="curve" smooth="yes"/>
      <point x="216.5439357738144" y="111.39232855422954" type="line" smooth="yes"/>
      <point x="200.3927646128712" y="102.8796233254576"/>
      <point x="188.6210465011651" y="90.06836891649334"/>
      <point x="183.38523310985823" y="65.56892551266297" type="curve" smooth="yes"/>
      <point x="174.27483545319447" y="19.23250055937727"/>
      <point x="207.50904038598878" y="13.406346346449318"/>
      <point x="260.0" y="14.0" type="curve" smooth="yes"/>
      <point x="954.0" y="14.0" type="line" smooth="yes"/>
      <point x="1006.4854784214825" y="13.407233989093736"/>
      <point x="1044.4437035246851" y="25.490440456889008"/>
      <point x="1055.3005441893267" y="74.431074487337" type="curve" smooth="yes"/>
      <point x="1064.794271271514" y="122.97136551897668"/>
      <point x="1032.6784324387443" y="130.73022878929734"/>
      <point x="979.391085222019" y="130.0" type="curve" smooth="yes"/>
      <point x="490.58437045547316" y="139.03577649632132" type="line"/>
      <point x="870.07186619565" y="487.6095537864043" type="line" smooth="yes"/>
      <point x="1023.2538832958497" y="618.0780516086867"/>
      <point x="1122.3814799880233" y="720.0081548036317"/>
      <point x="1150.0698780068888" y="861.431074487337" type="curve" smooth="yes"/>
      <point x="1188.643474236752" y="1076.5758331266115"/>
      <point x="1044.9444262319253" y="1195.819533808211"/>
      <point x="803.1793196765342" y="1195.0" type="curve" smooth="yes"/>
      <point x="679.865616243321" y="1195.1940313542484"/>
      <point x="536.813489937936" y="1153.260970520565"/>
    </contour>
  </outline>
</glyph>
<glyph name="three" format="2">
  <advance width="1228"/>
  <unicode hex="0033"/>
  <outline>
    <contour>
      <point x="430.95578819668054" y="1100.6645887836735" type="curve" smooth="yes"/>
      <point x="388.85091460317744" y="1082.8331512491993"/>
      <point x="364.43796574224746" y="1063.189632719614"/>
      <point x="383.3743167471355" y="1018.8041801070253" type="curve" smooth="yes"/>
      <point x="406.76081298565265" y="976.7003191141945"/>
      <point x="462.3204426866474" y="976.6811254917194"/>
      <point x="502.4490886140325" y="993.2840204562398" type="curve" smooth="yes"/>
      <point x="598.5382367125022" y="1047.9141239341707"/>
      <point x="684.8083298497181" y="1074.8555410776669"/>
      <point x="768.0829265316813" y="1075.0" type="curve" smooth="yes"/>
      <point x="904.9879880619415" y="1074.304162846184"/>
      <point x="956.6308616058461" y="994.6332895992248"/>
      <point x="936.3864144644233" y="876.568925512663" type="curve" smooth="yes"/>
      <point x="918.150693912223" y="749.8276735259803"/>
      <point x="843.0437189387803" y="677.4870382441845"/>
      <point x="696.8419436695493" y="677.0" type="curve" smooth="yes"/>
      <point x="641.8419436695493" y="677.0" type="line" smooth="yes"/>
      <point x="590.0176274586823" y="677.490851947979"/>
      <point x="551.8789337173605" y="667.3505769848824"/>
      <point x="541.2467074030562" y="620.568925512663" type="curve" smooth="yes"/>
      <point x="532.1363097463925" y="574.2325005593773"/>
      <point x="565.3705146791868" y="568.4063463464494"/>
      <point x="617.8614742931981" y="569.0" type="curve" smooth="yes"/>
      <point x="690.8614742931981" y="569.0" type="line" smooth="yes"/>
      <point x="838.4426178258961" y="568.4179663771816"/>
      <point x="904.3105039733813" y="487.78501530175305"/>
      <point x="879.227806766103" y="342.568925512663" type="curve" smooth="yes"/>
      <point x="859.0043272341794" y="206.03430177377598"/>
      <point x="771.2788736648122" y="112.66850370177087"/>
      <point x="610.2171995692665" y="112.0" type="curve" smooth="yes"/>
      <point x="509.4211540389287" y="112.28329226020422"/>
      <point x="418.1889006805578" y="156.05677602840223"/>
      <point x="347.9748060271534" y="221.438473439282" type="curve" smooth="yes"/>
      <point x="312.87445303558735" y="240.53018510569763"/>
      <point x="255.87594931330256" y="237.57604556867045"/>
      <point x="213.45108798048483" y="194.28173418713703" type="curve" smooth="yes"/>
      <point x="173.76617206071333" y="151.50955954311098"/>
      <point x="179.07175238691246" y="134.17869197116397"/>
      <point x="212.67199554967047" y="114.74556760091542" type="curve" smooth="yes"/>
      <point x="307.09390910407205" y="40.172697194031485"/>
      <point x="446.28582038651365" y="-8.244200235405339"/>
      <point x="584.1208064244138" y="-8.0" type="curve" smooth="yes"/>
      <point x="854.5714011264027" y="-8.760113827615038"/>
      <point x="1043.0646004021476" y="135.0203979203501"/>
      <point x="1084.4378099227376" y="347.431074487337" type="curve" smooth="yes"/>
      <point x="1109.133565072609" y="482.2297374741917"/>
      <point x="1045.9715268894627" y="571.5726756584501"/>
      <point x="945.1766026226936" y="629.8640878071724" type="curve"/>
      <point x="1036.110738890546" y="690.2860102591043"/>
      <point x="1118.4816349126197" y="766.0204765049965"/>
      <point x="1141.596417621058" y="881.431074487337" type="curve" smooth="yes"/>
      <point x="1176.4817560305285" y="1076.2474680236842"/>
      <point x="1032.9877561625822" y="1195.8279116851836"/>
      <point x="793.1793196765342" y="1195.0" type="curve" smooth="yes"/>
      <point x="675.5150931268204" y="1195.1397296862374"/>
      <point x="551.5611911123864" y="1163.032431083177"/>
    </contour>
  </outline>
</glyph>
<glyph name="four" format="2">
  <advance width="1228"/>
  <unicode hex="0034"/>
  <outline>
    <contour>
      <point x="823.565750389625" y="1138.962908539737" type="curve" smooth="yes"/>
      <point x="212.09114913421138" y="415.95666496061574" type="line" smooth="yes"/>
      <point x="200.92910120690502" y="407.7539605519538"/>
      <point x="190.12956753034214" y="392.9214786132258"/>
      <point x="185.69394316806543" y="373.568925512663" type="curve" smooth="yes"/>
      <point x="176.59657129971313" y="327.3094406160067"/>
      <point x="208.70009013298818" y="315.0212529092581"/>
      <point x="263.2507481739564" y="316.0" type="curve" smooth="yes"/>
      <point x="728.4004088399973" y="314.17052656990546" type="line"/>
      <point x="672.0929823606481" y="52.56892551266297" type="line" smooth="yes"/>
      <point x="663.7175071854643" y="10.401273050558181"/>
      <point x="697.4844108427092" y="3.5196335395191802"/>
      <point x="760.2367301929154" y="4.0" type="curve" smooth="yes"/>
      <point x="762.2367301929154" y="4.0" type="line" smooth="yes"/>
      <point x="824.4388973327357" y="3.5958406047512987"/>
      <point x="863.2680137594765" y="14.779548258186928"/>
      <point x="873.302985517283" y="57.43107448733703" type="curve" smooth="yes"/>
      <point x="911.2356613807578" y="310.95536563954556" type="line"/>
      <point x="1053.2507481739565" y="316.0" type="line" smooth="yes"/>
      <point x="1105.7362265954391" y="315.40723398909375"/>
      <point x="1143.6944516986414" y="327.490440456889"/>
      <point x="1154.5512923632832" y="376.431074487337" type="curve" smooth="yes"/>
      <point x="1164.0450194454704" y="424.97136551897665"/>
      <point x="1131.9291806127007" y="432.7302287892973"/>
      <point x="1078.6418333959755" y="432.0" type="curve" smooth="yes"/>
      <point x="942.5948962148863" y="445.1591495374396" type="line"/>
      <point x="1063.0308167595913" y="1133.4310744873371" type="line" smooth="yes"/>
      <point x="1071.4470613440883" y="1176.0020595579897"/>
      <point x="1035.41944342557" y="1195.913943112456"/>
      <point x="964.1793196765342" y="1195.0" type="curve" smooth="yes"/>
      <point x="906.3239843466431" y="1195.359641036029"/>
      <point x="860.3977205747024" y="1178.527470936733"/>
    </contour>
    <contour>
      <point x="746.8107472888375" y="437.09270416130886" type="line"/>
      <point x="446.1822340935594" y="448.6207057612776" type="line"/>
      <point x="870.9163648627973" y="1006.0" type="line"/>
    </contour>
  </outline>
</glyph>
<glyph name="five" format="2">
  <advance width="1228"/>
  <unicode hex="0035"/>
  <outline>
    <contour>
      <point x="560.3001261009479" y="1173.0" type="line" smooth="yes"/>
      <point x="498.02143420237434" y="1173.4143472444837"/>
      <point x="460.40693778913493" y="1162.0591243875413"/>
      <point x="448.42822544059186" y="1119.036062763256" type="curve" smooth="yes"/>
      <point x="340.26473508635934" y="619.036062763256" type="line" smooth="yes"/>
      <point x="329.73746606560445" y="577.6129180955431"/>
      <point x="366.7193498527736" y="570.5561673604003"/>
      <point x="429.214128254615" y="571.0" type="curve" smooth="yes"/>
      <point x="454.18170570551996" y="570.9598543823809"/>
      <point x="477.28112987518324" y="573.2236134365203"/>
      <point x="494.52604371281245" y="578.9489238083421" type="curve" smooth="yes"/>
      <point x="565.3766673234231" y="624.5654816949148"/>
      <point x="629.5060728505179" y="651.8325333917131"/>
      <point x="720.4966136920007" y="652.0" type="curve" smooth="yes"/>
      <point x="860.693223268392" y="650.7342084623318"/>
      <point x="922.6667367356092" y="536.7542986587873"/>
      <point x="896.45721297515" y="383.568925512663" type="curve" smooth="yes"/>
      <point x="871.9164138764754" y="223.115160967169"/>
      <point x="766.2860565501853" y="112.8518906945048"/>
      <point x="610.2171995692665" y="112.0" type="curve" smooth="yes"/>
      <point x="512.2931088923764" y="112.26938761506631"/>
      <point x="422.37441972072946" y="153.9081931394873"/>
      <point x="352.4806052309883" y="215.23858561507896" type="curve" smooth="yes"/>
      <point x="317.81649115133655" y="234.53018510569763"/>
      <point x="260.81798742905175" y="231.57604556867045"/>
      <point x="218.39312609623403" y="188.28173418713703" type="curve" smooth="yes"/>
      <point x="178.46094263300907" y="145.83300622303332"/>
      <point x="186.06146403974114" y="127.37689163231771"/>
      <point x="219.819784305683" y="107.9140924748624" type="curve" smooth="yes"/>
      <point x="313.95143749164527" y="37.28860429205825"/>
      <point x="449.45603188527696" y="-8.227169777207376"/>
      <point x="584.1208064244138" y="-8.0" type="curve" smooth="yes"/>
      <point x="851.4852538244212" y="-8.939592075806184"/>
      <point x="1057.356981522217" y="158.96385718174014"/>
      <point x="1101.667216131785" y="388.431074487337" type="curve" smooth="yes"/>
      <point x="1142.7299187042372" y="616.5042075421704"/>
      <point x="1014.5956972957637" y="773.3153637797893"/>
      <point x="759.5930068368534" y="772.0" type="curve" smooth="yes"/>
      <point x="677.2557252497412" y="772.1158075860701"/>
      <point x="595.7483061626829" y="752.9299968878247"/>
      <point x="560.7176527556412" y="729.8745912652165" type="curve"/>
      <point x="615.7292078982109" y="1055.0792123017618" type="line"/>
      <point x="1068.9090408789289" y="1057.0" type="line" smooth="yes"/>
      <point x="1121.3945193004113" y="1056.4072339890938"/>
      <point x="1159.352744403614" y="1068.490440456889"/>
      <point x="1170.2095850682558" y="1117.4310744873371" type="curve" smooth="yes"/>
      <point x="1179.703312150443" y="1165.9713655189767"/>
      <point x="1147.587473317673" y="1173.7302287892974"/>
      <point x="1094.3001261009479" y="1173.0" type="curve" smooth="yes"/>
    </contour>
  </outline>
</glyph>
<glyph name="six" format="2">
  <advance width="1228"/>
  <unicode hex="0036"/>
  <outline>
    <contour>
      <point x="267.67441254441667" y="509.568925512663" type="curve" smooth="yes"/>
      <point x="241.95838900731536" y="366.97293248175396"/>
      <point x="249.24130640303457" y="261.9220291465141"/>
      <point x="285.4227930757607" y="178.2776958980896" type="curve" smooth="yes"/>
      <point x="343.01463042778255" y="52.218796392320066"/>
      <point x="473.8043341309988" y="-8.419425918976222"/>
      <point x="622.1208064244138" y="-8.0" type="curve" smooth="yes"/>
      <point x="877.9816320704855" y="-8.838103526285845"/>
      <point x="1080.219557917006" y="143.25271795744257"/>
      <point x="1121.8484257684054" y="355.431074487337" type="curve" smooth="yes"/>
      <point x="1161.6082517198897" y="577.4748296147882"/>
      <point x="1007.9056615562295" y="718.0793114457587"/>
      <point x="776.8950228978879" y="717.0" type="curve" smooth="yes"/>
      <point x="657.3445800388754" y="717.3227315481496"/>
      <point x="533.0785293940241" y="669.5648761710056"/>
      <point x="487.8545404600591" y="588.824147159851" type="curve"/>
      <point x="567.6619718427942" y="868.5925058438534"/>
      <point x="763.4299656351122" y="1056.2268102806102"/>
      <point x="1126.5689762420338" y="1075.9822259726097" type="curve" smooth="yes"/>
      <point x="1162.4905084024363" y="1075.6714607063366"/>
      <point x="1194.8455904300613" y="1087.0586180715989"/>
      <point x="1201.2639419071224" y="1143.2356662322338" type="curve" smooth="yes"/>
      <point x="1205.3714317525023" y="1193.7915950219317"/>
      <point x="1165.436673431734" y="1196.3883024212078"/>
      <point x="1129.0143794104972" y="1195.0140597237032" type="curve" smooth="yes"/>
      <point x="590.6832551648345" y="1172.382093736684"/>
      <point x="326.4238067747457" y="828.1635571003711"/>
    </contour>
    <contour>
      <point x="916.6384226117707" y="350.568925512663" type="curve" smooth="yes"/>
      <point x="896.0016382089013" y="208.61201662068297"/>
      <point x="792.9916976792214" y="112.71907654210018"/>
      <point x="648.2171995692665" y="112.0" type="curve" smooth="yes"/>
      <point x="504.43988385350315" y="113.12753970008539"/>
      <point x="437.32600536857143" y="223.77277336013566"/>
      <point x="462.4933304790325" y="370.431074487337" type="curve" smooth="yes"/>
      <point x="480.88836467149815" y="502.7874041847386"/>
      <point x="588.868622176956" y="596.3085561950845"/>
      <point x="728.7986297530351" y="597.0" type="curve" smooth="yes"/>
      <point x="876.5114979360463" y="596.0764049553646"/>
      <point x="941.502147143723" y="495.33675746102404"/>
    </contour>
  </outline>
</glyph>
<glyph name="seven" format="2">
  <advance width="1228"/>
  <unicode hex="0037"/>
  <outline>
    <contour>
      <point x="471.3001261009479" y="1173.0" type="line" smooth="yes"/>
      <point x="418.8146476794654" y="1173.5927660109062"/>
      <point x="380.85642257626296" y="1161.509559543111"/>
      <point x="369.9995819116211" y="1112.5689255126629" type="curve" smooth="yes"/>
      <point x="360.5058548294338" y="1064.0286344810233"/>
      <point x="392.6216936622038" y="1056.2697712107026"/>
      <point x="445.909040878929" y="1057.0" type="curve" smooth="yes"/>
      <point x="1007.6380271280169" y="1043.1413441439813" type="line"/>
      <point x="433.42866259634775" y="48.9341848479518" type="line" smooth="yes"/>
      <point x="406.6895527720621" y="14.179891833095613"/>
      <point x="439.2310563582959" y="0.23032251635323142"/>
      <point x="490.8315673457866" y="-6.224928479607762" type="curve" smooth="yes"/>
      <point x="542.216062722184" y="-14.048092128180885"/>
      <point x="596.5478015270577" y="-2.333395773553587"/>
      <point x="623.7209684206388" y="31.025622022696616" type="curve" smooth="yes"/>
      <point x="1235.748581922863" y="1086.0231630324322" type="line" smooth="yes"/>
      <point x="1241.4901725883356" y="1092.6081962651797"/>
      <point x="1248.4130025590684" y="1105.6502916790832"/>
      <point x="1251.9148929910896" y="1121.4310744873371" type="curve" smooth="yes"/>
      <point x="1261.0252906477535" y="1167.7674994406227"/>
      <point x="1227.791085714959" y="1173.5936536535507"/>
      <point x="1175.3001261009479" y="1173.0" type="curve" smooth="yes"/>
    </contour>
  </outline>
</glyph>
<glyph name="eight" format="2">
  <advance width="1228"/>
  <unicode hex="0038"/>
  <outline>
    <contour>
      <point x="376.38641446442335" y="876.568925512663" type="curve" smooth="yes"/>
      <point x="356.45755501678855" y="768.419101948271"/>
      <point x="418.72051896421203" y="690.0075816068091"/>
      <point x="497.0238500362151" y="624.6964123477744" type="curve"/>
      <point x="380.15074360881476" y="565.4120110657453"/>
      <point x="270.9258758694204" y="469.47739494177114"/>
      <point x="244.3461718625607" y="337.568925512663" type="curve" smooth="yes"/>
      <point x="208.14972389329975" y="134.94004789512218"/>
      <point x="366.3440635056113" y="-9.027487047976031"/>
      <point x="610.1208064244138" y="-8.0" type="curve" smooth="yes"/>
      <point x="852.8191136533267" y="-8.806709362427451"/>
      <point x="1062.9387941437885" y="138.59624319983632"/>
      <point x="1103.5561750191955" y="342.431074487337" type="curve" smooth="yes"/>
      <point x="1127.5472740637474" y="473.6016125285552"/>
      <point x="1053.9809912707663" y="566.5204365687958"/>
      <point x="954.0288848376525" y="629.0725612247663" type="curve"/>
      <point x="1045.1425006544307" y="691.342736887379"/>
      <point x="1139.009762385859" y="772.5860957833122"/>
      <point x="1161.596417621058" y="881.431074487337" type="curve" smooth="yes"/>
      <point x="1193.5604539807366" y="1060.0589166386062"/>
      <point x="1049.3425137912736" y="1196.1138887702011"/>
      <point x="827.1793196765342" y="1195.0" type="curve" smooth="yes"/>
      <point x="606.1707487521762" y="1195.867215051491"/>
      <point x="412.77278106547726" y="1056.4030622300008"/>
    </contour>
    <contour>
      <point x="898.5224988432691" y="338.568925512663" type="curve" smooth="yes"/>
      <point x="880.164547985728" y="207.32579461508345"/>
      <point x="774.9589065309266" y="112.7249780288457"/>
      <point x="636.2171995692665" y="112.0" type="curve" smooth="yes"/>
      <point x="498.44954170095525" y="112.91235076111633"/>
      <point x="426.7949202592014" y="210.94342513982502"/>
      <point x="449.73250199990395" y="343.431074487337" type="curve" smooth="yes"/>
      <point x="468.04559150278396" y="474.7109367007809"/>
      <point x="572.785728027719" y="567.303167085595"/>
      <point x="711.6851473124896" y="568.0" type="curve" smooth="yes"/>
      <point x="849.6468388233632" y="567.1268594068897"/>
      <point x="921.4912957800909" y="471.1116853666546"/>
    </contour>
    <contour>
      <point x="957.8574335222978" y="873.568925512663" type="curve" smooth="yes"/>
      <point x="943.7912621181807" y="765.1351121880786"/>
      <point x="850.6233525086607" y="679.7826199017944"/>
      <point x="736.1945976309662" y="679.0" type="curve" smooth="yes"/>
      <point x="622.813683756335" y="679.9933594740097"/>
      <point x="560.0174120105856" y="768.6558826559178"/>
      <point x="579.0674366789327" y="878.431074487337" type="curve" smooth="yes"/>
      <point x="595.1275233709993" y="997.8216425570224"/>
      <point x="685.8281618446717" y="1074.3643868288038"/>
      <point x="801.0829265316813" y="1075.0" type="curve" smooth="yes"/>
      <point x="915.4795971922092" y="1074.211334896999"/>
      <point x="978.8076654336754" y="994.278591558369"/>
    </contour>
  </outline>
</glyph>
<glyph name="nine" format="2">
  <advance width="1228"/>
  <unicode hex="0039"/>
  <outline>
    <contour>
      <point x="315.45170033254243" y="831.568925512663" type="curve" smooth="yes"/>
      <point x="275.69187438105826" y="609.5251703852118"/>
      <point x="429.3944645447185" y="468.92068855424134"/>
      <point x="660.40510320306" y="470.0" type="curve" smooth="yes"/>
      <point x="779.9555460620725" y="469.6772684518504"/>
      <point x="904.2215967069237" y="517.4351238289944"/>
      <point x="949.4455856408888" y="598.175852840149" type="curve"/>
      <point x="869.6381542581538" y="318.4074941561466"/>
      <point x="673.8701604658357" y="130.7731897193899"/>
      <point x="310.731149858914" y="111.01777402739036" type="curve" smooth="yes"/>
      <point x="274.8096176985116" y="111.32853929366334"/>
      <point x="242.45453567088663" y="99.9413819284011"/>
      <point x="236.03618419382548" y="43.764333767766075" type="curve" smooth="yes"/>
      <point x="231.92869434844556" y="-6.791595021931675"/>
      <point x="271.8634526692139" y="-9.388302421207811"/>
      <point x="308.28574669045065" y="-8.01405972370322" type="curve" smooth="yes"/>
      <point x="846.6168709361134" y="14.617906263315977"/>
      <point x="1110.8763193262023" y="358.8364428996288"/>
      <point x="1169.6257135565313" y="677.431074487337" type="curve" smooth="yes"/>
      <point x="1195.3417370936324" y="820.027067518246"/>
      <point x="1188.0588196979133" y="925.0779708534859"/>
      <point x="1151.8773330251872" y="1008.7223041019104" type="curve" smooth="yes"/>
      <point x="1094.2854956731655" y="1134.78120360768"/>
      <point x="963.4957919699491" y="1195.4194259189762"/>
      <point x="815.1793196765342" y="1195.0" type="curve" smooth="yes"/>
      <point x="559.3184940304625" y="1195.8381035262857"/>
      <point x="357.08056818394215" y="1043.7472820425573"/>
    </contour>
    <contour>
      <point x="974.8067956219154" y="816.568925512663" type="curve" smooth="yes"/>
      <point x="956.4117614294498" y="684.2125958152615"/>
      <point x="848.431503923992" y="590.6914438049155"/>
      <point x="708.5014963479128" y="590.0" type="curve" smooth="yes"/>
      <point x="560.7886281649016" y="590.9235950446354"/>
      <point x="495.7979789572249" y="691.663242538976"/>
      <point x="520.6617034891773" y="836.431074487337" type="curve" smooth="yes"/>
      <point x="541.2984878920465" y="978.387983379317"/>
      <point x="644.3084284217265" y="1074.2809234579"/>
      <point x="789.0829265316813" y="1075.0" type="curve" smooth="yes"/>
      <point x="932.8602422474447" y="1073.8724602999146"/>
      <point x="999.9741207323765" y="963.2272266398644"/>
    </contour>
  </outline>
</glyph>
<glyph name="less" format="2">
  <advance width="1228"/>
  <unicode hex="003C"/>
  <outline>
    <contour>
      <point x="468.40363133135247" y="585.431074487337" type="line"/>
      <point x="1182.080727489143" y="917.8064331628417" type="line" smooth="yes"/>
      <point x="1233.4435650075256" y="935.8892872588528"/>
      <point x="1258.2158230916389" y="954.0419108754512"/>
      <point x="1242.0634975911794" y="995.6887844812854" type="curve" smooth="yes"/>
      <point x="1224.355543354072" y="1035.948611025279"/>
      <point x="1174.366339469967" y="1044.0496432584032"/>
      <point x="1121.3339395885228" y="1025.2389184820024" type="curve" smooth="yes"/>
      <point x="277.1448675905095" y="644.2409827958815" type="line" smooth="yes"/>
      <point x="238.98585627369357" y="629.2165993818103"/>
      <point x="211.00932678916925" y="617.4160522974668"/>
      <point x="202.19362817471767" y="580.568925512663" type="curve" smooth="yes"/>
      <point x="194.83314517391037" y="544.1482304314097"/>
      <point x="215.97610333322473" y="535.7771343315138"/>
      <point x="249.4459989814559" y="521.3330133887835" type="curve" smooth="yes"/>
      <point x="959.2762700435582" y="140.33615037994034" type="line" smooth="yes"/>
      <point x="1006.7890644769842" y="121.9472801984279"/>
      <point x="1058.3925224965476" y="132.16370994666062"/>
      <point x="1091.807082809165" y="173.84318857067208" type="curve" smooth="yes"/>
      <point x="1125.924235525612" y="216.62090654393208"/>
      <point x="1115.9659865972526" y="231.72230637914979"/>
      <point x="1070.074120990708" y="248.5951442581391" type="curve" smooth="yes"/>
    </contour>
  </outline>
</glyph>
<glyph name="greater" format="2">
  <advance width="1228"/>
  <unicode hex="003E"/>
  <outline>
    <contour>
      <point x="965.1936281747177" y="580.568925512663" type="line"/>
      <point x="251.5165320169272" y="248.19356683715833" type="line" smooth="yes"/>
      <point x="200.15369449854452" y="230.11071274114715"/>
      <point x="175.3814364144314" y="211.9580891245488"/>
      <point x="191.5337619148908" y="170.31121551871456" type="curve" smooth="yes"/>
      <point x="209.24171615199808" y="130.05138897472094"/>
      <point x="259.2309200361032" y="121.9503567415969"/>
      <point x="312.2633199175475" y="140.76108151799758" type="curve" smooth="yes"/>
      <point x="1156.4523919155608" y="521.7590172041185" type="line" smooth="yes"/>
      <point x="1194.6114032323765" y="536.7834006181897"/>
      <point x="1222.587932716901" y="548.5839477025332"/>
      <point x="1231.4036313313525" y="585.431074487337" type="curve" smooth="yes"/>
      <point x="1238.7641143321596" y="621.8517695685903"/>
      <point x="1217.6211561728455" y="630.2228656684862"/>
      <point x="1184.1512605246141" y="644.6669866112165" type="curve" smooth="yes"/>
      <point x="474.320989462512" y="1025.6638496200596" type="line" smooth="yes"/>
      <point x="426.80819502908594" y="1044.052719801572"/>
      <point x="375.2047370095227" y="1033.8362900533393"/>
      <point x="341.79017669690523" y="992.156811429328" type="curve" smooth="yes"/>
      <point x="307.6730239804582" y="949.3790934560678"/>
      <point x="317.63127290881755" y="934.2776936208502"/>
      <point x="363.5231385153621" y="917.4048557418608" type="curve" smooth="yes"/>
    </contour>
  </outline>
</glyph>
<glyph name="question" format="2">
  <advance width="1228"/>
  <unicode hex="003F"/>
  <outline>
    <contour>
      <point x="498.49607972625495" y="1178.4463981407994" type="curve" smooth="yes"/>
      <point x="453.15858092357956" y="1160.101674571344"/>
      <point x="425.737641747451" y="1143.4568315384718"/>
      <point x="441.27975708678935" y="1094.6655909777526" type="curve" smooth="yes"/>
      <point x="460.32031068117624" y="1048.0206293530116"/>
      <point x="516.9917449760713" y="1051.6266590334524"/>
      <point x="555.1304722981531" y="1066.613341804609" type="curve" smooth="yes"/>
      <point x="644.5972460370638" y="1111.1364302607144"/>
      <point x="728.9390682604128" y="1134.888387616919"/>
      <point x="816.6625453741892" y="1135.0" type="curve" smooth="yes"/>
      <point x="932.5190334490986" y="1134.1057179115448"/>
      <point x="972.3662887914197" y="1056.213007529173"/>
      <point x="954.963591978975" y="953.568925512663" type="curve" smooth="yes"/>
      <point x="940.8020944854462" y="848.6544914463202"/>
      <point x="877.0392431039699" y="793.3349670657512"/>
      <point x="715.9525428051855" y="730.9128393992694" type="curve" smooth="yes"/>
      <point x="642.1093301398945" y="702.8937311851452" type="line" smooth="yes"/>
      <point x="611.6670123810495" y="695.5633621809159"/>
      <point x="591.2483792041513" y="686.4578419503388"/>
      <point x="586.4827192093752" y="663.1610410135551" type="curve" smooth="yes"/>
      <point x="556.7990227570406" y="438.2026693688512" type="line" smooth="yes"/>
      <point x="554.6010916180461" y="413.6611674154846"/>
      <point x="592.7775018712908" y="402.3528277273232"/>
      <point x="642.5911954955928" y="403.0" type="curve" smooth="yes"/>
      <point x="691.6846012664877" y="402.4688982373182"/>
      <point x="734.3603366900525" y="417.0724683784828"/>
      <point x="745.8902399377804" y="443.21221608434035" type="curve" smooth="yes"/>
      <point x="778.9068610994324" y="621.0132421361727" type="line"/>
      <point x="993.0440276123511" y="707.5569431785477"/>
      <point x="1125.9643919696236" y="787.0808079751218"/>
      <point x="1160.17359513561" y="958.431074487337" type="curve" smooth="yes"/>
      <point x="1192.512955257405" y="1137.8280275719687"/>
      <point x="1071.2757181077063" y="1255.9715571945992"/>
      <point x="841.7589385190421" y="1255.0" type="curve" smooth="yes"/>
      <point x="723.8802393576267" y="1255.086075795101"/>
      <point x="608.5471814706655" y="1230.8269708486744"/>
    </contour>
    <contour>
      <point x="462.84160419999625" y="164.568925512663" type="curve" smooth="yes"/>
      <point x="442.74032839923126" y="50.56892551266298" type="line" smooth="yes"/>
      <point x="435.97378374014716" y="12.78113934806148"/>
      <point x="487.10484639776786" y="3.8220836248713894"/>
      <point x="572.2367301929154" y="4.0" type="curve" smooth="yes"/>
      <point x="657.1518396912327" y="3.8403671589960773"/>
      <point x="711.5504367513382" y="16.15032239959583"/>
      <point x="723.9503315558661" y="55.43107448733702" type="curve" smooth="yes"/>
      <point x="744.051607356631" y="169.43107448733704" type="line" smooth="yes"/>
      <point x="750.8181520157152" y="207.21886065193854"/>
      <point x="699.6870893580945" y="216.1779163751286"/>
      <point x="614.555205562947" y="216.0" type="curve" smooth="yes"/>
      <point x="529.6400960646297" y="216.1596328410039"/>
      <point x="475.24149900452414" y="203.84967760040416"/>
    </contour>
  </outline>
</glyph>
<glyph name="at" format="2">
  <advance width="1228"/>
  <unicode hex="0040"/>
  <outline>
    <contour>
      <point x="92.98619391727546" y="386.568925512663" type="curve" smooth="yes"/>
      <point x="33.923644210341735" y="56.45232099277414"/>
      <point x="204.6441005975508" y="-140.16359432006988"/>
      <point x="535.0219719516049" y="-139.0" type="curve" smooth="yes"/>
      <point x="647.4958712616171" y="-139.06351871598017"/>
      <point x="761.7543536793628" y="-118.52139325303786"/>
      <point x="840.0117371470046" y="-88.03713112006491" type="curve" smooth="yes"/>
      <point x="869.334531200422" y="-81.20551065367872"/>
      <point x="891.0511721248537" y="-70.05059964432365"/>
      <point x="886.4378102634794" y="-37.79427982341096" type="curve" smooth="yes"/>
      <point x="880.1097368641534" y="-5.24055014768777"/>
      <point x="844.9760810409182" y="0.2119942611190364"/>
      <point x="808.8792763146201" y="-6.428153267319068" type="curve" smooth="yes"/>
      <point x="739.8595548454327" y="-27.662817437520886"/>
      <point x="648.5377629250027" y="-43.95104444487224"/>
      <point x="554.710190578746" y="-44.0" type="curve" smooth="yes"/>
      <point x="316.4775595212561" y="-42.74305113732141"/>
      <point x="222.15230211108425" y="130.88225217175386"/>
      <point x="267.1961970739103" y="391.431074487337" type="curve" smooth="yes"/>
      <point x="321.0838673228224" y="716.637935072575"/>
      <point x="557.3838482111439" y="967.6874283220919"/>
      <point x="823.392266576584" y="969.0" type="curve" smooth="yes"/>
      <point x="1055.7967010063667" y="967.7847369988925"/>
      <point x="1163.0613331686682" y="794.4775406090951"/>
      <point x="1117.0246251778776" y="528.568925512663" type="curve" smooth="yes"/>
      <point x="1090.4549710570845" y="366.79820471606934"/>
      <point x="1021.9183827083159" y="251.0206348091657"/>
      <point x="934.3739959263263" y="249.0" type="curve" smooth="yes"/>
      <point x="889.0660589946125" y="251.44948812397942"/>
      <point x="879.8880295266771" y="319.66240613769577"/>
      <point x="915.1086446504609" y="409.54645761791005" type="curve" smooth="yes"/>
      <point x="1045.3637009024374" y="711.5410783176529" type="line" smooth="yes"/>
      <point x="1055.356915114652" y="722.8738779320855"/>
      <point x="1027.3273860145127" y="731.3135291250966"/>
      <point x="1000.2863119671224" y="739.0082891634202" type="curve" smooth="yes"/>
      <point x="973.2607416422516" y="747.2693876150663"/>
      <point x="931.8027215084528" y="748.7802138640936"/>
      <point x="909.2908988517969" y="740.2087145163198" type="curve" smooth="yes"/>
      <point x="886.9544843696696" y="671.0347019215222" type="line"/>
      <point x="897.7750238147748" y="738.1108443561702"/>
      <point x="852.649189683845" y="772.1298033861275"/>
      <point x="778.416679856145" y="771.0" type="curve" smooth="yes"/>
      <point x="583.6516163886608" y="773.4765091634222"/>
      <point x="394.22290547852646" y="529.7749452356317"/>
      <point x="360.3437305346046" y="354.568925512663" type="curve" smooth="yes"/>
      <point x="335.1031617743148" y="216.35089318342696"/>
      <point x="412.5066684255868" y="144.48374707173454"/>
      <point x="522.2751614535174" y="146.0" type="curve" smooth="yes"/>
      <point x="620.8373213048085" y="145.21908731046483"/>
      <point x="697.7758573669976" y="197.20329128685663"/>
      <point x="753.4784043586541" y="279.97896963659696" type="curve"/>
      <point x="748.3325681183019" y="188.76901073345493"/>
      <point x="818.3056046491652" y="150.34644882172995"/>
      <point x="913.1567963570596" y="151.0" type="curve" smooth="yes"/>
      <point x="1093.0518205939234" y="149.4489279788021"/>
      <point x="1245.7854321080465" y="301.8834670077194"/>
      <point x="1289.2346283345123" y="533.431074487337" type="curve" smooth="yes"/>
      <point x="1345.7768793293098" y="849.3959954893393"/>
      <point x="1171.3447760412366" y="1065.3821128550467"/>
      <point x="850.0804852037252" y="1064.0" type="curve" smooth="yes"/>
      <point x="488.4427676606657" y="1065.2254160182538"/>
      <point x="164.95126316013184" y="774.2321264546714"/>
    </contour>
    <contour>
      <point x="785.3144345991313" y="558.568925512663" type="curve" smooth="yes"/>
      <point x="764.2399617085376" y="424.10259436674255"/>
      <point x="658.2228240262051" y="254.8324997273641"/>
      <point x="570.9029768684517" y="252.0" type="curve" smooth="yes"/>
      <point x="543.7401133805315" y="253.2741080365835"/>
      <point x="535.6401556132329" y="292.26695683340483"/>
      <point x="546.9063876526563" y="361.431074487337" type="curve" smooth="yes"/>
      <point x="570.5707693997044" y="514.5319064888496"/>
      <point x="694.4033221573095" y="669.28780823674"/>
      <point x="752.02315330617" y="672.0" type="curve" smooth="yes"/>
      <point x="787.3727781026197" y="670.5158288236635"/>
      <point x="796.0450645608094" y="624.7042204551141"/>
    </contour>
  </outline>
</glyph>
<glyph name="B" format="2">
  <advance width="1228"/>
  <unicode hex="0042"/>
  <outline>
    <contour>
      <point x="477.3001261009479" y="1173.0" type="line" smooth="yes"/>
      <point x="425.475809890081" y="1173.4908519479789"/>
      <point x="387.33711614875904" y="1163.3505769848823"/>
      <point x="376.70488983445495" y="1116.5689255126629" type="curve" smooth="yes"/>
      <point x="191.38523310985823" y="65.56892551266297" type="line" smooth="yes"/>
      <point x="182.27483545319447" y="19.23250055937727"/>
      <point x="215.50904038598878" y="13.406346346449318"/>
      <point x="268.0" y="14.0" type="curve" smooth="yes"/>
      <point x="690.0" y="14.0" type="line" smooth="yes"/>
      <point x="943.7026208083059" y="13.371525872196612"/>
      <point x="1118.6391803861588" y="133.0875689308604"/>
      <point x="1158.8508670963615" y="338.431074487337" type="curve" smooth="yes"/>
      <point x="1184.4133352189506" y="478.1678057313539"/>
      <point x="1118.0281022709125" y="565.1644122674043"/>
      <point x="1008.9126719208073" y="619.2714449942138" type="curve"/>
      <point x="1091.705390336089" y="681.8679674632468"/>
      <point x="1163.9635816686653" y="755.735059193997"/>
      <point x="1184.8935510261804" y="860.431074487337" type="curve" smooth="yes"/>
      <point x="1218.7969027145018" y="1048.2067421602533"/>
      <point x="1101.9558055365903" y="1174.001223344504"/>
      <point x="853.3001261009479" y="1173.0" type="curve" smooth="yes"/>
    </contour>
    <contour>
      <point x="953.6408639397267" y="333.568925512663" type="curve" smooth="yes"/>
      <point x="934.9108395890175" y="199.19840483496023"/>
      <point x="844.2928291178205" y="130.39053750003967"/>
      <point x="695.391085222019" y="130.0" type="curve" smooth="yes"/>
      <point x="402.3137351554438" y="136.47313546073278" type="line"/>
      <point x="467.2236775168779" y="540.7855111283109" type="line"/>
      <point x="758.6296267561949" y="545.0" type="line" smooth="yes"/>
      <point x="919.0258821062985" y="544.540895164432"/>
      <point x="977.2750718276195" y="470.71162689739447"/>
    </contour>
    <contour>
      <point x="979.6835478695455" y="855.568925512663" type="curve" smooth="yes"/>
      <point x="962.4575742774991" y="734.8713744400471"/>
      <point x="890.1313110424943" y="661.5004335851793"/>
      <point x="741.0207119782139" y="661.0" type="curve" smooth="yes"/>
      <point x="496.8098611682478" y="668.2605202382732" type="line"/>
      <point x="558.216721032685" y="1052.3762449641006" type="line"/>
      <point x="805.909040878929" y="1057.0" type="line" smooth="yes"/>
      <point x="955.6681744510367" y="1056.4461280617816"/>
      <point x="1001.2805869932806" y="982.1261220679145"/>
    </contour>
  </outline>
</glyph>
<glyph name="C" format="2">
  <advance width="1228"/>
  <unicode hex="0043"/>
  <outline>
    <contour>
      <point x="229.13322496251078" y="591.568925512663" type="curve" smooth="yes"/>
      <point x="163.8097746304761" y="226.16418228806575"/>
      <point x="339.07649582095974" y="-9.592759671952782"/>
      <point x="660.1208064244138" y="-8.0" type="curve" smooth="yes"/>
      <point x="796.3254641731716" y="-8.106751401879063"/>
      <point x="927.2472780302385" y="23.035369684040855"/>
      <point x="1062.9225343652656" y="91.42172624070719" type="curve" smooth="yes"/>
      <point x="1110.7696609101715" y="111.12272691064143"/>
      <point x="1133.4510814516857" y="133.0783326013064"/>
      <point x="1118.2757464737597" y="179.16955525403907" type="curve" smooth="yes"/>
      <point x="1096.9723081907366" y="225.18231719215083"/>
      <point x="1036.9265330223802" y="219.54096026828864"/>
      <point x="999.7558331147454" y="203.67462242277824" type="curve" smooth="yes"/>
      <point x="894.8148821666553" y="145.08699646959064"/>
      <point x="793.4520128721475" y="112.14757725510478"/>
      <point x="686.2171995692665" y="112.0" type="curve" smooth="yes"/>
      <point x="481.71809058814176" y="113.72440279403189"/>
      <point x="383.74163766577436" y="304.205720176589"/>
      <point x="434.3432281191456" y="596.431074487337" type="curve" smooth="yes"/>
      <point x="482.93677248524597" y="888.0842188739983"/>
      <point x="644.8926796239507" y="1073.7326428242795"/>
      <point x="851.0829265316813" y="1075.0" type="curve" smooth="yes"/>
      <point x="958.1174750156774" y="1074.836211071005"/>
      <point x="1046.9727412523578" y="1041.5646438223275"/>
      <point x="1130.8157100471626" y="982.6574584457829" type="curve" smooth="yes"/>
      <point x="1163.324905221466" y="967.3396342418991"/>
      <point x="1220.4408923475212" y="963.209033309132"/>
      <point x="1259.9600584761336" y="1011.5225391391729" type="curve" smooth="yes"/>
      <point x="1294.4113973528297" y="1058.5902333889715"/>
      <point x="1287.85073277636" y="1078.017570889231"/>
      <point x="1246.332236982557" y="1096.189828845871" type="curve" smooth="yes"/>
      <point x="1134.2960950204574" y="1164.2549579614965"/>
      <point x="1013.5283903706494" y="1195.1166306655853"/>
      <point x="877.1793196765342" y="1195.0" type="curve" smooth="yes"/>
      <point x="557.714129949687" y="1196.184165121246"/>
      <point x="296.81430364175026" y="957.642797537304"/>
    </contour>
  </outline>
</glyph>
<glyph name="D" format="2">
  <advance width="1228"/>
  <unicode hex="0044"/>
  <outline>
    <contour>
      <point x="447.3001261009479" y="1173.0" type="line" smooth="yes"/>
      <point x="395.475809890081" y="1173.4908519479789"/>
      <point x="357.33711614875904" y="1163.3505769848823"/>
      <point x="346.70488983445495" y="1116.5689255126629" type="curve" smooth="yes"/>
      <point x="161.38523310985823" y="65.56892551266297" type="line" smooth="yes"/>
      <point x="152.27483545319447" y="19.23250055937727"/>
      <point x="185.50904038598878" y="13.406346346449318"/>
      <point x="238.0" y="14.0" type="curve" smooth="yes"/>
      <point x="574.0" y="14.0" type="line" smooth="yes"/>
      <point x="898.540666498774" y="13.023376446007932"/>
      <point x="1162.273410059397" y="229.57679683919724"/>
      <point x="1230.166901138437" y="595.431074487337" type="curve" smooth="yes"/>
      <point x="1295.3965788740038" y="960.5346515125133"/>
      <point x="1109.1740343400581" y="1174.2832059367497"/>
      <point x="783.3001261009479" y="1173.0" type="curve" smooth="yes"/>
    </contour>
    <contour>
      <point x="1024.9568979818023" y="590.568925512663" type="curve" smooth="yes"/>
      <point x="974.9423221550717" y="288.54779724990425"/>
      <point x="808.5504457881794" y="130.83416838763253"/>
      <point x="580.391085222019" y="130.0" type="curve" smooth="yes"/>
      <point x="376.30928310580424" y="142.89032254702215" type="line"/>
      <point x="532.7756328088336" y="1048.5538800834884" type="line"/>
      <point x="738.909040878929" y="1057.0" type="line" smooth="yes"/>
      <point x="965.8949687633288" y="1055.919917109924"/>
      <point x="1077.4578963754714" y="893.2912187918688"/>
    </contour>
  </outline>
</glyph>
<glyph name="E" format="2">
  <advance width="1228"/>
  <unicode hex="0045"/>
  <outline>
    <contour>
      <point x="497.3001261009479" y="1173.0" type="line" smooth="yes"/>
      <point x="445.475809890081" y="1173.4908519479789"/>
      <point x="407.33711614875904" y="1163.3505769848823"/>
      <point x="396.70488983445495" y="1116.5689255126629" type="curve" smooth="yes"/>
      <point x="211.38523310985823" y="65.56892551266297" type="line" smooth="yes"/>
      <point x="202.27483545319447" y="19.23250055937727"/>
      <point x="235.50904038598878" y="13.406346346449318"/>
      <point x="288.0" y="14.0" type="curve" smooth="yes"/>
      <point x="977.0" y="14.0" type="line" smooth="yes"/>
      <point x="1029.4854784214826" y="13.407233989093736"/>
      <point x="1067.443703524685" y="25.490440456889008"/>
      <point x="1078.3005441893267" y="74.43107448733701" type="curve" smooth="yes"/>
      <point x="1087.794271271514" y="122.97136551897668"/>
      <point x="1055.6784324387443" y="130.73022878929734"/>
      <point x="1002.391085222019" y="130.0" type="curve" smooth="yes"/>
      <point x="415.9124356872606" y="132.76836243951618" type="line"/>
      <point x="485.8388013380013" y="551.1910117869913" type="line"/>
      <point x="927.2165695825711" y="554.0" type="line" smooth="yes"/>
      <point x="979.7020480040536" y="553.4072339890937"/>
      <point x="1017.6602731072561" y="565.490440456889"/>
      <point x="1028.517113771898" y="614.431074487337" type="curve" smooth="yes"/>
      <point x="1038.0108408540852" y="662.9713655189767"/>
      <point x="1005.8950020213152" y="670.7302287892974"/>
      <point x="952.6076548045901" y="670.0" type="curve" smooth="yes"/>
      <point x="513.1263075974574" y="673.655134935338" type="line"/>
      <point x="571.5491867840005" y="1055.2341816389699" type="line"/>
      <point x="1140.9090408789289" y="1057.0" type="line" smooth="yes"/>
      <point x="1193.3945193004113" y="1056.4072339890938"/>
      <point x="1231.352744403614" y="1068.490440456889"/>
      <point x="1242.2095850682558" y="1117.4310744873371" type="curve" smooth="yes"/>
      <point x="1251.703312150443" y="1165.9713655189767"/>
      <point x="1219.587473317673" y="1173.7302287892974"/>
      <point x="1166.3001261009479" y="1173.0" type="curve" smooth="yes"/>
    </contour>
  </outline>
</glyph>
<glyph name="F" format="2">
  <advance width="1228"/>
  <unicode hex="0046"/>
  <outline>
    <contour>
      <point x="517.3001261009479" y="1173.0" type="line" smooth="yes"/>
      <point x="468.475809890081" y="1173.4908519479789"/>
      <point x="427.7338478693507" y="1162.8890908963142"/>
      <point x="416.70488983445495" y="1116.5689255126629" type="curve" smooth="yes"/>
      <point x="229.09298236064814" y="52.56892551266297" type="line" smooth="yes"/>
      <point x="220.7175071854643" y="10.401273050558164"/>
      <point x="254.48441084270917" y="3.5196335395191802"/>
      <point x="317.23673019291533" y="4.0" type="curve" smooth="yes"/>
      <point x="319.23673019291533" y="4.0" type="line" smooth="yes"/>
      <point x="381.4388973327357" y="3.5958406047512987"/>
      <point x="420.2680137594764" y="14.779548258186946"/>
      <point x="430.302985517283" y="57.43107448733703" type="curve" smooth="yes"/>
      <point x="499.599117494721" y="510.84796435092017" type="line"/>
      <point x="950.1634903542325" y="514.0" type="line" smooth="yes"/>
      <point x="1002.648968775715" y="513.4072339890937"/>
      <point x="1040.6071938789173" y="525.490440456889"/>
      <point x="1051.4640345435594" y="574.431074487337" type="curve" smooth="yes"/>
      <point x="1060.9577616257466" y="622.9713655189767"/>
      <point x="1028.8419227929764" y="630.7302287892974"/>
      <point x="975.5545755762514" y="630.0" type="curve" smooth="yes"/>
      <point x="526.993675176483" y="634.1298427526707" type="line"/>
      <point x="592.475130636662" y="1054.9431838463618" type="line"/>
      <point x="1160.9090408789289" y="1057.0" type="line" smooth="yes"/>
      <point x="1213.3945193004113" y="1056.4072339890938"/>
      <point x="1251.352744403614" y="1068.490440456889"/>
      <point x="1262.2095850682558" y="1117.4310744873371" type="curve" smooth="yes"/>
      <point x="1271.703312150443" y="1165.9713655189767"/>
      <point x="1239.587473317673" y="1173.7302287892974"/>
      <point x="1186.3001261009479" y="1173.0" type="curve" smooth="yes"/>
    </contour>
  </outline>
</glyph>
<glyph name="H" format="2">
  <advance width="1228"/>
  <unicode hex="0048"/>
  <outline>
    <contour>
      <point x="1188.0633959080326" y="1183.0" type="line" smooth="yes"/>
      <point x="1125.8612287682122" y="1183.4041593952486"/>
      <point x="1087.0321123414715" y="1172.2204517418131"/>
      <point x="1076.997140583665" y="1129.5689255126629" type="curve" smooth="yes"/>
      <point x="1008.959798942728" y="672.4332204893641" type="line"/>
      <point x="462.977056030343" y="673.5824195156827" type="line"/>
      <point x="550.2071437402998" y="1134.4310744873371" type="line" smooth="yes"/>
      <point x="558.5826189154836" y="1176.598726949442"/>
      <point x="524.8157152582388" y="1183.4803664604808"/>
      <point x="462.0633959080326" y="1183.0" type="curve" smooth="yes"/>
      <point x="460.0633959080326" y="1183.0" type="line" smooth="yes"/>
      <point x="397.86122876821224" y="1183.4041593952486"/>
      <point x="359.03211234147153" y="1172.2204517418131"/>
      <point x="348.99714058366493" y="1129.5689255126629" type="curve" smooth="yes"/>
      <point x="159.09298236064816" y="52.56892551266297" type="line" smooth="yes"/>
      <point x="150.71750718546434" y="10.40127305055817"/>
      <point x="184.4844108427092" y="3.5196335395191802"/>
      <point x="247.23673019291536" y="4.0" type="curve" smooth="yes"/>
      <point x="249.23673019291536" y="4.0" type="line" smooth="yes"/>
      <point x="311.4388973327357" y="3.5958406047512987"/>
      <point x="350.2680137594764" y="14.779548258186946"/>
      <point x="360.302985517283" y="57.43107448733703" type="curve" smooth="yes"/>
      <point x="435.5594967722114" y="551.3024934876321" type="line"/>
      <point x="979.9730404004059" y="549.9749711945113" type="line"/>
      <point x="887.0929823606481" y="52.56892551266298" type="line" smooth="yes"/>
      <point x="878.7175071854643" y="10.401273050558181"/>
      <point x="912.4844108427092" y="3.5196335395191802"/>
      <point x="975.2367301929154" y="4.0" type="curve" smooth="yes"/>
      <point x="977.2367301929154" y="4.0" type="line" smooth="yes"/>
      <point x="1039.4388973327357" y="3.5958406047512987"/>
      <point x="1078.2680137594764" y="14.779548258186946"/>
      <point x="1088.3029855172829" y="57.43107448733703" type="curve" smooth="yes"/>
      <point x="1278.2071437402997" y="1134.4310744873371" type="line" smooth="yes"/>
      <point x="1286.5826189154836" y="1176.598726949442"/>
      <point x="1252.8157152582387" y="1183.4803664604808"/>
      <point x="1190.0633959080326" y="1183.0" type="curve" smooth="yes"/>
    </contour>
  </outline>
</glyph>
<glyph name="J" format="2">
  <advance width="1228"/>
  <unicode hex="004A"/>
  <outline>
    <contour>
      <point x="652.3001261009479" y="1173.0" type="line" smooth="yes"/>
      <point x="599.8146476794653" y="1173.5927660109062"/>
      <point x="561.856422576263" y="1161.509559543111"/>
      <point x="550.999581911621" y="1112.5689255126629" type="curve" smooth="yes"/>
      <point x="541.5058548294339" y="1064.0286344810233"/>
      <point x="573.6216936622038" y="1056.2697712107026"/>
      <point x="626.909040878929" y="1057.0" type="curve" smooth="yes"/>
      <point x="963.4037320509784" y="1047.678417096323" type="line"/>
      <point x="842.4016924188553" y="360.568925512663" type="line" smooth="yes"/>
      <point x="817.513331284945" y="204.02746783070103"/>
      <point x="747.525289281971" y="112.80548704632301"/>
      <point x="604.2171995692665" y="112.0" type="curve" smooth="yes"/>
      <point x="504.59585536504096" y="112.199961131672"/>
      <point x="418.16579670581336" y="147.861216563191"/>
      <point x="350.18041154759226" y="211.42391389221308" type="curve" smooth="yes"/>
      <point x="320.948968303069" y="229.14028001501202"/>
      <point x="263.8586361856812" y="234.0409516172809"/>
      <point x="216.6159950937983" y="188.13304584439305" type="curve" smooth="yes"/>
      <point x="176.0718342948779" y="145.07127771539092"/>
      <point x="176.72562387027347" y="124.4451235270822"/>
      <point x="213.3310792194208" y="102.64322070963713" type="curve" smooth="yes"/>
      <point x="305.8132741209917" y="29.36755090223413"/>
      <point x="441.25119344610073" y="-8.155923515983496"/>
      <point x="577.1208064244138" y="-8.0" type="curve" smooth="yes"/>
      <point x="821.0182764943248" y="-8.661470065331926"/>
      <point x="995.0014634330439" y="110.86126989290436"/>
      <point x="1038.3218861542362" y="335.431074487337" type="curve" smooth="yes"/>
      <point x="1176.9148929910896" y="1121.4310744873371" type="line" smooth="yes"/>
      <point x="1185.9009826437796" y="1167.1611191775057"/>
      <point x="1149.791085714959" y="1173.5936536535507"/>
      <point x="1100.3001261009479" y="1173.0" type="curve" smooth="yes"/>
    </contour>
  </outline>
</glyph>
<glyph name="K" format="2">
  <advance width="1228"/>
  <unicode hex="004B"/>
  <outline>
    <contour>
      <point x="500.0633959080326" y="1183.0" type="line" smooth="yes"/>
      <point x="437.86122876821224" y="1183.4041593952486"/>
      <point x="399.03211234147153" y="1172.2204517418131"/>
      <point x="388.99714058366493" y="1129.5689255126629" type="curve" smooth="yes"/>
      <point x="199.09298236064816" y="52.56892551266297" type="line" smooth="yes"/>
      <point x="190.71750718546434" y="10.40127305055817"/>
      <point x="224.4844108427092" y="3.5196335395191802"/>
      <point x="287.23673019291533" y="4.0" type="curve" smooth="yes"/>
      <point x="289.23673019291533" y="4.0" type="line" smooth="yes"/>
      <point x="351.4388973327357" y="3.5958406047512987"/>
      <point x="390.2680137594764" y="14.779548258186946"/>
      <point x="400.302985517283" y="57.43107448733703" type="curve" smooth="yes"/>
      <point x="452.4555280897974" y="372.1234494492114" type="line"/>
      <point x="621.1960253187018" y="561.311016571354" type="line"/>
      <point x="931.6149310189012" y="13.06822538815082" type="line" smooth="yes"/>
      <point x="959.4459760098099" y="-15.132476786149107"/>
      <point x="1012.0232205006861" y="-11.756565247331622"/>
      <point x="1063.9561641596822" y="12.431934634715297" type="curve" smooth="yes"/>
      <point x="1122.9291670345567" y="38.596500926769906"/>
      <point x="1141.2730477241332" y="52.479211278160996"/>
      <point x="1116.6527548853358" y="84.92040966792503" type="curve" smooth="yes"/>
      <point x="786.22578766625" y="663.0450502585894" type="line"/>
      <point x="1263.195523846228" y="1104.4539813812648" type="line" smooth="yes"/>
      <point x="1305.418377020264" y="1134.713401824423"/>
      <point x="1308.7296685658114" y="1148.450407314925"/>
      <point x="1260.7761252564148" y="1175.750232334586" type="curve" smooth="yes"/>
      <point x="1219.6116993309386" y="1200.0166652789512"/>
      <point x="1164.9472437084362" y="1202.7630352924239"/>
      <point x="1128.6550464766003" y="1180.5732369429843" type="curve" smooth="yes"/>
      <point x="465.332763782008" y="569.9738160667002" type="line"/>
      <point x="590.2071437402998" y="1134.4310744873371" type="line" smooth="yes"/>
      <point x="598.5826189154836" y="1176.598726949442"/>
      <point x="564.8157152582388" y="1183.4803664604808"/>
      <point x="502.0633959080326" y="1183.0" type="curve" smooth="yes"/>
    </contour>
  </outline>
</glyph>
<glyph name="L" format="2">
  <advance width="1228"/>
  <unicode hex="004C"/>
  <outline>
    <contour>
      <point x="530.0633959080326" y="1183.0" type="line" smooth="yes"/>
      <point x="467.86122876821224" y="1183.4041593952486"/>
      <point x="429.03211234147153" y="1172.2204517418131"/>
      <point x="418.99714058366493" y="1129.5689255126629" type="curve" smooth="yes"/>
      <point x="231.38523310985823" y="65.56892551266297" type="line" smooth="yes"/>
      <point x="222.24415998908793" y="19.028634481023346"/>
      <point x="254.50904038598878" y="13.406346346449318"/>
      <point x="308.0" y="14.0" type="curve" smooth="yes"/>
      <point x="977.0" y="14.0" type="line" smooth="yes"/>
      <point x="1029.4854784214826" y="13.407233989093736"/>
      <point x="1067.443703524685" y="25.490440456889008"/>
      <point x="1078.3005441893267" y="74.43107448733701" type="curve" smooth="yes"/>
      <point x="1087.794271271514" y="122.97136551897668"/>
      <point x="1055.6784324387443" y="130.73022878929734"/>
      <point x="1002.391085222019" y="130.0" type="curve" smooth="yes"/>
      <point x="444.4244393844836" y="138.65869256892768" type="line"/>
      <point x="620.2071437402998" y="1134.4310744873371" type="line" smooth="yes"/>
      <point x="628.5826189154836" y="1176.598726949442"/>
      <point x="594.8157152582388" y="1183.4803664604808"/>
      <point x="532.0633959080326" y="1183.0" type="curve" smooth="yes"/>
    </contour>
  </outline>
</glyph>
<glyph name="M" format="2">
  <advance width="1228"/>
  <unicode hex="004D"/>
  <outline>
    <contour>
      <point x="1187.0633959080326" y="1183.0" type="line" smooth="yes"/>
      <point x="1133.7221543495118" y="1183.4227731305882"/>
      <point x="1088.6450166356176" y="1167.3812863233657"/>
      <point x="1056.71668570151" y="1124.4418181875799" type="curve" smooth="yes"/>
      <point x="713.0957631581573" y="548.0" type="line"/>
      <point x="573.581877637255" y="1128.1166201784565" type="line" smooth="yes"/>
      <point x="558.051869918574" y="1169.9984642798395"/>
      <point x="518.0696909092359" y="1183.5178883171554"/>
      <point x="464.0633959080326" y="1183.0" type="curve" smooth="yes"/>
      <point x="462.0633959080326" y="1183.0" type="line" smooth="yes"/>
      <point x="410.13171463651753" y="1183.254156632155"/>
      <point x="362.345580323561" y="1174.60155794738"/>
      <point x="349.1259995209839" y="1129.203825890837" type="curve" smooth="yes"/>
      <point x="129.22232988287965" y="52.20253552003451" type="line" smooth="yes"/>
      <point x="119.68082483098192" y="10.188653133739171"/>
      <point x="153.4844108427092" y="3.5196335395191802"/>
      <point x="216.23673019291536" y="4.0" type="curve" smooth="yes"/>
      <point x="218.23673019291536" y="4.0" type="line" smooth="yes"/>
      <point x="280.5154220914889" y="3.5856527555164117"/>
      <point x="318.2680137594764" y="14.779548258186946"/>
      <point x="329.1835382301276" y="57.771195458118605" type="curve" smooth="yes"/>
      <point x="488.3783775715336" y="876.7295730536453" type="line"/>
      <point x="571.4266740465786" y="425.8767036059299" type="line" smooth="yes"/>
      <point x="587.4185933372413" y="381.82227315658736"/>
      <point x="625.730886873581" y="371.57002734435747"/>
      <point x="677.1250590936305" y="372.0" type="curve" smooth="yes"/>
      <point x="728.0222498893854" y="371.6351299447669"/>
      <point x="769.3456374379912" y="384.42654574118745"/>
      <point x="802.3007888223118" y="429.55369126246967" type="curve" smooth="yes"/>
      <point x="1042.2969701697243" y="873.6910862005301" type="line"/>
      <point x="917.9883447828128" y="52.91354286785875" type="line" smooth="yes"/>
      <point x="910.7175071854643" y="10.401273050558181"/>
      <point x="943.3941345615666" y="3.5064668636054375"/>
      <point x="1006.2367301929154" y="4.0" type="curve" smooth="yes"/>
      <point x="1008.2367301929154" y="4.0" type="line" smooth="yes"/>
      <point x="1070.4388973327357" y="3.5958406047512987"/>
      <point x="1109.40383630114" y="14.615397089225231"/>
      <point x="1118.4151292049564" y="57.05946153850232" type="curve" smooth="yes"/>
      <point x="1278.3189206953284" y="1134.0607888870836" type="line" smooth="yes"/>
      <point x="1285.6156392567982" y="1178.5478051283521"/>
      <point x="1241.4121135369278" y="1183.2994472174341"/>
      <point x="1189.0633959080326" y="1183.0" type="curve" smooth="yes"/>
    </contour>
  </outline>
</glyph>
<glyph name="N" format="2">
  <advance width="1228"/>
  <unicode hex="004E"/>
  <outline>
    <contour>
      <point x="1190.0633959080326" y="1183.0" type="line" smooth="yes"/>
      <point x="1129.7063279196057" y="1183.424919139379"/>
      <point x="1091.0321123414715" y="1172.2204517418131"/>
      <point x="1080.997140583665" y="1129.5689255126629" type="curve" smooth="yes"/>
      <point x="932.0218219375251" y="284.505705580799" type="line"/>
      <point x="977.1575964296673" y="281.069219954905" type="line"/>
      <point x="568.7139906158724" y="1163.1108443561702" type="line" smooth="yes"/>
      <point x="554.6642821655615" y="1177.0894142932202"/>
      <point x="522.3412569650214" y="1183.2914821645256"/>
      <point x="488.0633959080326" y="1183.0" type="curve" smooth="yes"/>
      <point x="461.0633959080326" y="1183.0" type="line" smooth="yes"/>
      <point x="398.9359649260999" y="1183.39433748049"/>
      <point x="359.1702075962196" y="1172.0591243875413"/>
      <point x="348.99714058366493" y="1129.5689255126629" type="curve" smooth="yes"/>
      <point x="159.09298236064816" y="52.56892551266297" type="line" smooth="yes"/>
      <point x="150.71750718546434" y="10.40127305055817"/>
      <point x="184.3015050669365" y="3.492761585678961"/>
      <point x="245.23673019291536" y="4.0" type="curve" smooth="yes"/>
      <point x="247.23673019291536" y="4.0" type="line" smooth="yes"/>
      <point x="307.5937981813423" y="3.575080860620991"/>
      <point x="346.2680137594764" y="14.779548258186946"/>
      <point x="356.302985517283" y="57.43107448733703" type="curve" smooth="yes"/>
      <point x="508.9816854700185" y="923.4927632181465" type="line"/>
      <point x="463.8569658195695" y="926.9440828712171" type="line"/>
      <point x="876.2400268988899" y="38.89958064942231" type="line" smooth="yes"/>
      <point x="894.1241941353966" y="6.7120892541463455"/>
      <point x="927.309259607873" y="-8.82851486488821"/>
      <point x="974.1208064244138" y="-8.0" type="curve" smooth="yes"/>
      <point x="1033.658222656562" y="-8.601205461219639"/>
      <point x="1075.9781705809844" y="8.89747998197114"/>
      <point x="1085.1290998645306" y="39.43107448733702" type="curve" smooth="yes"/>
      <point x="1278.2071437402997" y="1134.4310744873371" type="line" smooth="yes"/>
      <point x="1286.5826189154836" y="1176.598726949442"/>
      <point x="1252.9986210340114" y="1183.5072384143211"/>
      <point x="1192.0633959080326" y="1183.0" type="curve" smooth="yes"/>
    </contour>
  </outline>
</glyph>
<glyph name="P" format="2">
  <advance width="1228"/>
  <unicode hex="0050"/>
  <outline>
    <contour>
      <point x="507.3001261009479" y="1173.0" type="line" smooth="yes"/>
      <point x="455.475809890081" y="1173.4908519479789"/>
      <point x="417.33711614875904" y="1163.3505769848823"/>
      <point x="406.70488983445495" y="1116.5689255126629" type="curve" smooth="yes"/>
      <point x="219.09298236064814" y="52.56892551266297" type="line" smooth="yes"/>
      <point x="210.71750718546434" y="10.40127305055817"/>
      <point x="244.4844108427092" y="3.5196335395191802"/>
      <point x="307.23673019291533" y="4.0" type="curve" smooth="yes"/>
      <point x="309.23673019291533" y="4.0" type="line" smooth="yes"/>
      <point x="371.4388973327357" y="3.5958406047512987"/>
      <point x="410.2680137594764" y="14.779548258186946"/>
      <point x="420.302985517283" y="57.43107448733702" type="curve" smooth="yes"/>
      <point x="473.3283058116874" y="402.53837915148347" type="line"/>
      <point x="709.2965034184267" y="407.0" type="line" smooth="yes"/>
      <point x="997.8345240968695" y="406.2236134365202"/>
      <point x="1192.1829767425236" y="559.8510133669287"/>
      <point x="1236.5506623765878" y="790.431074487337" type="curve" smooth="yes"/>
      <point x="1278.0310166025897" y="1021.1934002181807"/>
      <point x="1139.0436440204294" y="1174.0202412771478"/>
      <point x="849.3001261009479" y="1173.0" type="curve" smooth="yes"/>
    </contour>
    <contour>
      <point x="504.6845067233163" y="533.1488108102977" type="line"/>
      <point x="590.8202501604628" y="1050.5365172073505" type="line"/>
      <point x="802.909040878929" y="1057.0" type="line" smooth="yes"/>
      <point x="991.6982636731865" y="1056.2835649992753"/>
      <point x="1059.961260668564" y="952.055912119838"/>
      <point x="1031.340659219953" y="785.568925512663" type="curve" smooth="yes"/>
      <point x="1006.4452441692092" y="621.9515089839904"/>
      <point x="903.4031940227602" y="523.5606904063904"/>
      <point x="713.6875886404457" y="523.0" type="curve" smooth="yes"/>
    </contour>
  </outline>
</glyph>
<glyph name="Q" format="2">
  <advance width="1228"/>
  <unicode hex="0051"/>
  <outline>
    <contour>
      <point x="626.3044432490994" y="305.882298224813" type="curve" smooth="yes"/>
      <point x="721.1472270062435" y="100.87043893483472" type="line"/>
      <point x="739.9652718289694" y="59.925443714138666" type="line"/>
      <point x="828.6765722306716" y="-129.031979920534" type="line" smooth="yes"/>
      <point x="851.951538692757" y="-163.18693166459585"/>
      <point x="903.1530852989364" y="-165.6306463911882"/>
      <point x="960.573398700221" y="-136.8281816607416" type="curve" smooth="yes"/>
      <point x="1018.4531280028183" y="-108.61474555927097"/>
      <point x="1036.5564411407024" y="-93.82344838906442"/>
      <point x="1016.0417002261395" y="-59.917400732663566" type="curve" smooth="yes"/>
      <point x="813.7561673362295" y="375.09674064704063" type="line" smooth="yes"/>
      <point x="790.8414725511209" y="410.320323573967"/>
      <point x="739.3996789360544" y="412.6306463911882"/>
      <point x="681.7420661974961" y="383.901688638208" type="curve" smooth="yes"/>
      <point x="624.9233092514642" y="354.614745559271"/>
      <point x="605.9479716376983" y="340.61291809554314"/>
    </contour>
    <component base="O"/>
  </outline>
</glyph>
<glyph name="S" format="2">
  <advance width="1228"/>
  <unicode hex="0053"/>
  <outline>
    <contour>
      <point x="298.5651827730879" y="860.568925512663" type="curve" smooth="yes"/>
      <point x="273.9451713412658" y="726.0651832549127"/>
      <point x="339.4470747757941" y="661.888990590096"/>
      <point x="431.7318729176618" y="620.5627352512124" type="curve" smooth="yes"/>
      <point x="564.1246902028199" y="559.7226279705848"/>
      <point x="755.3815645813027" y="557.7848841768545"/>
      <point x="862.8838524514898" y="504.71800513194586" type="curve" smooth="yes"/>
      <point x="924.993947133889" y="472.3221771875445"/>
      <point x="955.4532693505113" y="416.6045480310651"/>
      <point x="940.0539211133506" y="324.568925512663" type="curve" smooth="yes"/>
      <point x="922.8446672899397" y="201.54542077984564"/>
      <point x="832.2979197328018" y="112.50486505354552"/>
      <point x="644.2171995692665" y="112.0" type="curve" smooth="yes"/>
      <point x="517.8399178030188" y="112.22305902796434"/>
      <point x="407.21863604946884" y="158.59907514981296"/>
      <point x="326.15941367759933" y="220.66170684301122" type="curve" smooth="yes"/>
      <point x="294.0946425367361" y="236.68144500274798"/>
      <point x="236.94671718955604" y="239.6850996174448"/>
      <point x="194.75228585240038" y="190.99987343883998" type="curve" smooth="yes"/>
      <point x="158.35049686033392" y="145.98535491180405"/>
      <point x="162.4650289744077" y="124.31798110540943"/>
      <point x="202.73232262532864" y="105.49464378072655" type="curve" smooth="yes"/>
      <point x="311.6704881145071" y="33.67715753802665"/>
      <point x="461.3758017435027" y="-8.145991104817444"/>
      <point x="618.1208064244138" y="-8.0" type="curve" smooth="yes"/>
      <point x="919.7600595080042" y="-8.617938173756354"/>
      <point x="1105.6828056839638" y="128.15568219811996"/>
      <point x="1145.2639242699854" y="329.431074487337" type="curve" smooth="yes"/>
      <point x="1176.3415607037484" y="500.70763240138643"/>
      <point x="1091.6433847947733" y="575.6182280303028"/>
      <point x="978.1386785361177" y="621.1564576665853" type="curve" smooth="yes"/>
      <point x="832.112273128009" y="681.2174820576261"/>
      <point x="636.0041792432153" y="680.224085286989"/>
      <point x="547.5298545361356" y="735.7649578661458" type="curve" smooth="yes"/>
      <point x="508.36569434279187" y="761.5208858384359"/>
      <point x="494.03636908435936" y="805.0269308827645"/>
      <point x="503.7751859297227" y="865.431074487337" type="curve" smooth="yes"/>
      <point x="521.5714526860551" y="992.5548895652022"/>
      <point x="612.2405800143733" y="1074.4590397317113"/>
      <point x="765.0829265316813" y="1075.0" type="curve" smooth="yes"/>
      <point x="892.4656328254308" y="1074.8638442814295"/>
      <point x="996.1218032079903" y="1039.6938434804892"/>
      <point x="1079.4630560857456" y="980.6574584457829" type="curve" smooth="yes"/>
      <point x="1112.8836306586295" y="965.4861174301665"/>
      <point x="1170.6322472894797" y="963.1311845565492"/>
      <point x="1209.9600584761336" y="1011.5225391391729" type="curve" smooth="yes"/>
      <point x="1244.3346484523177" y="1058.707622243431"/>
      <point x="1239.3669069139964" y="1079.2879107458537"/>
      <point x="1197.5085639632657" y="1097.189828845871" type="curve" smooth="yes"/>
      <point x="1084.7356920890488" y="1165.0819798043246"/>
      <point x="947.005173668383" y="1195.082935230993"/>
      <point x="791.1793196765342" y="1195.0" type="curve" smooth="yes"/>
      <point x="543.6882376752546" y="1195.5936734814409"/>
      <point x="340.6943556510757" y="1072.3200717786042"/>
    </contour>
  </outline>
</glyph>
<glyph name="T" format="2">
  <advance width="1228"/>
  <unicode hex="0054"/>
  <outline>
    <contour>
      <point x="394.3001261009479" y="1173.0" type="line" smooth="yes"/>
      <point x="341.8146476794654" y="1173.5927660109062"/>
      <point x="303.85642257626296" y="1161.509559543111"/>
      <point x="292.9995819116211" y="1112.5689255126629" type="curve" smooth="yes"/>
      <point x="283.5058548294338" y="1064.0286344810233"/>
      <point x="315.6216936622038" y="1056.2697712107026"/>
      <point x="368.909040878929" y="1057.0" type="curve" smooth="yes"/>
      <point x="697.3291187680177" y="1045.5064551634343" type="line"/>
      <point x="523.0929823606481" y="52.56892551266298" type="line" smooth="yes"/>
      <point x="514.7175071854643" y="10.401273050558181"/>
      <point x="548.4844108427092" y="3.5196335395191802"/>
      <point x="611.2367301929154" y="4.0" type="curve" smooth="yes"/>
      <point x="613.2367301929154" y="4.0" type="line" smooth="yes"/>
      <point x="675.4388973327357" y="3.5958406047512987"/>
      <point x="714.2680137594765" y="14.779548258186928"/>
      <point x="724.302985517283" y="57.43107448733702" type="curve" smooth="yes"/>
      <point x="895.837893249275" y="1049.6006628320404" type="line"/>
      <point x="1226.9090408789289" y="1057.0" type="line" smooth="yes"/>
      <point x="1279.3945193004113" y="1056.4072339890938"/>
      <point x="1317.352744403614" y="1068.490440456889"/>
      <point x="1328.2095850682558" y="1117.4310744873371" type="curve" smooth="yes"/>
      <point x="1337.703312150443" y="1165.9713655189767"/>
      <point x="1305.587473317673" y="1173.7302287892974"/>
      <point x="1252.3001261009479" y="1173.0" type="curve" smooth="yes"/>
    </contour>
  </outline>
</glyph>
<glyph name="U" format="2">
  <advance width="1228"/>
  <unicode hex="0055"/>
  <outline>
    <contour>
      <point x="1188.0633959080326" y="1183.0" type="line" smooth="yes"/>
      <point x="1125.8612287682122" y="1183.4041593952486"/>
      <point x="1087.0321123414715" y="1172.2204517418131"/>
      <point x="1076.997140583665" y="1129.5689255126629" type="curve" smooth="yes"/>
      <point x="953.7445810684479" y="430.568925512663" type="line" smooth="yes"/>
      <point x="919.6519100467227" y="218.4936744529041"/>
      <point x="810.2246635755604" y="112.67789818564914"/>
      <point x="636.2171995692665" y="112.0" type="curve" smooth="yes"/>
      <point x="463.12292404657734" y="112.84689261967178"/>
      <point x="390.29641938771107" y="222.62407099543495"/>
      <point x="426.9545842250827" y="435.431074487337" type="curve" smooth="yes"/>
      <point x="550.2071437402998" y="1134.4310744873371" type="line" smooth="yes"/>
      <point x="558.5826189154836" y="1176.598726949442"/>
      <point x="524.8157152582388" y="1183.4803664604808"/>
      <point x="462.0633959080326" y="1183.0" type="curve" smooth="yes"/>
      <point x="460.0633959080326" y="1183.0" type="line" smooth="yes"/>
      <point x="397.86122876821224" y="1183.4041593952486"/>
      <point x="359.03211234147153" y="1172.2204517418131"/>
      <point x="348.99714058366493" y="1129.5689255126629" type="curve" smooth="yes"/>
      <point x="222.21804145427865" y="410.568925512663" type="line" smooth="yes"/>
      <point x="172.26029157471538" y="131.20491265493462"/>
      <point x="341.2364560401953" y="-8.842702298483184"/>
      <point x="610.1208064244138" y="-8.0" type="curve" smooth="yes"/>
      <point x="878.0959027639981" y="-8.674868234419693"/>
      <point x="1097.9841979823989" y="135.09456871067525"/>
      <point x="1151.4280446109133" y="415.431074487337" type="curve" smooth="yes"/>
      <point x="1278.2071437402997" y="1134.4310744873371" type="line" smooth="yes"/>
      <point x="1286.5826189154836" y="1176.598726949442"/>
      <point x="1252.8157152582387" y="1183.4803664604808"/>
      <point x="1190.0633959080326" y="1183.0" type="curve" smooth="yes"/>
    </contour>
  </outline>
</glyph>
<glyph name="V" format="2">
  <advance width="1228"/>
  <unicode hex="0056"/>
  <outline>
    <contour>
      <point x="1153.1562104257612" y="1144.2673829824462" type="curve" smooth="yes"/>
      <point x="644.0915104889407" y="168.0" type="line"/>
      <point x="479.4676847949569" y="1148.30941943774" type="line" smooth="yes"/>
      <point x="468.4363191912758" y="1188.1985648895363"/>
      <point x="420.85908826421223" y="1193.0401456176191"/>
      <point x="358.78242970764154" y="1175.656823280535" type="curve" smooth="yes"/>
      <point x="296.8273429870167" y="1158.7692370383497"/>
      <point x="265.4713417321484" y="1145.1650367994778"/>
      <point x="274.99594071233014" y="1105.752021955557" type="curve" smooth="yes"/>
      <point x="487.08876237834227" y="45.75046700330312" type="line" smooth="yes"/>
      <point x="499.93016519362175" y="3.140006848025898"/>
      <point x="545.7840271515278" y="-8.298097449379545"/>
      <point x="608.1208064244138" y="-8.0" type="curve" smooth="yes"/>
      <point x="670.104036513556" y="-8.259548021685342"/>
      <point x="719.186531735412" y="5.618713676634345"/>
      <point x="749.3345905669237" y="49.775257661141566" type="curve" smooth="yes"/>
      <point x="1335.2400547322725" y="1109.7763630380596" type="line" smooth="yes"/>
      <point x="1362.6374317430127" y="1150.0138628916438"/>
      <point x="1342.2903005196101" y="1159.4937654658452"/>
      <point x="1285.4089097188853" y="1175.8178039472923" type="curve" smooth="yes"/>
      <point x="1228.8480293027603" y="1193.0423738532884"/>
      <point x="1180.4663521237885" y="1185.586105083597"/>
    </contour>
  </outline>
</glyph>
<glyph name="W" format="2">
  <advance width="1228"/>
  <unicode hex="0057"/>
  <outline>
    <contour>
      <point x="1178.9569187405893" y="1134.9343526383802" type="curve" smooth="yes"/>
      <point x="920.3399634148327" y="247.02938229605903" type="line"/>
      <point x="858.6025627942363" y="842.5727841036155" type="line" smooth="yes"/>
      <point x="851.1332850187065" y="864.033518121456"/>
      <point x="815.7298242055936" y="871.3382159642395"/>
      <point x="766.0493779269915" y="871.0" type="curve" smooth="yes"/>
      <point x="716.7668035831578" y="871.2920085488068"/>
      <point x="679.5068366699116" y="861.4860700530915"/>
      <point x="662.0109790970113" y="838.4565272336143" type="curve" smooth="yes"/>
      <point x="393.73447908977374" y="248.5847587609882" type="line"/>
      <point x="443.80505564410964" y="1139.6875745861125" type="line" smooth="yes"/>
      <point x="445.42655489571194" y="1182.7795430529552"/>
      <point x="406.41599113260355" y="1188.125313738172"/>
      <point x="342.94868477859745" y="1182.089693695465" type="curve" smooth="yes"/>
      <point x="280.22138504396713" y="1175.7565652473315"/>
      <point x="242.51394778897946" y="1164.4873501580073"/>
      <point x="239.85741117968624" y="1121.4714086776323" type="curve" smooth="yes"/>
      <point x="198.60084057265217" y="42.46797705312822" type="line" smooth="yes"/>
      <point x="198.49563934462267" y="-1.2330614881953652"/>
      <point x="242.77657179506895" y="-8.298939993692304"/>
      <point x="299.1208064244138" y="-8.0" type="curve" smooth="yes"/>
      <point x="355.91258177009354" y="-8.351775463038301"/>
      <point x="405.68476538101567" y="7.535128628082205"/>
      <point x="433.5574812507615" y="49.55354427029906" type="curve" smooth="yes"/>
      <point x="720.9096708656244" y="643.0" type="line"/>
      <point x="798.9803636083697" y="45.441145724774316" type="line" smooth="yes"/>
      <point x="810.1323324138724" y="5.001535720160525"/>
      <point x="855.8498164006157" y="-8.413315881460209"/>
      <point x="913.1208064244138" y="-8.0" type="curve" smooth="yes"/>
      <point x="969.1105545363317" y="-8.26023387294961"/>
      <point x="1016.0940769627003" y="2.1411262826053914"/>
      <point x="1035.3834897716108" y="47.2016940773571" type="curve" smooth="yes"/>
      <point x="1374.6385573102932" y="1126.2046787686568" type="line" smooth="yes"/>
      <point x="1391.124322238837" y="1169.1700577199097"/>
      <point x="1360.0987621689976" y="1175.956627273933"/>
      <point x="1298.9465765552484" y="1182.0972670430401" type="curve" smooth="yes"/>
      <point x="1237.6288569961291" y="1188.114341277201"/>
      <point x="1195.721248707297" y="1178.8946386544535"/>
    </contour>
  </outline>
</glyph>
<glyph name="X" format="2">
  <advance width="1228"/>
  <unicode hex="0058"/>
  <outline>
    <contour>
      <point x="1102.7380384128935" y="1163.0009910835174" type="curve" smooth="yes"/>
      <point x="748.5190394853662" y="710.7474975585938" type="line"/>
      <point x="554.0082168663631" y="1165.8455565133647" type="line" smooth="yes"/>
      <point x="526.4047180253023" y="1199.9116663218565"/>
      <point x="474.23107955609544" y="1196.5358713178946"/>
      <point x="416.23179413481677" y="1174.0923155130745" type="curve" smooth="yes"/>
      <point x="361.19511110223516" y="1154.7208845129499"/>
      <point x="333.70518910761007" y="1138.8241083972237"/>
      <point x="357.46408074898244" y="1104.3803520758233" type="curve" smooth="yes"/>
      <point x="607.2344581498718" y="601.9205100484035" type="line"/>
      <point x="160.1417411534473" y="79.7713234625233" type="line" smooth="yes"/>
      <point x="121.59717606821972" y="43.67109240708642"/>
      <point x="133.1976328444175" y="30.834205451039622"/>
      <point x="182.50240540735777" y="12.556725869415121" type="curve" smooth="yes"/>
      <point x="232.78055963107255" y="-9.708063962782976"/>
      <point x="283.06760325378315" y="-13.027208543468074"/>
      <point x="323.4634906178465" y="24.061903799370853" type="curve" smooth="yes"/>
      <point x="704.057229756347" y="500.63836669921875" type="line"/>
      <point x="918.4028118355681" y="21.27498594758771" type="line" smooth="yes"/>
      <point x="944.7190810949372" y="-13.911666321856522"/>
      <point x="998.2485158977265" y="-9.563781719872539"/>
      <point x="1056.0683319661312" y="12.907684486925595" type="curve" smooth="yes"/>
      <point x="1111.2804733079404" y="32.20903330913203"/>
      <point x="1138.7712639740462" y="49.17589160277636"/>
      <point x="1114.6698635679247" y="82.44781921198563" type="curve" smooth="yes"/>
      <point x="845.0785704300293" y="606.2039623313894" type="line"/>
      <point x="1266.263151954515" y="1107.1639235523087" type="line" smooth="yes"/>
      <point x="1305.702950032728" y="1143.3289075929135"/>
      <point x="1292.914628521938" y="1156.0643414215508"/>
      <point x="1243.79772069359" y="1174.4432741305848" type="curve" smooth="yes"/>
      <point x="1193.2068383651372" y="1196.6535511782702"/>
      <point x="1143.0561958664564" y="1199.027208543468"/>
    </contour>
  </outline>
</glyph>
<glyph name="Y" format="2">
  <advance width="1228"/>
  <unicode hex="0059"/>
  <outline>
    <contour>
      <point x="1141.6031270087915" y="1163.0882824177897" type="curve" smooth="yes"/>
      <point x="728.1103014335271" y="632.019775390625" type="line"/>
      <point x="503.170988618038" y="1166.027961657037" type="line" smooth="yes"/>
      <point x="481.62396438663876" y="1194.4775311945532"/>
      <point x="430.7923125737528" y="1196.324250206097"/>
      <point x="372.1069854906574" y="1174.120748684784" type="curve" smooth="yes"/>
      <point x="310.4672031775061" y="1151.800434314067"/>
      <point x="288.4557196313258" y="1137.4930085496248"/>
      <point x="309.79893767643387" y="1102.0404406665969" type="curve" smooth="yes"/>
      <point x="599.3654021876288" y="489.579935790029" type="line"/>
      <point x="523.0929823606481" y="52.56892551266298" type="line" smooth="yes"/>
      <point x="514.7175071854643" y="10.401273050558181"/>
      <point x="548.4844108427092" y="3.5196335395191802"/>
      <point x="611.2367301929154" y="4.0" type="curve" smooth="yes"/>
      <point x="613.2367301929154" y="4.0" type="line" smooth="yes"/>
      <point x="675.4388973327357" y="3.5958406047512987"/>
      <point x="714.2680137594765" y="14.779548258186928"/>
      <point x="724.302985517283" y="57.43107448733702" type="curve" smooth="yes"/>
      <point x="797.6400649058269" y="494.29008798812134" type="line"/>
      <point x="1301.2447790067965" y="1104.9518090192516" type="line" smooth="yes"/>
      <point x="1337.9290172677581" y="1141.8497239237272"/>
      <point x="1330.6328395879107" y="1153.1982682892815"/>
      <point x="1275.9561778891882" y="1174.4857037070087" type="curve" smooth="yes"/>
      <point x="1224.436673431734" y="1196.3883024212078"/>
      <point x="1174.9991818626454" y="1193.3702366934733"/>
    </contour>
  </outline>
</glyph>
<glyph name="Z" format="2">
  <advance width="1228"/>
  <unicode hex="005A"/>
  <outline>
    <contour>
      <point x="465.3001261009479" y="1173.0" type="line" smooth="yes"/>
      <point x="412.8146476794654" y="1173.5927660109062"/>
      <point x="374.85642257626296" y="1161.509559543111"/>
      <point x="363.9995819116211" y="1112.5689255126629" type="curve" smooth="yes"/>
      <point x="354.5058548294338" y="1064.0286344810233"/>
      <point x="386.6216936622038" y="1056.2697712107026"/>
      <point x="439.909040878929" y="1057.0" type="curve" smooth="yes"/>
      <point x="980.2282740991533" y="1039.5177980824765" type="line"/>
      <point x="180.89161828146817" y="101.8513662209961" type="line" smooth="yes"/>
      <point x="169.51977003966857" y="90.69897771811314"/>
      <point x="157.77872347928195" y="81.1433151205426"/>
      <point x="153.38523310985823" y="65.56892551266297" type="curve" smooth="yes"/>
      <point x="144.27483545319447" y="19.23250055937727"/>
      <point x="177.50904038598878" y="13.406346346449318"/>
      <point x="230.0" y="14.0" type="curve" smooth="yes"/>
      <point x="996.0" y="14.0" type="line" smooth="yes"/>
      <point x="1048.4854784214826" y="13.407233989093736"/>
      <point x="1086.443703524685" y="25.490440456889008"/>
      <point x="1097.3005441893267" y="74.43107448733701" type="curve" smooth="yes"/>
      <point x="1106.794271271514" y="122.97136551897668"/>
      <point x="1074.6784324387443" y="130.73022878929734"/>
      <point x="1021.391085222019" y="130.0" type="curve" smooth="yes"/>
      <point x="438.31689043772985" y="146.92600362340238" type="line"/>
      <point x="1241.1073958905315" y="1089.1526364723877" type="line" smooth="yes"/>
      <point x="1252.3817516682857" y="1097.3002868969575"/>
      <point x="1260.527184769902" y="1106.772009106698"/>
      <point x="1263.9148929910896" y="1121.4310744873371" type="curve" smooth="yes"/>
      <point x="1273.0252906477535" y="1167.7674994406227"/>
      <point x="1239.791085714959" y="1173.5936536535507"/>
      <point x="1187.3001261009479" y="1173.0" type="curve" smooth="yes"/>
    </contour>
  </outline>
</glyph>
<glyph name="bracketleft" format="2">
  <advance width="1228"/>
  <unicode hex="005B"/>
  <outline>
    <contour>
      <point x="634.9206175320139" y="1358.0" type="line" smooth="yes"/>
      <point x="583.0963013211469" y="1358.4908519479789"/>
      <point x="544.9576075798251" y="1348.3505769848823"/>
      <point x="534.3253812655208" y="1301.5689255126629" type="curve" smooth="yes"/>
      <point x="257.66834853393937" y="-267.431074487337" type="line" smooth="yes"/>
      <point x="248.55795087727563" y="-313.7674994406227"/>
      <point x="281.79215581006997" y="-319.5936536535507"/>
      <point x="334.2831154240812" y="-319.0" type="curve" smooth="yes"/>
      <point x="748.2831154240812" y="-319.0" type="line" smooth="yes"/>
      <point x="800.7685938455637" y="-319.59276601090625"/>
      <point x="838.7268189487661" y="-307.509559543111"/>
      <point x="849.5836596134081" y="-258.568925512663" type="curve" smooth="yes"/>
      <point x="859.0773866955952" y="-210.02863448102337"/>
      <point x="826.9615478628252" y="-202.26977121070266"/>
      <point x="773.6742006461001" y="-203.0" type="curve" smooth="yes"/>
      <point x="472.6357546276352" y="-189.7610644536001" type="line"/>
      <point x="720.6105512683146" y="1233.2786954696294" type="line"/>
      <point x="1023.5295323099949" y="1242.0" type="line" smooth="yes"/>
      <point x="1076.0150107314773" y="1241.4072339890938"/>
      <point x="1113.97323583468" y="1253.490440456889"/>
      <point x="1124.8300764993219" y="1302.4310744873371" type="curve" smooth="yes"/>
      <point x="1134.323803581509" y="1350.9713655189767"/>
      <point x="1102.207964748739" y="1358.7302287892974"/>
      <point x="1048.920617532014" y="1358.0" type="curve" smooth="yes"/>
    </contour>
  </outline>
</glyph>
<glyph name="backslash" format="2">
  <advance width="1228"/>
  <unicode hex="005C"/>
  <outline>
    <contour>
      <point x="409.13220373213056" y="1327.1700077943135" type="curve" smooth="yes"/>
      <point x="791.4295513491829" y="-315.82402921106086" type="line" smooth="yes"/>
      <point x="801.1523317784513" y="-331.6697284088583"/>
      <point x="836.3671976588436" y="-341.5224839607835"/>
      <point x="875.403921848495" y="-341.0" type="curve" smooth="yes"/>
      <point x="945.228238059362" y="-341.4908519479789"/>
      <point x="1008.4969227666248" y="-318.2743059044612"/>
      <point x="1002.0715292239646" y="-288.1700077943134" type="curve" smooth="yes"/>
      <point x="619.7741816069122" y="1354.8240292110609" type="line" smooth="yes"/>
      <point x="610.0514011776438" y="1370.6697284088582"/>
      <point x="574.8365352972515" y="1380.5224839607836"/>
      <point x="535.7998111076001" y="1380.0" type="curve" smooth="yes"/>
      <point x="465.9754948967332" y="1380.4908519479789"/>
      <point x="402.7068101894703" y="1357.2743059044612"/>
    </contour>
  </outline>
</glyph>
<glyph name="bracketright" format="2">
  <advance width="1228"/>
  <unicode hex="005D"/>
  <outline>
    <contour>
      <point x="387.67420064610013" y="-203.0" type="line" smooth="yes"/>
      <point x="335.1887222246176" y="-202.40723398909373"/>
      <point x="297.23049712141517" y="-214.49044045688902"/>
      <point x="286.37365645677323" y="-263.431074487337" type="curve" smooth="yes"/>
      <point x="276.879929374586" y="-311.97136551897665"/>
      <point x="308.99576820735604" y="-319.7302287892973"/>
      <point x="362.2831154240812" y="-319.0" type="curve" smooth="yes"/>
      <point x="776.2831154240812" y="-319.0" type="line" smooth="yes"/>
      <point x="828.1074316349482" y="-319.4908519479789"/>
      <point x="866.24612537627" y="-309.35057698488237"/>
      <point x="876.8783516905743" y="-262.568925512663" type="curve" smooth="yes"/>
      <point x="1153.5353844221556" y="1306.4310744873371" type="line" smooth="yes"/>
      <point x="1162.6457820788194" y="1352.7674994406227"/>
      <point x="1129.4115771460251" y="1358.5936536535507"/>
      <point x="1076.920617532014" y="1358.0" type="curve" smooth="yes"/>
      <point x="662.9206175320139" y="1358.0" type="line" smooth="yes"/>
      <point x="610.4351391105314" y="1358.5927660109062"/>
      <point x="572.476914007329" y="1346.509559543111"/>
      <point x="561.6200733426871" y="1297.5689255126629" type="curve" smooth="yes"/>
      <point x="552.1263462604998" y="1249.0286344810233"/>
      <point x="584.2421850932698" y="1241.2697712107026"/>
      <point x="637.5295323099949" y="1242.0" type="curve" smooth="yes"/>
      <point x="938.5679783284598" y="1228.7610644536" type="line"/>
      <point x="690.5931816877804" y="-194.27869546962935" type="line"/>
    </contour>
  </outline>
</glyph>
<glyph name="asciicircum" format="2">
  <advance width="1228"/>
  <unicode hex="005E"/>
  <outline>
    <contour>
      <point x="731.3379621868145" y="1163.984796789859" type="curve" smooth="yes"/>
      <point x="319.12520217609915" y="572.9875075314666" type="line" smooth="yes"/>
      <point x="290.4616239946503" y="546.5971629081931"/>
      <point x="324.1443176759963" y="531.6040929428441"/>
      <point x="364.41382469111744" y="522.2608216354889" type="curve" smooth="yes"/>
      <point x="403.6697769142652" y="510.90868523080735"/>
      <point x="462.2999856292693" y="512.6507349872934"/>
      <point x="491.51039347409994" y="534.8038177952315" type="curve" smooth="yes"/>
      <point x="791.5612695734242" y="1021.0" type="line"/>
      <point x="919.145284082173" y="531.2398311365081" type="line" smooth="yes"/>
      <point x="940.3142857331457" y="511.22435982116065"/>
      <point x="1002.7591707110278" y="509.886707778097"/>
      <point x="1047.4851979527145" y="523.2197861359064" type="curve" smooth="yes"/>
      <point x="1087.2099967536847" y="534.0718930673827"/>
      <point x="1128.447758459373" y="552.1687897622992"/>
      <point x="1117.0281058986534" y="576.4399307784252" type="curve" smooth="yes"/>
      <point x="913.2288794933148" y="1167.4267105280544" type="line" smooth="yes"/>
      <point x="902.108448934764" y="1188.73156159887"/>
      <point x="872.4054579390211" y="1195.4073364474593"/>
      <point x="827.1793196765342" y="1195.0" type="curve" smooth="yes"/>
      <point x="782.4259944154431" y="1195.347061097625"/>
      <point x="751.1320364426412" y="1186.3039723047214"/>
    </contour>
  </outline>
</glyph>
<glyph name="underscore" format="2">
  <advance width="1228"/>
  <unicode hex="005F"/>
  <outline>
    <contour>
      <point x="89.09458180359222" y="-263.0" type="line" smooth="yes"/>
      <point x="36.60910338210969" y="-262.40723398909375"/>
      <point x="-1.3491217210927609" y="-274.490440456889"/>
      <point x="-12.205962385734672" y="-323.431074487337" type="curve" smooth="yes"/>
      <point x="-21.69968946792187" y="-371.97136551897665"/>
      <point x="10.416149364848112" y="-379.7302287892973"/>
      <point x="63.70349658157326" y="-379.0" type="curve" smooth="yes"/>
      <point x="1025.7034965815733" y="-379.0" type="line" smooth="yes"/>
      <point x="1078.188975003056" y="-379.59276601090625"/>
      <point x="1116.1472001062582" y="-367.509559543111"/>
      <point x="1127.0040407709" y="-318.568925512663" type="curve" smooth="yes"/>
      <point x="1136.4977678530872" y="-270.02863448102335"/>
      <point x="1104.3819290203176" y="-262.2697712107027"/>
      <point x="1051.0945818035923" y="-263.0" type="curve" smooth="yes"/>
    </contour>
  </outline>
</glyph>
<glyph name="c" format="2">
  <advance width="1228"/>
  <unicode hex="0063"/>
  <outline>
    <contour>
      <point x="202.85806350899344" y="459.568925512663" type="curve" smooth="yes"/>
      <point x="154.20782174867293" y="187.95890468406483"/>
      <point x="322.16492161459445" y="-9.303622840342857"/>
      <point x="625.1208064244138" y="-8.0" type="curve" smooth="yes"/>
      <point x="781.1466348521406" y="-8.168845182055195"/>
      <point x="948.489073944997" y="39.75261493360674"/>
      <point x="1073.7774420034295" y="117.76711041850469" type="curve" smooth="yes"/>
      <point x="1118.6053367297543" y="140.25615807020637"/>
      <point x="1139.3924623423586" y="166.0969681876614"/>
      <point x="1117.7275259602723" y="208.6070594850275" type="curve" smooth="yes"/>
      <point x="1089.39458386151" y="251.9734861366636"/>
      <point x="1028.0352677801939" y="244.9589619104332"/>
      <point x="992.1939509713884" y="225.41406293951826" type="curve" smooth="yes"/>
      <point x="887.7577870936877" y="151.35523050425417"/>
      <point x="769.2746346863054" y="112.161892738738"/>
      <point x="651.2171995692665" y="112.0" type="curve" smooth="yes"/>
      <point x="467.3026747295999" y="113.33627933025785"/>
      <point x="377.53650792631413" y="264.1542544283135"/>
      <point x="412.06806666562824" y="464.431074487337" type="curve" smooth="yes"/>
      <point x="443.52951116235937" y="663.8428231400559"/>
      <point x="584.4517053234509" y="810.9799204734093"/>
      <point x="769.708930605355" y="812.0" type="curve" smooth="yes"/>
      <point x="878.2316247365217" y="811.8742255716144"/>
      <point x="972.7681778245037" y="781.4676310221766"/>
      <point x="1055.4959362805876" y="711.9889854006211" type="curve" smooth="yes"/>
      <point x="1086.627540537933" y="694.0422907617825"/>
      <point x="1145.3303600283239" y="689.5176895366283"/>
      <point x="1186.8265929659897" y="737.0406175119808" type="curve" smooth="yes"/>
      <point x="1224.4157710912457" y="781.8211465964923"/>
      <point x="1218.6158394423858" y="805.7676943360976"/>
      <point x="1179.7723293980412" y="824.7054044505106" type="curve" smooth="yes"/>
      <point x="1076.6353150490613" y="896.4054703724761"/>
      <point x="941.3420343999467" y="932.1301288148153"/>
      <point x="795.8053237502079" y="932.0" type="curve" smooth="yes"/>
      <point x="494.1652220485501" y="932.9978714715007"/>
      <point x="254.7066355458013" y="732.0773642581058"/>
    </contour>
  </outline>
</glyph>
<glyph name="d" format="2">
  <advance width="1228"/>
  <unicode hex="0064"/>
  <outline>
    <contour>
      <point x="1193.1042684965907" y="1308.0" type="line" smooth="yes"/>
      <point x="1130.9021013567703" y="1308.4041593952486"/>
      <point x="1092.0729849300296" y="1297.2204517418131"/>
      <point x="1082.0380131722231" y="1254.5689255126629" type="curve" smooth="yes"/>
      <point x="999.4902457267806" y="775.9105543604805" type="line"/>
      <point x="980.6521591018612" y="873.4176313100825"/>
      <point x="875.7900379943296" y="932.5146420452231"/>
      <point x="735.8053237502079" y="932.0" type="curve" smooth="yes"/>
      <point x="479.2773200156202" y="932.9739359832547"/>
      <point x="250.9748300576049" y="757.211568533379"/>
      <point x="194.85806350899344" y="459.568925512663" type="curve" smooth="yes"/>
      <point x="141.72594225291766" y="162.76900707079878"/>
      <point x="307.3061882349326" y="-9.268555063860145"/>
      <point x="565.1208064244138" y="-8.0" type="curve" smooth="yes"/>
      <point x="704.3313868657444" y="-8.405272985649473"/>
      <point x="836.9485887566683" y="52.151580062029"/>
      <point x="926.3476909902781" y="161.811580096513" type="curve"/>
      <point x="880.0929823606481" y="52.56892551266297" type="line" smooth="yes"/>
      <point x="871.6500972589114" y="9.975201567586094"/>
      <point x="903.0085841950956" y="3.4481122861464897"/>
      <point x="963.2367301929154" y="4.0" type="curve" smooth="yes"/>
      <point x="965.2367301929154" y="4.0" type="line" smooth="yes"/>
      <point x="1024.8407053626997" y="3.5408625680968786"/>
      <point x="1061.537211411552" y="14.448438840621321"/>
      <point x="1071.3029855172829" y="57.43107448733703" type="curve" smooth="yes"/>
      <point x="1283.2480163288578" y="1259.4310744873371" type="line" smooth="yes"/>
      <point x="1291.6234915040418" y="1301.598726949442"/>
      <point x="1257.8565878467969" y="1308.4803664604808"/>
      <point x="1195.1042684965907" y="1308.0" type="curve" smooth="yes"/>
    </contour>
    <contour>
      <point x="941.8580635089934" y="459.568925512663" type="curve" smooth="yes"/>
      <point x="907.4278679754749" y="243.1295631436473"/>
      <point x="769.0441757199748" y="112.90026287820652"/>
      <point x="601.2171995692665" y="112.0" type="curve" smooth="yes"/>
      <point x="432.4956539570552" y="113.65948167572161"/>
      <point x="365.66521820579885" y="264.1110111302795"/>
      <point x="400.06806666562824" y="464.431074487337" type="curve" smooth="yes"/>
      <point x="432.38171725689654" y="664.1483133867719"/>
      <point x="549.3905549517993" y="810.7639567803575"/>
      <point x="719.708930605355" y="812.0" type="curve" smooth="yes"/>
      <point x="886.3400781724581" y="810.8385187033837"/>
      <point x="979.4023545795344" y="676.8848218616781"/>
    </contour>
  </outline>
</glyph>
<glyph name="e" format="2">
  <advance width="1228"/>
  <unicode hex="0065"/>
  <outline>
    <contour>
      <point x="203.85806350899344" y="459.568925512663" type="curve" smooth="yes"/>
      <point x="150.71699167049752" y="163.2179303395607"/>
      <point x="296.7917543852852" y="-9.152182623906825"/>
      <point x="599.1208064244138" y="-8.0" type="curve" smooth="yes"/>
      <point x="757.1489527843281" y="-8.095276407828242"/>
      <point x="922.5305075960314" y="28.340565464792796"/>
      <point x="1038.0296565225442" y="77.7912540097378" type="curve" smooth="yes"/>
      <point x="1088.3480962629276" y="95.8809273332316"/>
      <point x="1116.2551219633535" y="117.72799019438942"/>
      <point x="1107.1114461739853" y="159.39651759210858" type="curve" smooth="yes"/>
      <point x="1095.7888984294839" y="202.40710541900793"/>
      <point x="1044.7315325436555" y="217.0"/>
      <point x="987.9219197793752" y="196.5608963104915" type="curve" smooth="yes"/>
      <point x="890.7739753001858" y="142.81336250906918"/>
      <point x="755.5884293082286" y="109.09985441250748"/>
      <point x="624.6882186271412" y="109.0" type="curve" smooth="yes"/>
      <point x="448.7876622803369" y="109.88539227771005"/>
      <point x="377.1298756430219" y="222.15192342235278"/>
      <point x="383.64432719697334" y="438.52640830500786" type="curve"/>
      <point x="1100.9389668010976" y="439.0" type="line" smooth="yes"/>
      <point x="1152.1589765756655" y="438.59347703859737"/>
      <point x="1193.497441551456" y="447.9202183131727"/>
      <point x="1200.6907440246216" y="488.6467762748297" type="curve" smooth="yes"/>
      <point x="1232.3084792809284" y="750.3620097739715"/>
      <point x="1097.7266187399127" y="933.294985271929"/>
      <point x="789.8053237502079" y="932.0" type="curve" smooth="yes"/>
      <point x="501.58768589130693" y="932.9093460181164"/>
      <point x="258.2959583234177" y="745.9643058755227"/>
    </contour>
    <contour>
      <point x="1020.4491849243103" y="551.4006480805435" type="curve"/>
      <point x="418.2696018033441" y="551.4649376122087" type="line"/>
      <point x="490.9392575825651" y="720.6835420099769"/>
      <point x="605.7782660438426" y="814.3983151924558"/>
      <point x="764.2379115474805" y="815.0" type="curve" smooth="yes"/>
      <point x="932.0965724995614" y="814.2959510958561"/>
      <point x="1000.6581119033136" y="719.812370403332"/>
    </contour>
  </outline>
</glyph>
<glyph name="f" format="2">
  <advance width="1228"/>
  <unicode hex="0066"/>
  <outline>
    <contour>
      <point x="720.2170392971774" y="1303.8229802726296"/>
      <point x="564.8785171397282" y="1179.5971278233094"/>
      <point x="523.3954577956714" y="964.5675231085572" type="curve" smooth="yes"/>
      <point x="294.39390569679915" y="-335.42773519539435" type="line" smooth="yes"/>
      <point x="286.149470353326" y="-377.5009752039207"/>
      <point x="320.2787560432755" y="-384.4758775445666"/>
      <point x="383.0" y="-384.0" type="curve" smooth="yes"/>
      <point x="385.0" y="-384.0" type="line" smooth="yes"/>
      <point x="444.22876041277954" y="-384.4076847672544"/>
      <point x="485.326437577054" y="-372.8164236482129"/>
      <point x="495.60514565723406" y="-330.56936553718333" type="curve" smooth="yes"/>
      <point x="722.605277111245" y="956.4302329237498" type="line" smooth="yes"/>
      <point x="744.6545731164132" y="1096.8109249094912"/>
      <point x="805.0301732514134" y="1184.128482650132"/>
      <point x="937.0" y="1185.0" type="curve" smooth="yes"/>
      <point x="1013.0197731923867" y="1184.9077251021959"/>
      <point x="1085.1785492282227" y="1166.3515108919212"/>
      <point x="1155.2639607103667" y="1136.981385719511" type="curve" smooth="yes"/>
      <point x="1194.942976174049" y="1124.9561154960686"/>
      <point x="1248.3655114793169" y="1127.703210033896"/>
      <point x="1271.54752936524" y="1178.6137954322185" type="curve" smooth="yes"/>
      <point x="1290.9658792503913" y="1224.282993472376"/>
      <point x="1258.5392925598196" y="1240.775557907072"/>
      <point x="1220.0" y="1253.076923076923" type="curve" smooth="yes"/>
      <point x="1142.7638173463479" y="1283.6387396799653"/>
      <point x="1049.8400463485902" y="1303.083772891908"/>
      <point x="953.0" y="1303.0" type="curve" smooth="yes"/>
    </contour>
    <contour>
      <point x="329.0" y="830.0" type="line" smooth="yes"/>
      <point x="276.45980772264534" y="830.6016583379313"/>
      <point x="239.0" y="818.6153846153846"/>
      <point x="228.42332636500575" y="769.4839514841315" type="curve" smooth="yes"/>
      <point x="218.0624670548403" y="720.9698863814964"/>
      <point x="250.7780780835622" y="713.2815661727072"/>
      <point x="304.0" y="714.0" type="curve" smooth="yes"/>
      <point x="998.0" y="714.0" type="line" smooth="yes"/>
      <point x="1050.5401922773547" y="713.3983416620687"/>
      <point x="1087.880581664496" y="725.5364169029867"/>
      <point x="1099.5766736349942" y="774.5160485158685" type="curve" smooth="yes"/>
      <point x="1108.9101897143669" y="822.8373632820476"/>
      <point x="1076.2219219164379" y="830.7184338272928"/>
      <point x="1023.0" y="830.0" type="curve" smooth="yes"/>
    </contour>
  </outline>
</glyph>
<glyph name="h" format="2">
  <advance width="1228"/>
  <unicode hex="0068"/>
  <outline>
    <contour>
      <point x="509.1042684965907" y="1308.0" type="line" smooth="yes"/>
      <point x="446.90210135677034" y="1308.4041593952486"/>
      <point x="408.07298493002963" y="1297.2204517418131"/>
      <point x="398.0380131722231" y="1254.5689255126629" type="curve" smooth="yes"/>
      <point x="186.09298236064816" y="52.56892551266297" type="line" smooth="yes"/>
      <point x="177.71750718546434" y="10.40127305055817"/>
      <point x="211.4844108427092" y="3.5196335395191802"/>
      <point x="274.23673019291533" y="4.0" type="curve" smooth="yes"/>
      <point x="276.23673019291533" y="4.0" type="line" smooth="yes"/>
      <point x="338.4388973327357" y="3.5958406047512987"/>
      <point x="377.2680137594764" y="14.779548258186946"/>
      <point x="387.302985517283" y="57.43107448733703" type="curve" smooth="yes"/>
      <point x="446.72517801603567" y="394.431074487337" type="line" smooth="yes"/>
      <point x="483.20344433758515" y="627.562159947585"/>
      <point x="692.4726772302386" y="810.7439383830072"/>
      <point x="852.708930605355" y="812.0" type="curve" smooth="yes"/>
      <point x="970.7732382079892" y="810.701423523099"/>
      <point x="995.080101327285" y="721.3693837464701"/>
      <point x="975.0728217503039" y="602.568925512663" type="curve" smooth="yes"/>
      <point x="878.0929823606481" y="52.56892551266297" type="line" smooth="yes"/>
      <point x="869.7175071854643" y="10.401273050558181"/>
      <point x="903.4844108427092" y="3.5196335395191802"/>
      <point x="966.2367301929154" y="4.0" type="curve" smooth="yes"/>
      <point x="968.2367301929154" y="4.0" type="line" smooth="yes"/>
      <point x="1030.4388973327357" y="3.5958406047512987"/>
      <point x="1069.2680137594764" y="14.779548258186946"/>
      <point x="1079.3029855172829" y="57.43107448733703" type="curve" smooth="yes"/>
      <point x="1178.9277296175655" y="622.431074487337" type="line" smooth="yes"/>
      <point x="1214.2191097902924" y="817.6496553721552"/>
      <point x="1108.0242340873654" y="933.1266709122315"/>
      <point x="893.8053237502079" y="932.0" type="curve" smooth="yes"/>
      <point x="751.2361818402367" y="932.606391958462"/>
      <point x="578.4242302205147" y="844.1082031214249"/>
      <point x="504.9196296802853" y="719.2656101219277" type="curve"/>
      <point x="599.248016328858" y="1259.4310744873371" type="line" smooth="yes"/>
      <point x="607.6234915040418" y="1301.598726949442"/>
      <point x="573.856587846797" y="1308.4803664604808"/>
      <point x="511.1042684965907" y="1308.0" type="curve" smooth="yes"/>
    </contour>
  </outline>
</glyph>
<glyph name="k" format="2">
  <advance width="1228"/>
  <unicode hex="006B"/>
  <outline>
    <contour>
      <point x="1058.0679504160032" y="912.9056257653118" type="curve" smooth="yes"/>
      <point x="476.838883888412" y="441.2217447070705" type="line"/>
      <point x="629.248016328858" y="1259.4310744873371" type="line" smooth="yes"/>
      <point x="637.6234915040418" y="1301.598726949442"/>
      <point x="603.856587846797" y="1308.4803664604808"/>
      <point x="541.1042684965907" y="1308.0" type="curve" smooth="yes"/>
      <point x="539.1042684965907" y="1308.0" type="line" smooth="yes"/>
      <point x="476.90210135677034" y="1308.4041593952486"/>
      <point x="438.07298493002963" y="1297.2204517418131"/>
      <point x="428.0380131722231" y="1254.5689255126629" type="curve" smooth="yes"/>
      <point x="216.09298236064816" y="52.56892551266297" type="line" smooth="yes"/>
      <point x="207.71750718546434" y="10.40127305055817"/>
      <point x="241.4844108427092" y="3.5196335395191802"/>
      <point x="304.23673019291533" y="4.0" type="curve" smooth="yes"/>
      <point x="306.23673019291533" y="4.0" type="line" smooth="yes"/>
      <point x="368.4388973327357" y="3.5958406047512987"/>
      <point x="407.2680137594764" y="14.779548258186946"/>
      <point x="417.302985517283" y="57.43107448733703" type="curve" smooth="yes"/>
      <point x="449.1473441321095" y="266.38358133445104" type="line"/>
      <point x="624.3414074268256" y="429.77448330160297" type="line"/>
      <point x="917.52189074771" y="11.249226578995433" type="line" smooth="yes"/>
      <point x="945.8733723094181" y="-11.551004401199442"/>
      <point x="995.8738234718152" y="-8.817204609991272"/>
      <point x="1050.8831691941439" y="17.419252938233107" type="curve" smooth="yes"/>
      <point x="1110.1115141498758" y="43.45450088461749"/>
      <point x="1126.9244909652546" y="57.4878297508057"/>
      <point x="1097.6748562714474" y="86.6896196568731" type="curve" smooth="yes"/>
      <point x="791.7009030389479" y="518.2230481886253" type="line"/>
      <point x="1197.6134653299614" y="844.1458919800154" type="line" smooth="yes"/>
      <point x="1244.5727347643476" y="870.1053613455466"/>
      <point x="1239.8718183731162" y="887.6598088664565"/>
      <point x="1191.3289302203075" y="912.3443367267503" type="curve" smooth="yes"/>
      <point x="1146.7324341367707" y="935.5787159329465"/>
      <point x="1093.5226677793432" y="932.9226736242728"/>
    </contour>
  </outline>
</glyph>
<glyph name="l" format="2">
  <advance width="1228"/>
  <unicode hex="006C"/>
  <outline>
    <contour>
      <point x="265.39108522201894" y="130.0" type="line" smooth="yes"/>
      <point x="212.90560680053642" y="130.59276601090627"/>
      <point x="174.94738169733398" y="118.50955954311098"/>
      <point x="164.09054103269204" y="69.56892551266297" type="curve" smooth="yes"/>
      <point x="154.59681395050487" y="21.02863448102335"/>
      <point x="186.71265278327485" y="13.269771210702663"/>
      <point x="240.0" y="14.0" type="curve" smooth="yes"/>
      <point x="1024.0" y="14.0" type="line" smooth="yes"/>
      <point x="1076.4854784214826" y="13.407233989093736"/>
      <point x="1114.443703524685" y="25.490440456889008"/>
      <point x="1125.3005441893267" y="74.43107448733701" type="curve" smooth="yes"/>
      <point x="1134.794271271514" y="122.97136551897668"/>
      <point x="1102.6784324387443" y="130.73022878929734"/>
      <point x="1049.391085222019" y="130.0" type="curve" smooth="yes"/>
      <point x="754.2194039394584" y="142.3937996262114" type="line"/>
      <point x="947.9557655796478" y="1246.4310744873371" type="line" smooth="yes"/>
      <point x="957.0661632363116" y="1292.7674994406227"/>
      <point x="923.8319583035172" y="1298.5936536535507"/>
      <point x="871.340998689506" y="1298.0" type="curve" smooth="yes"/>
      <point x="511.340998689506" y="1298.0" type="line" smooth="yes"/>
      <point x="458.8555202680235" y="1298.5927660109062"/>
      <point x="420.89729516482106" y="1286.509559543111"/>
      <point x="410.0404545001792" y="1237.5689255126629" type="curve" smooth="yes"/>
      <point x="400.5467274179919" y="1189.0286344810233"/>
      <point x="432.6625662507619" y="1181.2697712107026"/>
      <point x="485.9499134674871" y="1182.0" type="curve" smooth="yes"/>
      <point x="733.0552137955581" y="1169.2587255603466" type="line"/>
      <point x="554.9697086866422" y="137.92136492556526" type="line"/>
    </contour>
  </outline>
</glyph>
<glyph name="m" format="2">
  <advance width="1228"/>
  <unicode hex="006D"/>
  <outline>
    <contour>
      <point x="807.1966371486359" y="751.0009727889399" type="curve"/>
      <point x="827.869122330866" y="883.0077090720786"/>
      <point x="747.0335117266534" y="932.911501325377"/>
      <point x="650.8053237502079" y="932.0" type="curve" smooth="yes"/>
      <point x="551.6934307497596" y="932.6988316557314"/>
      <point x="445.9879891392811" y="875.4787657378895"/>
      <point x="377.8648589132448" y="743.4606504166228" type="curve"/>
      <point x="429.8331478139734" y="871.431074487337" type="line" smooth="yes"/>
      <point x="438.3193785243752" y="914.4536097145833"/>
      <point x="409.4620425247186" y="920.6402274389932"/>
      <point x="351.6893999817063" y="920.0" type="curve" smooth="yes"/>
      <point x="349.6893999817063" y="920.0" type="line" smooth="yes"/>
      <point x="292.6301326438045" y="920.5259024546197"/>
      <point x="258.1302222006146" y="909.8938056427553"/>
      <point x="248.62314465733863" y="866.568925512663" type="curve" smooth="yes"/>
      <point x="105.09298236064815" y="52.56892551266298" type="line" smooth="yes"/>
      <point x="96.71750718546434" y="10.40127305055817"/>
      <point x="130.4844108427092" y="3.5196335395191802"/>
      <point x="193.23673019291536" y="4.0" type="curve" smooth="yes"/>
      <point x="195.23673019291536" y="4.0" type="line" smooth="yes"/>
      <point x="257.4388973327357" y="3.5958406047512987"/>
      <point x="296.2680137594764" y="14.77954825818694"/>
      <point x="306.302985517283" y="57.43107448733703" type="curve" smooth="yes"/>
      <point x="377.1864317620859" y="459.431074487337" type="line" smooth="yes"/>
      <point x="411.2729062557343" y="664.2887275144185"/>
      <point x="505.622075358947" y="809.4680692711056"/>
      <point x="585.708930605355" y="812.0" type="curve" smooth="yes"/>
      <point x="640.8781822873468" y="810.1765180413702"/>
      <point x="646.0737622113863" y="749.2705021982855"/>
      <point x="630.7708056892694" y="657.568925512663" type="curve" smooth="yes"/>
      <point x="524.0929823606481" y="52.56892551266298" type="line" smooth="yes"/>
      <point x="515.7175071854643" y="10.401273050558181"/>
      <point x="549.4844108427092" y="3.5196335395191802"/>
      <point x="612.2367301929154" y="4.0" type="curve" smooth="yes"/>
      <point x="614.2367301929154" y="4.0" type="line" smooth="yes"/>
      <point x="676.4388973327357" y="3.5958406047512987"/>
      <point x="715.2680137594765" y="14.779548258186928"/>
      <point x="725.302985517283" y="57.43107448733702" type="curve" smooth="yes"/>
      <point x="796.1864317620859" y="459.431074487337" type="line" smooth="yes"/>
      <point x="830.2729062557343" y="664.2887275144185"/>
      <point x="924.622075358947" y="809.4680692711056"/>
      <point x="1004.708930605355" y="812.0" type="curve" smooth="yes"/>
      <point x="1059.878182287347" y="810.1765180413702"/>
      <point x="1065.0737622113863" y="749.2705021982855"/>
      <point x="1049.7708056892695" y="657.568925512663" type="curve" smooth="yes"/>
      <point x="943.0929823606481" y="52.56892551266298" type="line" smooth="yes"/>
      <point x="934.7175071854643" y="10.401273050558181"/>
      <point x="968.4844108427092" y="3.5196335395191785"/>
      <point x="1031.2367301929153" y="4.0" type="curve" smooth="yes"/>
      <point x="1033.2367301929153" y="4.0" type="line" smooth="yes"/>
      <point x="1095.4388973327357" y="3.5958406047512987"/>
      <point x="1134.2680137594764" y="14.779548258186946"/>
      <point x="1144.3029855172829" y="57.43107448733703" type="curve" smooth="yes"/>
      <point x="1254.1546944986567" y="680.431074487337" type="line" smooth="yes"/>
      <point x="1286.446863500249" y="858.6444363583065"/>
      <point x="1193.329886547194" y="933.198269967441"/>
      <point x="1068.805323750208" y="932.0" type="curve" smooth="yes"/>
      <point x="968.7233908311863" y="932.693544820881"/>
      <point x="869.4459666454451" y="877.4179927197345"/>
    </contour>
  </outline>
</glyph>
<glyph name="o" format="2">
  <advance width="1228"/>
  <unicode hex="006F"/>
  <outline>
    <contour>
      <point x="189.85806350899344" y="459.568925512663" type="curve" smooth="yes"/>
      <point x="140.486659657333" y="183.3335315497325"/>
      <point x="323.3615676978198" y="-9.254957961496638"/>
      <point x="610.1208064244138" y="-8.0" type="curve" smooth="yes"/>
      <point x="895.6048146475677" y="-8.964630315959145"/>
      <point x="1148.0551601114976" y="187.1836217081941"/>
      <point x="1201.068066665628" y="464.431074487337" type="curve" smooth="yes"/>
      <point x="1250.4394705172886" y="740.6664684502675"/>
      <point x="1067.564562476802" y="933.2549579614966"/>
      <point x="780.8053237502079" y="932.0" type="curve" smooth="yes"/>
      <point x="495.321315527054" y="932.9646303159592"/>
      <point x="242.87097006312416" y="736.8163782918059"/>
    </contour>
    <contour>
      <point x="995.8580635089934" y="459.568925512663" type="curve" smooth="yes"/>
      <point x="964.0727726861019" y="258.12956314364726"/>
      <point x="822.632640481343" y="112.98597135463669"/>
      <point x="636.2171995692665" y="112.0" type="curve" smooth="yes"/>
      <point x="451.10306017124196" y="113.28617118067407"/>
      <point x="360.16868030571413" y="262.11517813832194"/>
      <point x="395.06806666562824" y="464.431074487337" type="curve" smooth="yes"/>
      <point x="426.85335748851963" y="665.8704368563527"/>
      <point x="568.2934896932786" y="811.0140286453633"/>
      <point x="754.708930605355" y="812.0" type="curve" smooth="yes"/>
      <point x="939.8230700033797" y="810.713828819326"/>
      <point x="1030.7574498689075" y="661.8848218616781"/>
    </contour>
  </outline>
</glyph>
<glyph name="p" format="2">
  <advance width="1228"/>
  <unicode hex="0070"/>
  <outline>
    <contour>
      <point x="464.57843918434355" y="762.188419903487" type="curve"/>
      <point x="510.8331478139734" y="871.431074487337" type="line" smooth="yes"/>
      <point x="519.2760329157103" y="914.024798432414"/>
      <point x="487.91754597952604" y="920.5518877138535"/>
      <point x="427.6893999817063" y="920.0" type="curve" smooth="yes"/>
      <point x="425.6893999817063" y="920.0" type="line" smooth="yes"/>
      <point x="366.085424811922" y="920.4591374319032"/>
      <point x="329.3889187630694" y="909.5515611593787"/>
      <point x="319.6231446573386" y="866.568925512663" type="curve" smooth="yes"/>
      <point x="107.67811384576375" y="-335.431074487337" type="line" smooth="yes"/>
      <point x="99.30263867057992" y="-377.5987269494418"/>
      <point x="133.06954232782476" y="-384.4803664604808"/>
      <point x="195.82186167803093" y="-384.0" type="curve" smooth="yes"/>
      <point x="197.82186167803093" y="-384.0" type="line" smooth="yes"/>
      <point x="260.0240288178513" y="-384.4041593952487"/>
      <point x="298.853145244592" y="-373.22045174181306"/>
      <point x="308.8881170023986" y="-330.568925512663" type="curve" smooth="yes"/>
      <point x="391.43588444784115" y="148.08944563951948" type="line"/>
      <point x="410.27397107276045" y="50.58236868991754"/>
      <point x="515.136092180292" y="-8.514642045223182"/>
      <point x="655.1208064244138" y="-8.0" type="curve" smooth="yes"/>
      <point x="911.6488101590015" y="-8.973935983254732"/>
      <point x="1139.951300117017" y="166.78843146662095"/>
      <point x="1196.068066665628" y="464.431074487337" type="curve" smooth="yes"/>
      <point x="1249.200187921704" y="761.2309929292012"/>
      <point x="1083.619941939689" y="933.2685550638602"/>
      <point x="825.8053237502079" y="932.0" type="curve" smooth="yes"/>
      <point x="686.5947433088772" y="932.4052729856495"/>
      <point x="553.9775414179534" y="871.848419937971"/>
    </contour>
    <contour>
      <point x="990.8580635089934" y="459.568925512663" type="curve" smooth="yes"/>
      <point x="958.5444129177251" y="259.8516866132281"/>
      <point x="841.5355752228222" y="113.23604321964251"/>
      <point x="671.2171995692665" y="112.0" type="curve" smooth="yes"/>
      <point x="504.5860520021635" y="113.16148129661629"/>
      <point x="411.52377559508716" y="247.1151781383219"/>
      <point x="449.06806666562824" y="464.431074487337" type="curve" smooth="yes"/>
      <point x="483.4982621991466" y="680.8704368563527"/>
      <point x="621.8819544546468" y="811.0997371217935"/>
      <point x="789.708930605355" y="812.0" type="curve" smooth="yes"/>
      <point x="958.4304762175665" y="810.3405183242784"/>
      <point x="1025.2609119688227" y="659.8889888697205"/>
    </contour>
  </outline>
</glyph>
<glyph name="q" format="2">
  <advance width="1228"/>
  <unicode hex="0071"/>
  <outline>
    <contour>
      <point x="194.85806350899344" y="459.568925512663" type="curve" smooth="yes"/>
      <point x="141.72594225291766" y="162.76900707079878"/>
      <point x="307.3061882349326" y="-9.268555063860145"/>
      <point x="565.1208064244138" y="-8.0" type="curve" smooth="yes"/>
      <point x="704.5196893071278" y="-8.430616476785989"/>
      <point x="829.1473590888432" y="52.06952745358345"/>
      <point x="885.2330949949361" y="143.52570365720123" type="curve"/>
      <point x="801.6781138457637" y="-335.431074487337" type="line" smooth="yes"/>
      <point x="793.3026386705799" y="-377.59872694944187"/>
      <point x="827.0695423278247" y="-384.4803664604808"/>
      <point x="889.8218616780309" y="-384.0" type="curve" smooth="yes"/>
      <point x="891.8218616780309" y="-384.0" type="line" smooth="yes"/>
      <point x="954.0240288178512" y="-384.4041593952487"/>
      <point x="992.853145244592" y="-373.22045174181306"/>
      <point x="1002.8881170023986" y="-330.568925512663" type="curve" smooth="yes"/>
      <point x="1214.8331478139735" y="871.431074487337" type="line" smooth="yes"/>
      <point x="1223.2760329157104" y="914.0247984324138"/>
      <point x="1191.9175459795258" y="920.5518877138535"/>
      <point x="1131.6893999817062" y="920.0" type="curve" smooth="yes"/>
      <point x="1129.6893999817062" y="920.0" type="line" smooth="yes"/>
      <point x="1070.085424811922" y="920.4591374319032"/>
      <point x="1033.3889187630696" y="909.5515611593787"/>
      <point x="1023.6231446573387" y="866.568925512663" type="curve" smooth="yes"/>
      <point x="1037.3372403407684" y="762.211994261119" type="line"/>
      <point x="988.4074040219408" y="873.2791591727831"/>
      <point x="875.5675602688307" y="932.4818036929215"/>
      <point x="735.8053237502079" y="932.0" type="curve" smooth="yes"/>
      <point x="479.2773200156202" y="932.9739359832547"/>
      <point x="250.9748300576049" y="757.211568533379"/>
    </contour>
    <contour>
      <point x="941.8580635089934" y="459.568925512663" type="curve" smooth="yes"/>
      <point x="907.4278679754749" y="243.1295631436473"/>
      <point x="769.0441757199748" y="112.90026287820652"/>
      <point x="601.2171995692665" y="112.0" type="curve" smooth="yes"/>
      <point x="432.4956539570552" y="113.65948167572161"/>
      <point x="365.66521820579885" y="264.1110111302795"/>
      <point x="400.06806666562824" y="464.431074487337" type="curve" smooth="yes"/>
      <point x="432.38171725689654" y="664.1483133867719"/>
      <point x="549.3905549517993" y="810.7639567803575"/>
      <point x="719.708930605355" y="812.0" type="curve" smooth="yes"/>
      <point x="886.3400781724581" y="810.8385187033837"/>
      <point x="979.4023545795344" y="676.8848218616781"/>
    </contour>
  </outline>
</glyph>
<glyph name="r" format="2">
  <advance width="1228"/>
  <unicode hex="0072"/>
  <outline>
    <contour>
      <point x="568.111766926226" y="620.9304724108574" type="curve"/>
      <point x="625.8331478139735" y="871.431074487337" type="line" smooth="yes"/>
      <point x="634.2760329157103" y="914.024798432414"/>
      <point x="602.917545979526" y="920.5518877138535"/>
      <point x="542.6893999817063" y="920.0" type="curve" smooth="yes"/>
      <point x="540.6893999817063" y="920.0" type="line" smooth="yes"/>
      <point x="481.085424811922" y="920.4591374319032"/>
      <point x="444.3889187630694" y="909.5515611593787"/>
      <point x="434.6231446573386" y="866.568925512663" type="curve" smooth="yes"/>
      <point x="291.0929823606482" y="52.56892551266298" type="line" smooth="yes"/>
      <point x="282.71750718546434" y="10.401273050558158"/>
      <point x="316.48441084270917" y="3.5196335395191802"/>
      <point x="379.23673019291533" y="4.0" type="curve" smooth="yes"/>
      <point x="381.23673019291533" y="4.0" type="line" smooth="yes"/>
      <point x="443.4388973327357" y="3.5958406047512987"/>
      <point x="482.2680137594764" y="14.779548258186946"/>
      <point x="492.302985517283" y="57.43107448733703" type="curve" smooth="yes"/>
      <point x="530.213286369603" y="272.431074487337" type="line" smooth="yes"/>
      <point x="577.2193361479448" y="560.9836268119767"/>
      <point x="812.9091528577632" y="798.6044270241113"/>
      <point x="1034.5930068368534" y="800.0" type="curve" smooth="yes"/>
      <point x="1068.43209677347" y="799.9515630642626"/>
      <point x="1100.1308954588765" y="793.5686631212677"/>
      <point x="1132.8433590045622" y="781.2165305424548" type="curve" smooth="yes"/>
      <point x="1184.9788870638852" y="767.830942486368"/>
      <point x="1227.3733803500445" y="785.2953091731474"/>
      <point x="1251.3107215537652" y="835.4368785136405" type="curve" smooth="yes"/>
      <point x="1273.8738872655154" y="882.0989054094317"/>
      <point x="1257.20770360356" y="900.6823026501223"/>
      <point x="1207.4984343788717" y="911.7500428142644" type="curve" smooth="yes"/>
      <point x="1163.8560347825153" y="925.4151929540751"/>
      <point x="1116.9203510452746" y="932.0463984591207"/>
      <point x="1071.805323750208" y="932.0" type="curve" smooth="yes"/>
      <point x="884.8035714785592" y="932.6795023662588"/>
      <point x="689.2507576697234" y="817.7691015072584"/>
    </contour>
  </outline>
</glyph>
<glyph name="s" format="2">
  <advance width="1228"/>
  <unicode hex="0073"/>
  <outline>
    <contour>
      <point x="1122.4475752345622" y="279.431074487337" type="curve" smooth="yes"/>
      <point x="1144.6175421672615" y="400.4288562058929"/>
      <point x="1075.8993811527964" y="455.39916816963466"/>
      <point x="982.0683302068505" y="488.9790720364736" type="curve" smooth="yes"/>
      <point x="839.0326894568019" y="542.0931880822761"/>
      <point x="629.3915021898093" y="528.0344282735429"/>
      <point x="531.3363933200408" y="564.7543525647789" type="curve" smooth="yes"/>
      <point x="491.19917252632365" y="580.7649578661458"/>
      <point x="477.88582444752393" y="613.3326201589663"/>
      <point x="485.9808088459043" y="662.431074487337" type="curve" smooth="yes"/>
      <point x="497.1427282167275" y="761.7011740821333"/>
      <point x="577.4525428047574" y="814.7155320371905"/>
      <point x="711.2379115474805" y="815.0" type="curve" smooth="yes"/>
      <point x="826.99769687977" y="814.8908572026766"/>
      <point x="932.502852766782" y="785.0061064783672"/>
      <point x="1025.8757893210109" y="730.208051348777" type="curve" smooth="yes"/>
      <point x="1063.8445805450376" y="714.7633168069774"/>
      <point x="1115.5438062109995" y="717.1637099466606"/>
      <point x="1151.954346528732" y="766.3556620284878" type="curve" smooth="yes"/>
      <point x="1185.717275220512" y="812.7133504831692"/>
      <point x="1171.7917051964582" y="830.8490993611704"/>
      <point x="1130.031940324438" y="846.7440085062042" type="curve" smooth="yes"/>
      <point x="1015.9319568942649" y="906.8091634530097"/>
      <point x="875.2401699794146" y="932.0615247350709"/>
      <point x="730.8053237502079" y="932.0" type="curve" smooth="yes"/>
      <point x="512.5465292490243" y="932.4116855201396"/>
      <point x="318.82930148124774" y="840.6521635767265"/>
      <point x="280.7708056892695" y="657.568925512663" type="curve" smooth="yes"/>
      <point x="260.3065555085006" y="546.3993449189194"/>
      <point x="321.95442567384947" y="494.35388111391194"/>
      <point x="408.8370465906665" y="460.8874264342169" type="curve" smooth="yes"/>
      <point x="550.8512501833492" y="404.900609934448"/>
      <point x="767.6667224871567" y="419.96169398445744"/>
      <point x="868.8837018276662" y="380.1682320695405" type="curve" smooth="yes"/>
      <point x="911.5744028853658" y="362.08050599086175"/>
      <point x="925.8963558780208" y="327.3741455715835"/>
      <point x="917.2375720779273" y="274.568925512663" type="curve" smooth="yes"/>
      <point x="905.5198144730786" y="177.95384392328197"/>
      <point x="828.5899625229426" y="109.39053750003967"/>
      <point x="665.6882186271412" y="109.0" type="curve" smooth="yes"/>
      <point x="537.03566963878" y="109.11651740940876"/>
      <point x="421.705998374741" y="143.12209126061512"/>
      <point x="326.990549914464" y="205.11044327151566" type="curve" smooth="yes"/>
      <point x="290.1507490816013" y="221.34226248982432"/>
      <point x="238.26248177645053" y="219.5454991153825"/>
      <point x="199.92583033107795" y="171.23693729027414" type="curve" smooth="yes"/>
      <point x="164.11541800727537" y="125.80800477289911"/>
      <point x="176.1977556345493" y="107.77524641549748"/>
      <point x="217.2648006356829" y="89.96857041416523" type="curve" smooth="yes"/>
      <point x="336.9941528206687" y="21.049559828628766"/>
      <point x="485.5650070118411" y="-8.06780439303972"/>
      <point x="650.1208064244138" y="-8.0" type="curve" smooth="yes"/>
      <point x="916.3404527930124" y="-8.550563987692577"/>
      <point x="1087.299927330233" y="105.44411621999853"/>
    </contour>
  </outline>
</glyph>
<glyph name="u" format="2">
  <advance width="1228"/>
  <unicode hex="0075"/>
  <outline>
    <contour>
      <point x="1114.6893999817062" y="920.0" type="line" smooth="yes"/>
      <point x="1052.4872328418858" y="920.4041593952487"/>
      <point x="1013.6581164151453" y="909.2204517418131"/>
      <point x="1003.6231446573387" y="866.568925512663" type="curve" smooth="yes"/>
      <point x="944.2009521585859" y="529.568925512663" type="line" smooth="yes"/>
      <point x="907.7226858370366" y="296.43784005241497"/>
      <point x="698.453452944383" y="113.25606161699288"/>
      <point x="538.2171995692665" y="112.0" type="curve" smooth="yes"/>
      <point x="420.15289196663247" y="113.29857647690098"/>
      <point x="395.84602884733664" y="202.63061625352987"/>
      <point x="415.85330842431773" y="321.431074487337" type="curve" smooth="yes"/>
      <point x="512.8331478139735" y="871.431074487337" type="line" smooth="yes"/>
      <point x="521.2086229891573" y="913.5987269494418"/>
      <point x="487.44171933191245" y="920.4803664604808"/>
      <point x="424.6893999817063" y="920.0" type="curve" smooth="yes"/>
      <point x="422.6893999817063" y="920.0" type="line" smooth="yes"/>
      <point x="360.48723284188594" y="920.4041593952487"/>
      <point x="321.65811641514523" y="909.220451741813"/>
      <point x="311.6231446573386" y="866.568925512663" type="curve" smooth="yes"/>
      <point x="211.99840055705596" y="301.568925512663" type="line" smooth="yes"/>
      <point x="176.7070203843294" y="106.35034462784483"/>
      <point x="282.9018960872564" y="-9.126670912231496"/>
      <point x="497.1208064244138" y="-8.0" type="curve" smooth="yes"/>
      <point x="651.2642744537327" y="-8.704426929237473"/>
      <point x="829.3335360007956" y="92.65070531219041"/>
      <point x="916.4172155165562" y="231.31695457549606" type="curve"/>
      <point x="870.0929823606481" y="52.56892551266298" type="line" smooth="yes"/>
      <point x="861.6500972589114" y="9.975201567586094"/>
      <point x="893.0085841950956" y="3.4481122861464897"/>
      <point x="953.2367301929154" y="4.0" type="curve" smooth="yes"/>
      <point x="955.2367301929154" y="4.0" type="line" smooth="yes"/>
      <point x="1014.8407053626997" y="3.5408625680968786"/>
      <point x="1051.537211411552" y="14.448438840621321"/>
      <point x="1061.3029855172829" y="57.43107448733703" type="curve" smooth="yes"/>
      <point x="1204.8331478139735" y="871.431074487337" type="line" smooth="yes"/>
      <point x="1213.2086229891574" y="913.5987269494418"/>
      <point x="1179.4417193319123" y="920.4803664604808"/>
      <point x="1116.6893999817062" y="920.0" type="curve" smooth="yes"/>
    </contour>
  </outline>
</glyph>
<glyph name="v" format="2">
  <advance width="1228"/>
  <unicode hex="0076"/>
  <outline>
    <contour>
      <point x="1089.6295801892459" y="886.5446238303532" type="curve" smooth="yes"/>
      <point x="639.2147582413105" y="129.0" type="line"/>
      <point x="456.6960056127991" y="890.2689551707241" type="line" smooth="yes"/>
      <point x="440.8042175786501" y="930.0564074869748"/>
      <point x="391.29436311968124" y="932.212322096015"/>
      <point x="330.40137092034655" y="910.973248031771" type="curve" smooth="yes"/>
      <point x="269.8744391791375" y="890.262769616114"/>
      <point x="241.68603529093414" y="876.1561477630602"/>
      <point x="254.85151336038518" y="836.7905584493976" type="curve" smooth="yes"/>
      <point x="478.02779104850936" y="43.797392927160026" type="line" smooth="yes"/>
      <point x="493.7949486335789" y="4.731152144013936"/>
      <point x="539.0036496085426" y="-8.273827401602793"/>
      <point x="610.1208064244138" y="-8.0" type="curve" smooth="yes"/>
      <point x="680.9115374336469" y="-8.239711557941543"/>
      <point x="729.718095984914" y="6.973089530181779"/>
      <point x="761.0071778918892" y="47.500240643746075" type="curve" smooth="yes"/>
      <point x="1263.839909174651" y="840.4956255220806" type="line" smooth="yes"/>
      <point x="1294.5947176228508" y="880.9274589911248"/>
      <point x="1278.8120113136765" y="891.299206128877"/>
      <point x="1224.7366631230198" y="911.2675491486633" type="curve" smooth="yes"/>
      <point x="1170.605224233709" y="932.2406380849932"/>
      <point x="1121.3892845256685" y="927.9003685935113"/>
    </contour>
  </outline>
</glyph>
<glyph name="w" format="2">
  <advance width="1228"/>
  <unicode hex="0077"/>
  <outline>
    <contour>
      <point x="1154.6607958180812" y="877.6620518167806" type="curve" smooth="yes"/>
      <point x="891.5750926471331" y="196.9582219694032" type="line"/>
      <point x="845.7125146342946" y="740.8849079984669" type="line" smooth="yes"/>
      <point x="839.0053082670177" y="762.9085159600296"/>
      <point x="805.603582474492" y="776.7334776719375"/>
      <point x="753.2983147596874" y="776.0" type="curve" smooth="yes"/>
      <point x="701.7980668235481" y="776.595159453302"/>
      <point x="663.6469129296433" y="760.0211487284081"/>
      <point x="646.80698327214" y="736.6842321595153" type="curve" smooth="yes"/>
      <point x="411.74961605819334" y="197.24560634727638" type="line"/>
      <point x="386.6503842978418" y="882.1645139156838" type="line" smooth="yes"/>
      <point x="382.32547089200943" y="925.0797083909338"/>
      <point x="338.9236888466655" y="927.0"/>
      <point x="277.0938149324155" y="916.2498683617498" type="curve" smooth="yes"/>
      <point x="213.18889939282374" y="906.2786705068764"/>
      <point x="182.3839731364672" y="893.568925512663"/>
      <point x="185.76695752914998" y="849.9919941258008" type="curve" smooth="yes"/>
      <point x="242.6474110781272" y="43.99199412580081" type="line" smooth="yes"/>
      <point x="247.3952974580149" y="0.03020198033598742"/>
      <point x="281.35856990579094" y="-8.481803692921533"/>
      <point x="339.1208064244138" y="-8.0" type="curve" smooth="yes"/>
      <point x="401.4713897151273" y="-8.299658436424822"/>
      <point x="449.0998041286441" y="6.180900239351216"/>
      <point x="475.780511434185" y="49.32163613066121" type="curve" smooth="yes"/>
      <point x="711.8614742931981" y="569.0" type="line"/>
      <point x="764.8827604935058" y="45.12306829649956" type="line" smooth="yes"/>
      <point x="774.3654854148743" y="3.4195436797666234"/>
      <point x="818.361918990883" y="-8.347741032474532"/>
      <point x="881.1208064244138" y="-8.0" type="curve" smooth="yes"/>
      <point x="938.3313868657444" y="-8.405272985649475"/>
      <point x="976.0618432404864" y="3.656596097184149"/>
      <point x="998.5219452968821" y="48.46165390265936" type="curve" smooth="yes"/>
      <point x="1339.6414917479049" y="854.4616539026594" type="line" smooth="yes"/>
      <point x="1361.5939762931018" y="898.431074487337"/>
      <point x="1340.5453862899544" y="906.7244027940319"/>
      <point x="1279.2146860163577" y="916.2862304208693" type="curve" smooth="yes"/>
      <point x="1220.9236888466655" y="927.0"/>
      <point x="1176.9647392542468" y="921.759835134046"/>
    </contour>
  </outline>
</glyph>
<glyph name="x" format="2">
  <advance width="1228"/>
  <unicode hex="0078"/>
  <outline>
    <contour>
      <point x="1048.2341694426675" y="898.921936447629" type="curve" smooth="yes"/>
      <point x="721.6915924884113" y="562.7216796875" type="line"/>
      <point x="515.7369688118854" y="901.0926583465643" type="line" smooth="yes"/>
      <point x="484.9119752620563" y="933.6739819216426"/>
      <point x="435.58276784820225" y="933.430616476786"/>
      <point x="376.8577982084905" y="911.0923155130744" type="curve" smooth="yes"/>
      <point x="321.4543019247228" y="891.8688154434508"/>
      <point x="292.89417999393" y="873.4355795590683"/>
      <point x="322.81954718393814" y="842.9404876874255" type="curve" smooth="yes"/>
      <point x="569.3139441061601" y="468.4397319449622" type="line"/>
      <point x="181.603462051254" y="78.94409629944009" type="line" smooth="yes"/>
      <point x="138.51012146238523" y="46.19416285238968"/>
      <point x="149.74963621114256" y="30.58363306579675"/>
      <point x="199.50240540735777" y="12.55672586941512" type="curve" smooth="yes"/>
      <point x="250.9597651995835" y="-9.514642045223182"/>
      <point x="299.31455961764345" y="-8.881066667400946"/>
      <point x="341.7852802849017" y="25.029368686789482" type="curve" smooth="yes"/>
      <point x="684.7179318618017" y="381.03363037109375" type="line"/>
      <point x="900.0859932976716" y="22.825558790842244" type="line" smooth="yes"/>
      <point x="931.0141549125653" y="-9.673981921642593"/>
      <point x="980.3433623264193" y="-9.430616476785989"/>
      <point x="1039.0683319661312" y="12.907684486925595" type="curve" smooth="yes"/>
      <point x="1094.6190234573562" y="32.07027620703834"/>
      <point x="1122.0319501806916" y="50.56442044093173"/>
      <point x="1093.1960021446432" y="81.12988670551559" type="curve" smooth="yes"/>
      <point x="836.9748531588325" y="473.2997984158934" type="line"/>
      <point x="1208.2420245501962" y="845.097784540252" type="line" smooth="yes"/>
      <point x="1252.4160087122364" y="877.8058371476103"/>
      <point x="1239.9953782361304" y="893.3135616504474"/>
      <point x="1190.4237247672638" y="911.4432741305849" type="curve" smooth="yes"/>
      <point x="1138.966364975038" y="933.5146420452231"/>
      <point x="1090.611570556978" y="932.881066667401"/>
    </contour>
  </outline>
</glyph>
<glyph name="z" format="2">
  <advance width="1228"/>
  <unicode hex="007A"/>
  <outline>
    <contour>
      <point x="423.9261301746217" y="910.0" type="line" smooth="yes"/>
      <point x="371.44065175313915" y="910.5927660109063"/>
      <point x="333.48242664993666" y="898.509559543111"/>
      <point x="322.6255859852948" y="849.568925512663" type="curve" smooth="yes"/>
      <point x="313.13185890310757" y="801.0286344810233"/>
      <point x="345.2476977358775" y="793.2697712107026"/>
      <point x="398.5350449526027" y="794.0" type="curve" smooth="yes"/>
      <point x="908.2550648260124" y="776.2279908933019" type="line"/>
      <point x="194.27420859352642" y="102.72044106139182" type="line" smooth="yes"/>
      <point x="178.8333131853123" y="93.8588737173946"/>
      <point x="168.39597479106712" y="83.05144680948891"/>
      <point x="164.38523310985823" y="65.56892551266297" type="curve" smooth="yes"/>
      <point x="155.27483545319447" y="19.23250055937727"/>
      <point x="188.50904038598878" y="13.406346346449318"/>
      <point x="241.0" y="14.0" type="curve" smooth="yes"/>
      <point x="987.0" y="14.0" type="line" smooth="yes"/>
      <point x="1039.4854784214826" y="13.407233989093736"/>
      <point x="1077.443703524685" y="25.490440456889008"/>
      <point x="1088.3005441893267" y="74.43107448733701" type="curve" smooth="yes"/>
      <point x="1097.794271271514" y="122.97136551897668"/>
      <point x="1065.6784324387443" y="130.73022878929734"/>
      <point x="1012.391085222019" y="130.0" type="curve" smooth="yes"/>
      <point x="472.9510290015529" y="147.18187020664013" type="line"/>
      <point x="1185.478046921486" y="820.2783378951666" type="line" smooth="yes"/>
      <point x="1199.1257129745377" y="828.5851684687809"/>
      <point x="1211.8265933569662" y="839.5421580496612"/>
      <point x="1216.5408970647634" y="858.431074487337" type="curve" smooth="yes"/>
      <point x="1225.6512947214271" y="904.7674994406227"/>
      <point x="1192.417089788633" y="910.5936536535506"/>
      <point x="1139.9261301746217" y="910.0" type="curve" smooth="yes"/>
    </contour>
  </outline>
</glyph>
<glyph name="braceleft" format="2">
  <advance width="1228"/>
  <unicode hex="007B"/>
  <outline>
    <contour>
      <point x="648.2498898151415" y="957.4868180267024" type="curve" smooth="yes"/>
      <point x="640.2058586741788" y="883.4663283818815" type="line" smooth="yes"/>
      <point x="623.4776336448166" y="711.5497044731356"/>
      <point x="542.5555084806377" y="599.7754340134326"/>
      <point x="348.088439174289" y="599.0" type="curve" smooth="yes"/>
      <point x="295.6029607528065" y="599.5927660109063"/>
      <point x="257.64473564960406" y="587.509559543111"/>
      <point x="246.78789498496218" y="538.568925512663" type="curve" smooth="yes"/>
      <point x="237.29416790277492" y="490.02863448102335"/>
      <point x="269.4100067355449" y="482.2697712107027"/>
      <point x="322.6973539522701" y="483.0" type="curve" smooth="yes"/>
      <point x="527.3571929736636" y="482.2601739499009"/>
      <point x="571.3464214324249" y="376.84566471276685"/>
      <point x="526.656679833231" y="199.42434872076052" type="curve" smooth="yes"/>
      <point x="493.9763664259392" y="76.40827374817444" type="line" smooth="yes"/>
      <point x="418.9256860990017" y="-198.65473634937072"/>
      <point x="581.5500651784837" y="-319.633567443174"/>
      <point x="868.2831154240812" y="-319.0" type="curve" smooth="yes"/>
      <point x="920.7685938455637" y="-319.59276601090625"/>
      <point x="958.7268189487661" y="-307.509559543111"/>
      <point x="969.5836596134081" y="-258.568925512663" type="curve" smooth="yes"/>
      <point x="979.0773866955952" y="-210.02863448102337"/>
      <point x="946.9615478628252" y="-202.26977121070266"/>
      <point x="893.6742006461001" y="-203.0" type="curve" smooth="yes"/>
      <point x="699.3930166704056" y="-202.36881783906057"/>
      <point x="649.4170730449246" y="-106.01627848538077"/>
      <point x="696.4905293297846" y="95.29763539557659" type="curve" smooth="yes"/>
      <point x="725.8183358022368" y="216.3148243239893" type="line" smooth="yes"/>
      <point x="765.9380617252796" y="373.64779371692055"/>
      <point x="709.2102112200602" y="469.71882032740547"/>
      <point x="528.6772988669102" y="522.8988450001199" type="curve"/>
      <point x="531.5354055395476" y="558.8636473933282" type="line"/>
      <point x="717.243108884606" y="626.8645495784184"/>
      <point x="815.0570004307865" y="720.4062631277121"/>
      <point x="838.058404106624" y="876.848794936288" type="curve" smooth="yes"/>
      <point x="847.746950770216" y="948.8768543183465" type="line" smooth="yes"/>
      <point x="872.7659862867717" y="1148.085136832825"/>
      <point x="938.7284662342588" y="1241.4526546878303"/>
      <point x="1143.529532309995" y="1242.0" type="curve" smooth="yes"/>
      <point x="1196.0150107314773" y="1241.4072339890938"/>
      <point x="1233.97323583468" y="1253.490440456889"/>
      <point x="1244.8300764993219" y="1302.4310744873371" type="curve" smooth="yes"/>
      <point x="1254.323803581509" y="1350.9713655189767"/>
      <point x="1222.207964748739" y="1358.7302287892974"/>
      <point x="1168.920617532014" y="1358.0" type="curve" smooth="yes"/>
      <point x="882.8102471753597" y="1358.5336955610082"/>
      <point x="681.6021442501617" y="1233.515935227718"/>
    </contour>
  </outline>
</glyph>
<glyph name="bar" format="2">
  <advance width="1228"/>
  <unicode hex="007C"/>
  <outline>
    <contour>
      <point x="747.7335557832325" y="1326.5689255126629" type="curve" smooth="yes"/>
      <point x="462.2601740162278" y="-292.431074487337" type="line" smooth="yes"/>
      <point x="453.9272596594844" y="-334.38708190445686"/>
      <point x="488.73961061598203" y="-341.4677110150692"/>
      <point x="551.403921848495" y="-341.0" type="curve" smooth="yes"/>
      <point x="613.5313528304276" y="-341.39433748049004"/>
      <point x="653.297110160308" y="-330.0591243875413"/>
      <point x="663.4701771728626" y="-287.568925512663" type="curve" smooth="yes"/>
      <point x="948.9435589398674" y="1331.4310744873371" type="line" smooth="yes"/>
      <point x="957.2764732966107" y="1373.3870819044569"/>
      <point x="922.464122340113" y="1380.4677110150692"/>
      <point x="859.7998111076001" y="1380.0" type="curve" smooth="yes"/>
      <point x="797.6723801256675" y="1380.39433748049"/>
      <point x="757.9066227957871" y="1369.0591243875413"/>
    </contour>
  </outline>
</glyph>
<glyph name="asciitilde" format="2">
  <advance width="1228"/>
  <unicode hex="007E"/>
  <outline>
    <contour>
      <point x="236.7131109262595" y="559.3479887643862" type="curve" smooth="yes"/>
      <point x="212.75733786331634" y="539.1324654494167"/>
      <point x="219.26754120060662" y="521.1400068480259"/>
      <point x="251.63448319990016" y="501.61966367464146" type="curve" smooth="yes"/>
      <point x="286.9999743765939" y="480.06450293814527"/>
      <point x="337.047404871704" y="481.5955850399315"/>
      <point x="368.20610342085934" y="502.95724229704126" type="curve" smooth="yes"/>
      <point x="421.33365264444615" y="559.1567734863439"/>
      <point x="467.1445673475015" y="590.5686973342422"/>
      <point x="519.7406678687843" y="591.0" type="curve" smooth="yes"/>
      <point x="627.4188494414432" y="588.3107929092569"/>
      <point x="709.1159424088273" y="440.95559511357436"/>
      <point x="885.6442747239315" y="443.0" type="curve" smooth="yes"/>
      <point x="1000.6512101862563" y="442.31959455302007"/>
      <point x="1116.3135435208976" y="508.35268793277277"/>
      <point x="1196.531494618394" y="604.6520112356138" type="curve" smooth="yes"/>
      <point x="1220.487267681337" y="624.8675345505832"/>
      <point x="1213.9770643440465" y="642.8599931519741"/>
      <point x="1181.610122344753" y="662.3803363253586" type="curve" smooth="yes"/>
      <point x="1146.2446311680594" y="683.9354970618548"/>
      <point x="1096.1972006729493" y="682.4044149600685"/>
      <point x="1065.038502123794" y="661.0427577029587" type="curve" smooth="yes"/>
      <point x="1011.9109529002071" y="604.8432265136561"/>
      <point x="966.1000381971517" y="573.4313026657578"/>
      <point x="913.5039376758689" y="573.0" type="curve" smooth="yes"/>
      <point x="804.82575610321" y="575.6892070907431"/>
      <point x="724.1693785550091" y="723.0577904783802"/>
      <point x="547.6003308207218" y="721.0" type="curve" smooth="yes"/>
      <point x="432.593395358397" y="721.68040544698"/>
      <point x="316.93106202375577" y="655.6473120672273"/>
    </contour>
  </outline>
</glyph>
<glyph name="cent" format="2">
  <advance width="1228"/>
  <unicode hex="00A2"/>
  <outline>
    <contour>
      <point x="768.2747433651383" y="1244.5689255126629" type="curve" smooth="yes"/>
      <point x="537.8153795791746" y="-62.43107448733703" type="line" smooth="yes"/>
      <point x="529.5848599355653" y="-103.96727216811334"/>
      <point x="565.8312228216198" y="-111.53638349407166"/>
      <point x="621.9591274114418" y="-111.0" type="curve" smooth="yes"/>
      <point x="677.4787668769967" y="-111.44729316743455"/>
      <point x="718.5699905996964" y="-99.74498324295672"/>
      <point x="729.0253827358096" y="-57.56892551266297" type="curve" smooth="yes"/>
      <point x="959.4847465217732" y="1249.4310744873371" type="line" smooth="yes"/>
      <point x="967.7152661653826" y="1290.9672721681134"/>
      <point x="931.4689032793281" y="1298.5363834940717"/>
      <point x="875.340998689506" y="1298.0" type="curve" smooth="yes"/>
      <point x="819.8213592239512" y="1298.4472931674345"/>
      <point x="778.7301355012514" y="1286.7449832429568"/>
    </contour>
    <component base="c" xOffset="24.685777299185098" yOffset="140"/>
  </outline>
</glyph>
<glyph name="sterling" format="2">
  <advance width="1228"/>
  <unicode hex="00A3"/>
  <outline>
    <contour>
      <point x="420.2680493679656" y="881.568925512663" type="curve" smooth="yes"/>
      <point x="403.95157098929025" y="794.271765426852"/>
      <point x="430.8728120620334" y="724.5850068118301"/>
      <point x="459.0434960120949" y="639.2023161056654" type="curve"/>
      <point x="397.2598834990853" y="634.0" type="line" smooth="yes"/>
      <point x="344.77440507760275" y="634.5927660109063"/>
      <point x="306.8161799744003" y="622.509559543111"/>
      <point x="295.95933930975843" y="573.568925512663" type="curve" smooth="yes"/>
      <point x="286.46561222757117" y="525.0286344810233"/>
      <point x="318.5814510603412" y="517.2697712107026"/>
      <point x="371.86879827706633" y="518.0" type="curve" smooth="yes"/>
      <point x="507.95562324930626" y="517.8729213743853" type="line"/>
      <point x="486.17200372175444" y="484.82423853905175"/>
      <point x="485.2372169831926" y="463.7422001503475"/>
      <point x="481.86050483694953" y="442.568925512663" type="curve" smooth="yes"/>
      <point x="464.8272890193454" y="336.02105821198114"/>
      <point x="415.8880647413275" y="244.3853588865879"/>
      <point x="280.55684065530255" y="127.30430030877524" type="curve" smooth="yes"/>
      <point x="261.60699560815067" y="114.59391119003963"/>
      <point x="249.19868094045307" y="107.38992633055217"/>
      <point x="245.14606158898675" y="92.56892551266299" type="curve" smooth="yes"/>
      <point x="237.40139627475156" y="53.918910137897164"/>
      <point x="257.11657772508113" y="9.020629353011502"/>
      <point x="308.0" y="14.0" type="curve" smooth="yes"/>
      <point x="915.0" y="14.0" type="line" smooth="yes"/>
      <point x="967.4854784214825" y="13.407233989093736"/>
      <point x="1005.443703524685" y="25.490440456889026"/>
      <point x="1016.300544189327" y="74.43107448733701" type="curve" smooth="yes"/>
      <point x="1025.7942712715142" y="122.97136551897665"/>
      <point x="993.6784324387442" y="130.73022878929734"/>
      <point x="940.391085222019" y="130.0" type="curve" smooth="yes"/>
      <point x="487.7989295984838" y="130.43184266588807" type="line"/>
      <point x="598.6455603023317" y="244.92455511243662"/>
      <point x="664.5027966981493" y="341.0397609577826"/>
      <point x="685.2468349742928" y="448.431074487337" type="curve" smooth="yes"/>
      <point x="688.9743231495123" y="468.3067882301849"/>
      <point x="691.1707823530688" y="486.6511973650228"/>
      <point x="667.9735065465353" y="517.9587095410919" type="curve"/>
      <point x="903.8687982770664" y="518.0" type="line" smooth="yes"/>
      <point x="956.3542766985489" y="517.4072339890937"/>
      <point x="994.3125018017513" y="529.490440456889"/>
      <point x="1005.1693424663932" y="578.431074487337" type="curve" smooth="yes"/>
      <point x="1014.6630695485806" y="626.9713655189767"/>
      <point x="982.5472307158104" y="634.7302287892974"/>
      <point x="929.2598834990853" y="634.0" type="curve" smooth="yes"/>
      <point x="653.6710058193878" y="634.5035625142888" type="line"/>
      <point x="646.3909802249913" y="727.4057823598797"/>
      <point x="610.9214100800291" y="798.744211331603"/>
      <point x="625.4780525246005" y="886.431074487337" type="curve" smooth="yes"/>
      <point x="639.7786116752801" y="988.8974799819712"/>
      <point x="709.7631708430822" y="1073.9934782533912"/>
      <point x="814.0829265316813" y="1075.0" type="curve" smooth="yes"/>
      <point x="893.8196015233556" y="1074.8105051631971"/>
      <point x="958.2168847745545" y="1047.3396279601197"/>
      <point x="1015.0082826181975" y="1001.2179600017145" type="curve" smooth="yes"/>
      <point x="1047.9458732097119" y="984.2733376964214"/>
      <point x="1102.791104980982" y="982.209033309132"/>
      <point x="1144.1209213540333" y="1029.1868574047576" type="curve" smooth="yes"/>
      <point x="1184.2330892891844" y="1077.103993259656"/>
      <point x="1174.8228676936494" y="1091.645558858167"/>
      <point x="1137.8389130432568" y="1110.5648367002264" type="curve" smooth="yes"/>
      <point x="1058.1690895329095" y="1163.5272279096798"/>
      <point x="956.3079318461835" y="1195.1776329286158"/>
      <point x="841.1793196765342" y="1195.0" type="curve" smooth="yes"/>
      <point x="626.8164220103366" y="1195.939269931394"/>
      <point x="456.05704349384916" y="1061.9257645677574"/>
    </contour>
  </outline>
</glyph>
<glyph name="currency" format="2">
  <advance width="1228"/>
  <unicode hex="00A4"/>
  <outline>
    <contour>
      <point x="284.5438408081785" y="599.568925512663" type="curve" smooth="yes"/>
      <point x="268.2365219521968" y="511.3932583855781"/>
      <point x="281.3974757529897" y="435.1793183559217"/>
      <point x="318.43727374922037" y="358.2645438409175" type="curve"/>
      <point x="156.6571914024284" y="213.3333957735536" type="line" smooth="yes"/>
      <point x="114.57226950176543" y="183.95806774215586"/>
      <point x="108.10039972823594" y="170.3929405149725"/>
      <point x="142.5010817510002" y="136.90082622436242" type="curve" smooth="yes"/>
      <point x="178.6758779196453" y="102.667439307192"/>
      <point x="231.13705130873896" y="102.61702448884299"/>
      <point x="274.35194392270046" y="132.6666042264464" type="curve" smooth="yes"/>
      <point x="436.76701904462794" y="278.2370379683865" type="line"/>
      <point x="472.55035481422414" y="234.9060350749784"/>
      <point x="556.4504483665013" y="211.84880544336391"/>
      <point x="648.912742180276" y="212.0" type="curve" smooth="yes"/>
      <point x="741.1895736801746" y="211.86323471815464"/>
      <point x="832.4104546646718" y="235.27371618762723"/>
      <point x="883.2857987796282" y="277.8327018643341" type="curve"/>
      <point x="993.4431215799249" y="130.90082734432022" type="line" smooth="yes"/>
      <point x="1026.8403729198662" y="102.11530943210849"/>
      <point x="1079.354904597542" y="103.33164910435937"/>
      <point x="1127.4099058069512" y="138.6666042264464" type="curve" smooth="yes"/>
      <point x="1174.693748341335" y="173.54184644424905"/>
      <point x="1184.4020030320064" y="187.38573158269256"/>
      <point x="1153.5660154583795" y="215.09917377563758" type="curve" smooth="yes"/>
      <point x="1041.6644475204484" y="361.9402541703236" type="line"/>
      <point x="1095.4048147891483" y="438.7429518227066"/>
      <point x="1138.9235379190484" y="516.0986040365582"/>
      <point x="1155.7538439648133" y="604.431074487337" type="curve" smooth="yes"/>
      <point x="1172.0611573696349" y="692.6067127271418"/>
      <point x="1158.9002303932184" y="768.820713411501"/>
      <point x="1121.860411075365" y="845.735456115752" type="curve"/>
      <point x="1283.6404933705633" y="990.6666042264465" type="line" smooth="yes"/>
      <point x="1325.7254152712264" y="1020.0419322578441"/>
      <point x="1332.197285044756" y="1033.6070594850275"/>
      <point x="1297.7966030219918" y="1067.0991737756376" type="curve" smooth="yes"/>
      <point x="1261.6218068533465" y="1101.3325606928079"/>
      <point x="1209.1606334642527" y="1101.382975511157"/>
      <point x="1165.9457408502915" y="1071.3333957735535" type="curve" smooth="yes"/>
      <point x="1003.5306310144161" y="925.7629312315485" type="line"/>
      <point x="967.74730615921" y="969.0939667451952"/>
      <point x="883.8472370975338" y="992.15119461177"/>
      <point x="791.3849425927158" y="992.0" type="curve" smooth="yes"/>
      <point x="699.108111718886" y="992.1367652343757"/>
      <point x="607.8871976464468" y="968.7262842597695"/>
      <point x="557.0118516057565" y="926.1672680450685" type="curve"/>
      <point x="446.8545666194177" y="1073.0991748955955" type="line" smooth="yes"/>
      <point x="413.4573118531256" y="1101.8846905678915"/>
      <point x="360.94278017544985" y="1100.6683508956405"/>
      <point x="312.8877789660405" y="1065.3333957735535" type="curve" smooth="yes"/>
      <point x="265.6039364316567" y="1030.4581535557509"/>
      <point x="255.89568174098542" y="1016.6142684173075"/>
      <point x="286.7316693146124" y="988.9008262243624" type="curve" smooth="yes"/>
      <point x="398.6332381990666" y="842.0597475963425" type="line"/>
      <point x="344.8928895953651" y="765.2570795230521"/>
      <point x="301.3741419270757" y="687.9013647036242"/>
    </contour>
    <contour>
      <point x="956.5438408081785" y="599.568925512663" type="curve" smooth="yes"/>
      <point x="932.8279466485487" y="443.0023640091803"/>
      <point x="821.4851094136275" y="326.96084913104994"/>
      <point x="673.951173440878" y="326.0" type="curve" smooth="yes"/>
      <point x="527.687835363526" y="327.24943893862866"/>
      <point x="456.71605346268274" y="446.93415789999557"/>
      <point x="483.7538439648133" y="604.431074487337" type="curve" smooth="yes"/>
      <point x="507.46973812444315" y="760.9976359908197"/>
      <point x="618.8125753593644" y="877.0391508689501"/>
      <point x="766.3465113321138" y="878.0" type="curve" smooth="yes"/>
      <point x="912.6098494094658" y="876.7505610613714"/>
      <point x="983.5816313103091" y="757.0658421000045"/>
    </contour>
  </outline>
</glyph>
<glyph name="yen" format="2">
  <advance width="1228"/>
  <unicode hex="00A5"/>
  <outline>
    <contour>
      <point x="309.52590962747377" y="420.0" type="line" smooth="yes"/>
      <point x="257.04043120599124" y="420.59276601090625"/>
      <point x="219.0822061027888" y="408.509559543111"/>
      <point x="208.22536543814692" y="359.568925512663" type="curve" smooth="yes"/>
      <point x="198.73163835595972" y="311.02863448102335"/>
      <point x="230.8474771887297" y="303.2697712107027"/>
      <point x="284.1348244054548" y="304.0" type="curve" smooth="yes"/>
      <point x="572.8682304997044" y="300.4670155373525" type="line"/>
      <point x="523.0929823606481" y="52.56892551266298" type="line" smooth="yes"/>
      <point x="514.7175071854643" y="10.401273050558181"/>
      <point x="548.4844108427092" y="3.5196335395191802"/>
      <point x="611.2367301929154" y="4.0" type="curve" smooth="yes"/>
      <point x="613.2367301929154" y="4.0" type="line" smooth="yes"/>
      <point x="675.4388973327357" y="3.5958406047512987"/>
      <point x="714.2680137594765" y="14.779548258186928"/>
      <point x="724.302985517283" y="57.43107448733702" type="curve" smooth="yes"/>
      <point x="754.7015579814122" y="301.5964449187673" type="line"/>
      <point x="1046.1348244054548" y="304.0" type="line" smooth="yes"/>
      <point x="1098.6203028269372" y="303.40723398909375"/>
      <point x="1136.57852793014" y="315.490440456889"/>
      <point x="1147.4353685947817" y="364.431074487337" type="curve" smooth="yes"/>
      <point x="1156.929095676969" y="412.97136551897665"/>
      <point x="1124.8132568441988" y="420.7302287892973"/>
      <point x="1071.5259096274738" y="420.0" type="curve" smooth="yes"/>
      <point x="770.1377199681812" y="420.221999126537" type="line"/>
      <point x="797.040117524542" y="494.837789652812" type="line"/>
      <point x="876.6344186406343" y="613.3128112963748" type="line"/>
      <point x="1120.796188425079" y="614.0" type="line" smooth="yes"/>
      <point x="1173.2816668465616" y="613.4072339890937"/>
      <point x="1211.239891949764" y="625.490440456889"/>
      <point x="1222.0967326144057" y="674.431074487337" type="curve" smooth="yes"/>
      <point x="1231.5904596965931" y="722.9713655189767"/>
      <point x="1199.474620863823" y="730.7302287892974"/>
      <point x="1146.187273647098" y="730.0" type="curve" smooth="yes"/>
      <point x="1012.6691078687568" y="749.0154345615961" type="line"/>
      <point x="1301.2470238981314" y="1104.9503553178772" type="line" smooth="yes"/>
      <point x="1337.9290172677581" y="1141.8497239237272"/>
      <point x="1330.6328395879107" y="1153.1982682892815"/>
      <point x="1275.9561778891882" y="1174.4857037070087" type="curve" smooth="yes"/>
      <point x="1224.436673431734" y="1196.3883024212078"/>
      <point x="1174.9991818626454" y="1193.3702366934733"/>
      <point x="1141.6031270087915" y="1163.0882824177897" type="curve" smooth="yes"/>
      <point x="728.1103014335271" y="632.019775390625" type="line"/>
      <point x="503.170988618038" y="1166.027961657037" type="line" smooth="yes"/>
      <point x="481.62396438663876" y="1194.4775311945532"/>
      <point x="430.7923125737528" y="1196.324250206097"/>
      <point x="372.1069854906574" y="1174.120748684784" type="curve" smooth="yes"/>
      <point x="310.4672031775061" y="1151.800434314067"/>
      <point x="288.4557196313258" y="1137.4930085496248"/>
      <point x="309.79713096527564" y="1102.0384061426385" type="curve" smooth="yes"/>
      <point x="475.7230904014554" y="744.4346217749129" type="line"/>
      <point x="344.187273647098" y="730.0" type="line" smooth="yes"/>
      <point x="291.70179522561546" y="730.5927660109063"/>
      <point x="253.74357012241296" y="718.509559543111"/>
      <point x="242.88672945777108" y="669.568925512663" type="curve" smooth="yes"/>
      <point x="233.39300237558388" y="621.0286344810233"/>
      <point x="265.50884120835383" y="613.2697712107026"/>
      <point x="318.796188425079" y="614.0" type="curve" smooth="yes"/>
      <point x="561.6003560876554" y="613.1296974803251" type="line"/>
      <point x="599.7278074615687" y="490.3981490721867" type="line"/>
      <point x="611.2362914785011" y="420.1918556682809" type="line"/>
    </contour>
  </outline>
</glyph>
